G04 EAGLE Gerber RS-274X export*
G75*
%MOMM*%
%FSLAX34Y34*%
%LPD*%
%INBottom Copper*%
%IPPOS*%
%AMOC8*
5,1,8,0,0,1.08239X$1,22.5*%
G01*
%ADD10C,1.058000*%
%ADD11R,1.651000X1.651000*%
%ADD12C,1.651000*%
%ADD13C,0.203200*%
%ADD14C,0.609600*%
%ADD15C,0.304800*%
%ADD16C,0.381000*%

G36*
X336815Y5212D02*
X336815Y5212D01*
X336846Y5210D01*
X336946Y5232D01*
X337047Y5248D01*
X337075Y5261D01*
X337105Y5268D01*
X337194Y5319D01*
X337286Y5363D01*
X337309Y5385D01*
X337336Y5400D01*
X337406Y5475D01*
X337481Y5545D01*
X337496Y5572D01*
X337517Y5594D01*
X337562Y5687D01*
X337613Y5775D01*
X337619Y5806D01*
X337633Y5834D01*
X337648Y5935D01*
X337670Y6035D01*
X337668Y6066D01*
X337672Y6097D01*
X337657Y6198D01*
X337649Y6300D01*
X337637Y6329D01*
X337632Y6359D01*
X337607Y6404D01*
X337550Y6547D01*
X337467Y6649D01*
X337441Y6694D01*
X333109Y11446D01*
X329691Y20269D01*
X329691Y29731D01*
X333109Y38554D01*
X339484Y45547D01*
X347954Y49764D01*
X357376Y50638D01*
X366477Y48048D01*
X374028Y42346D01*
X379009Y34301D01*
X380747Y25000D01*
X379009Y15699D01*
X374028Y7654D01*
X372903Y6805D01*
X372824Y6724D01*
X372742Y6647D01*
X372731Y6629D01*
X372717Y6615D01*
X372666Y6514D01*
X372610Y6417D01*
X372605Y6396D01*
X372596Y6378D01*
X372576Y6267D01*
X372552Y6157D01*
X372554Y6137D01*
X372550Y6116D01*
X372564Y6004D01*
X372574Y5892D01*
X372581Y5873D01*
X372584Y5853D01*
X372631Y5750D01*
X372673Y5645D01*
X372686Y5629D01*
X372694Y5611D01*
X372769Y5527D01*
X372840Y5439D01*
X372857Y5428D01*
X372871Y5412D01*
X372967Y5354D01*
X373061Y5292D01*
X373077Y5288D01*
X373099Y5275D01*
X373357Y5211D01*
X373408Y5214D01*
X373438Y5208D01*
X430900Y5208D01*
X430954Y5216D01*
X430987Y5212D01*
X432275Y5339D01*
X432518Y5401D01*
X432528Y5402D01*
X434909Y6388D01*
X435136Y6526D01*
X435171Y6564D01*
X435197Y6581D01*
X437019Y8403D01*
X437177Y8617D01*
X437194Y8666D01*
X437212Y8691D01*
X438198Y11072D01*
X438205Y11102D01*
X438207Y11105D01*
X438215Y11142D01*
X438258Y11315D01*
X438261Y11325D01*
X438388Y12613D01*
X438385Y12668D01*
X438392Y12700D01*
X438392Y41498D01*
X438387Y41532D01*
X438390Y41567D01*
X438367Y41663D01*
X438352Y41761D01*
X438337Y41792D01*
X438330Y41826D01*
X438280Y41911D01*
X438237Y42000D01*
X438213Y42025D01*
X438196Y42055D01*
X438123Y42122D01*
X438055Y42195D01*
X438025Y42212D01*
X438000Y42235D01*
X437910Y42277D01*
X437825Y42326D01*
X437791Y42334D01*
X437760Y42349D01*
X437662Y42363D01*
X437565Y42384D01*
X437531Y42381D01*
X437497Y42386D01*
X437399Y42371D01*
X437300Y42363D01*
X437268Y42350D01*
X437234Y42344D01*
X437145Y42301D01*
X437053Y42264D01*
X437027Y42242D01*
X436996Y42227D01*
X436960Y42188D01*
X436847Y42096D01*
X436771Y41981D01*
X436735Y41942D01*
X433555Y36435D01*
X425374Y29571D01*
X415339Y25918D01*
X404661Y25918D01*
X394625Y29571D01*
X386445Y36435D01*
X381105Y45683D01*
X379251Y56200D01*
X381105Y66717D01*
X386445Y75965D01*
X394625Y82829D01*
X404661Y86482D01*
X415339Y86482D01*
X425375Y82829D01*
X433555Y75965D01*
X436735Y70458D01*
X436756Y70431D01*
X436771Y70400D01*
X436839Y70327D01*
X436901Y70250D01*
X436929Y70231D01*
X436953Y70205D01*
X437039Y70156D01*
X437121Y70101D01*
X437154Y70091D01*
X437183Y70074D01*
X437280Y70052D01*
X437375Y70023D01*
X437409Y70023D01*
X437443Y70016D01*
X437542Y70024D01*
X437641Y70024D01*
X437674Y70035D01*
X437708Y70037D01*
X437800Y70074D01*
X437894Y70104D01*
X437922Y70123D01*
X437955Y70136D01*
X438031Y70199D01*
X438113Y70255D01*
X438134Y70282D01*
X438161Y70304D01*
X438216Y70387D01*
X438277Y70464D01*
X438289Y70496D01*
X438308Y70525D01*
X438320Y70576D01*
X438372Y70712D01*
X438379Y70829D01*
X438390Y70877D01*
X438389Y70888D01*
X438392Y70902D01*
X438392Y295498D01*
X438387Y295532D01*
X438390Y295567D01*
X438367Y295663D01*
X438352Y295761D01*
X438337Y295792D01*
X438330Y295826D01*
X438280Y295911D01*
X438237Y296000D01*
X438213Y296025D01*
X438196Y296055D01*
X438123Y296122D01*
X438055Y296195D01*
X438025Y296212D01*
X438000Y296235D01*
X437910Y296277D01*
X437825Y296326D01*
X437791Y296334D01*
X437760Y296349D01*
X437662Y296363D01*
X437565Y296384D01*
X437531Y296381D01*
X437497Y296386D01*
X437399Y296371D01*
X437300Y296363D01*
X437268Y296350D01*
X437234Y296344D01*
X437145Y296301D01*
X437053Y296264D01*
X437027Y296242D01*
X436996Y296227D01*
X436960Y296188D01*
X436847Y296096D01*
X436771Y295981D01*
X436735Y295942D01*
X433555Y290435D01*
X425375Y283571D01*
X415339Y279918D01*
X404661Y279918D01*
X394625Y283571D01*
X386445Y290435D01*
X381105Y299683D01*
X379251Y310200D01*
X381105Y320717D01*
X386445Y329965D01*
X394625Y336829D01*
X404661Y340482D01*
X415339Y340482D01*
X425375Y336829D01*
X433555Y329965D01*
X436735Y324458D01*
X436756Y324431D01*
X436771Y324400D01*
X436839Y324327D01*
X436901Y324250D01*
X436929Y324231D01*
X436953Y324205D01*
X437039Y324156D01*
X437121Y324101D01*
X437154Y324091D01*
X437183Y324074D01*
X437280Y324052D01*
X437375Y324023D01*
X437409Y324023D01*
X437443Y324016D01*
X437542Y324024D01*
X437641Y324024D01*
X437674Y324035D01*
X437708Y324037D01*
X437800Y324074D01*
X437894Y324104D01*
X437922Y324123D01*
X437955Y324136D01*
X438031Y324199D01*
X438113Y324255D01*
X438134Y324282D01*
X438161Y324304D01*
X438216Y324387D01*
X438277Y324464D01*
X438289Y324496D01*
X438308Y324525D01*
X438320Y324576D01*
X438372Y324712D01*
X438381Y324850D01*
X438392Y324902D01*
X438392Y337300D01*
X438384Y337354D01*
X438388Y337387D01*
X438261Y338675D01*
X438199Y338918D01*
X438198Y338928D01*
X437212Y341309D01*
X437180Y341362D01*
X437158Y341417D01*
X437114Y341470D01*
X437074Y341536D01*
X437036Y341571D01*
X437019Y341597D01*
X435197Y343419D01*
X434983Y343577D01*
X434934Y343594D01*
X434909Y343612D01*
X432528Y344598D01*
X432285Y344658D01*
X432275Y344661D01*
X430987Y344788D01*
X430932Y344785D01*
X430900Y344792D01*
X43438Y344792D01*
X43327Y344775D01*
X43215Y344764D01*
X43196Y344756D01*
X43175Y344752D01*
X43074Y344703D01*
X42970Y344659D01*
X42955Y344646D01*
X42936Y344637D01*
X42853Y344560D01*
X42768Y344487D01*
X42757Y344469D01*
X42742Y344455D01*
X42686Y344357D01*
X42625Y344262D01*
X42620Y344242D01*
X42610Y344225D01*
X42585Y344115D01*
X42556Y344006D01*
X42556Y343985D01*
X42552Y343965D01*
X42561Y343853D01*
X42565Y343740D01*
X42572Y343721D01*
X42574Y343700D01*
X42616Y343596D01*
X42653Y343489D01*
X42663Y343477D01*
X42673Y343453D01*
X42840Y343247D01*
X42883Y343219D01*
X42903Y343195D01*
X44028Y342346D01*
X49009Y334301D01*
X50747Y325000D01*
X49009Y315699D01*
X44028Y307654D01*
X36477Y301952D01*
X27376Y299362D01*
X17954Y300236D01*
X9484Y304453D01*
X6752Y307449D01*
X6697Y307495D01*
X6647Y307547D01*
X6594Y307578D01*
X6546Y307617D01*
X6479Y307644D01*
X6417Y307679D01*
X6356Y307693D01*
X6299Y307716D01*
X6227Y307721D01*
X6157Y307737D01*
X6096Y307732D01*
X6034Y307737D01*
X5964Y307721D01*
X5892Y307715D01*
X5835Y307693D01*
X5775Y307679D01*
X5712Y307643D01*
X5645Y307616D01*
X5598Y307578D01*
X5544Y307547D01*
X5495Y307494D01*
X5439Y307449D01*
X5405Y307398D01*
X5363Y307353D01*
X5332Y307288D01*
X5292Y307228D01*
X5282Y307185D01*
X5247Y307113D01*
X5208Y306852D01*
X5208Y306851D01*
X5208Y12700D01*
X5216Y12646D01*
X5212Y12613D01*
X5339Y11325D01*
X5353Y11268D01*
X5357Y11222D01*
X5379Y11167D01*
X5401Y11082D01*
X5402Y11072D01*
X6388Y8691D01*
X6526Y8464D01*
X6564Y8429D01*
X6581Y8403D01*
X8403Y6581D01*
X8617Y6423D01*
X8666Y6406D01*
X8691Y6388D01*
X11072Y5402D01*
X11315Y5342D01*
X11325Y5339D01*
X12613Y5212D01*
X12668Y5215D01*
X12700Y5208D01*
X336784Y5208D01*
X336815Y5212D01*
G37*
%LPC*%
G36*
X401008Y96966D02*
X401008Y96966D01*
X399966Y98008D01*
X399966Y112901D01*
X399963Y112922D01*
X399965Y112943D01*
X399943Y113053D01*
X399926Y113164D01*
X399917Y113183D01*
X399913Y113203D01*
X399889Y113242D01*
X399811Y113403D01*
X399734Y113486D01*
X399706Y113529D01*
X329691Y183544D01*
X329691Y239014D01*
X329676Y239116D01*
X329668Y239218D01*
X329656Y239246D01*
X329651Y239277D01*
X329607Y239369D01*
X329569Y239465D01*
X329549Y239488D01*
X329536Y239516D01*
X329466Y239591D01*
X329401Y239671D01*
X329375Y239688D01*
X329354Y239710D01*
X329265Y239761D01*
X329180Y239818D01*
X329156Y239824D01*
X329124Y239842D01*
X328864Y239900D01*
X328826Y239897D01*
X328803Y239902D01*
X319740Y239902D01*
X319689Y239895D01*
X319638Y239896D01*
X319558Y239875D01*
X319477Y239862D01*
X319431Y239840D01*
X319381Y239826D01*
X319312Y239782D01*
X319238Y239747D01*
X319200Y239712D01*
X319157Y239684D01*
X319104Y239621D01*
X319044Y239565D01*
X319018Y239521D01*
X318985Y239481D01*
X318952Y239406D01*
X318912Y239335D01*
X318901Y239284D01*
X318880Y239237D01*
X318872Y239155D01*
X318854Y239075D01*
X318858Y239024D01*
X318853Y238972D01*
X318869Y238892D01*
X318876Y238810D01*
X318895Y238762D01*
X318905Y238712D01*
X318933Y238668D01*
X318975Y238563D01*
X319088Y238424D01*
X319112Y238386D01*
X321565Y235933D01*
X321565Y231935D01*
X318737Y229107D01*
X314739Y229107D01*
X313856Y229990D01*
X313839Y230003D01*
X313826Y230019D01*
X313732Y230081D01*
X313642Y230148D01*
X313622Y230155D01*
X313605Y230166D01*
X313560Y230176D01*
X313391Y230235D01*
X313278Y230239D01*
X313228Y230250D01*
X82158Y230250D01*
X82137Y230247D01*
X82116Y230249D01*
X82006Y230227D01*
X81895Y230210D01*
X81876Y230201D01*
X81855Y230197D01*
X81817Y230173D01*
X81656Y230095D01*
X81573Y230018D01*
X81530Y229990D01*
X41663Y190123D01*
X41650Y190106D01*
X41634Y190093D01*
X41572Y190000D01*
X41505Y189909D01*
X41498Y189890D01*
X41487Y189872D01*
X41477Y189827D01*
X41418Y189658D01*
X41414Y189546D01*
X41403Y189495D01*
X41403Y188247D01*
X38575Y185419D01*
X34577Y185419D01*
X31749Y188247D01*
X31749Y192245D01*
X34577Y195073D01*
X35825Y195073D01*
X35846Y195076D01*
X35867Y195074D01*
X35977Y195096D01*
X36088Y195113D01*
X36107Y195122D01*
X36128Y195126D01*
X36166Y195150D01*
X36327Y195228D01*
X36410Y195305D01*
X36453Y195333D01*
X78738Y237618D01*
X313228Y237618D01*
X313248Y237621D01*
X313269Y237619D01*
X313380Y237641D01*
X313491Y237658D01*
X313509Y237667D01*
X313530Y237671D01*
X313569Y237695D01*
X313730Y237773D01*
X313812Y237850D01*
X313856Y237878D01*
X314364Y238386D01*
X314394Y238427D01*
X314432Y238463D01*
X314473Y238534D01*
X314522Y238600D01*
X314539Y238649D01*
X314564Y238693D01*
X314582Y238773D01*
X314609Y238851D01*
X314611Y238903D01*
X314622Y238953D01*
X314615Y239035D01*
X314618Y239117D01*
X314605Y239166D01*
X314600Y239218D01*
X314570Y239294D01*
X314548Y239373D01*
X314521Y239417D01*
X314501Y239465D01*
X314450Y239528D01*
X314406Y239597D01*
X314366Y239631D01*
X314334Y239671D01*
X314265Y239716D01*
X314203Y239769D01*
X314156Y239790D01*
X314113Y239818D01*
X314062Y239830D01*
X313959Y239874D01*
X313780Y239892D01*
X313736Y239902D01*
X221232Y239902D01*
X191647Y269487D01*
X191630Y269500D01*
X191617Y269516D01*
X191524Y269578D01*
X191433Y269645D01*
X191414Y269652D01*
X191396Y269663D01*
X191351Y269673D01*
X191182Y269732D01*
X191070Y269736D01*
X191019Y269747D01*
X189771Y269747D01*
X186943Y272575D01*
X186943Y276573D01*
X189771Y279401D01*
X193769Y279401D01*
X196597Y276573D01*
X196597Y275325D01*
X196600Y275304D01*
X196598Y275283D01*
X196620Y275173D01*
X196637Y275062D01*
X196646Y275043D01*
X196650Y275022D01*
X196674Y274984D01*
X196752Y274823D01*
X196829Y274740D01*
X196857Y274697D01*
X224024Y247530D01*
X224041Y247517D01*
X224054Y247501D01*
X224147Y247439D01*
X224238Y247372D01*
X224257Y247365D01*
X224275Y247354D01*
X224320Y247344D01*
X224489Y247285D01*
X224601Y247281D01*
X224652Y247270D01*
X329484Y247270D01*
X329505Y247273D01*
X329525Y247271D01*
X329636Y247293D01*
X329747Y247310D01*
X329765Y247319D01*
X329786Y247323D01*
X329825Y247347D01*
X329986Y247425D01*
X330068Y247502D01*
X330112Y247530D01*
X330995Y248413D01*
X334993Y248413D01*
X335541Y247865D01*
X335582Y247835D01*
X335618Y247797D01*
X335689Y247756D01*
X335755Y247707D01*
X335804Y247690D01*
X335848Y247665D01*
X335928Y247647D01*
X336006Y247620D01*
X336058Y247618D01*
X336108Y247607D01*
X336190Y247614D01*
X336272Y247611D01*
X336321Y247624D01*
X336373Y247629D01*
X336449Y247659D01*
X336528Y247681D01*
X336572Y247708D01*
X336620Y247728D01*
X336683Y247779D01*
X336752Y247823D01*
X336786Y247863D01*
X336826Y247895D01*
X336871Y247964D01*
X336924Y248026D01*
X336945Y248073D01*
X336973Y248116D01*
X336985Y248167D01*
X337029Y248270D01*
X337047Y248449D01*
X337057Y248493D01*
X337057Y283166D01*
X337050Y283217D01*
X337051Y283269D01*
X337030Y283348D01*
X337017Y283429D01*
X336995Y283475D01*
X336981Y283525D01*
X336937Y283595D01*
X336902Y283668D01*
X336867Y283706D01*
X336839Y283750D01*
X336776Y283803D01*
X336720Y283863D01*
X336676Y283888D01*
X336636Y283922D01*
X336561Y283954D01*
X336490Y283995D01*
X336439Y284006D01*
X336392Y284026D01*
X336310Y284035D01*
X336230Y284052D01*
X336179Y284048D01*
X336127Y284053D01*
X336047Y284037D01*
X335965Y284031D01*
X335917Y284012D01*
X335867Y284001D01*
X335823Y283974D01*
X335718Y283932D01*
X335579Y283819D01*
X335541Y283794D01*
X334404Y282657D01*
X331806Y281581D01*
X328994Y281581D01*
X326396Y282657D01*
X325194Y283860D01*
X325178Y283871D01*
X325165Y283887D01*
X325135Y283907D01*
X325109Y283934D01*
X325042Y283972D01*
X324980Y284017D01*
X324958Y284025D01*
X324944Y284034D01*
X324919Y284040D01*
X324876Y284064D01*
X324801Y284079D01*
X324729Y284105D01*
X324672Y284107D01*
X324616Y284118D01*
X324582Y284115D01*
X324567Y284118D01*
X324565Y284118D01*
X324522Y284112D01*
X324463Y284114D01*
X324408Y284099D01*
X324352Y284094D01*
X324323Y284082D01*
X324302Y284078D01*
X324261Y284059D01*
X324207Y284044D01*
X324159Y284013D01*
X324106Y283992D01*
X324090Y283976D01*
X324063Y283963D01*
X324028Y283930D01*
X323982Y283901D01*
X323927Y283836D01*
X323868Y283781D01*
X323847Y283744D01*
X323827Y283725D01*
X323782Y283658D01*
X322692Y282567D01*
X321409Y281710D01*
X319984Y281120D01*
X319074Y280939D01*
X319074Y288164D01*
X319059Y288265D01*
X319051Y288368D01*
X319039Y288396D01*
X319034Y288427D01*
X318990Y288519D01*
X318952Y288614D01*
X318932Y288638D01*
X318923Y288656D01*
X318933Y288674D01*
X318990Y288759D01*
X318996Y288783D01*
X319014Y288816D01*
X319072Y289075D01*
X319069Y289113D01*
X319074Y289136D01*
X319074Y300864D01*
X319059Y300965D01*
X319051Y301068D01*
X319039Y301096D01*
X319034Y301127D01*
X318990Y301219D01*
X318952Y301314D01*
X318932Y301338D01*
X318919Y301366D01*
X318849Y301441D01*
X318784Y301521D01*
X318758Y301538D01*
X318737Y301560D01*
X318648Y301611D01*
X318563Y301668D01*
X318539Y301673D01*
X318507Y301692D01*
X318247Y301750D01*
X318209Y301747D01*
X318186Y301752D01*
X317214Y301752D01*
X317112Y301737D01*
X317010Y301728D01*
X316982Y301717D01*
X316951Y301712D01*
X316859Y301668D01*
X316763Y301629D01*
X316740Y301610D01*
X316712Y301597D01*
X316637Y301526D01*
X316557Y301462D01*
X316540Y301436D01*
X316518Y301415D01*
X316467Y301326D01*
X316410Y301241D01*
X316404Y301217D01*
X316386Y301184D01*
X316328Y300925D01*
X316331Y300887D01*
X316326Y300864D01*
X316326Y289136D01*
X316341Y289035D01*
X316349Y288932D01*
X316361Y288904D01*
X316365Y288873D01*
X316410Y288781D01*
X316448Y288686D01*
X316468Y288662D01*
X316477Y288644D01*
X316467Y288626D01*
X316410Y288541D01*
X316404Y288517D01*
X316386Y288484D01*
X316328Y288225D01*
X316331Y288187D01*
X316326Y288164D01*
X316326Y280939D01*
X315416Y281120D01*
X313991Y281710D01*
X312708Y282567D01*
X311617Y283658D01*
X311573Y283725D01*
X311535Y283767D01*
X311504Y283815D01*
X311464Y283849D01*
X311433Y283887D01*
X311413Y283900D01*
X311394Y283921D01*
X311345Y283950D01*
X311302Y283987D01*
X311251Y284009D01*
X311212Y284034D01*
X311195Y284038D01*
X311165Y284056D01*
X311109Y284069D01*
X311057Y284091D01*
X310981Y284099D01*
X310906Y284117D01*
X310857Y284113D01*
X310835Y284118D01*
X310833Y284118D01*
X310819Y284116D01*
X310793Y284119D01*
X310717Y284104D01*
X310641Y284098D01*
X310602Y284083D01*
X310570Y284078D01*
X310555Y284071D01*
X310532Y284067D01*
X310490Y284040D01*
X310393Y284002D01*
X310362Y283978D01*
X310331Y283963D01*
X310262Y283898D01*
X310240Y283881D01*
X310206Y283860D01*
X309004Y282657D01*
X306406Y281581D01*
X303594Y281581D01*
X300996Y282657D01*
X299278Y284375D01*
X299195Y284436D01*
X299117Y284503D01*
X299089Y284515D01*
X299064Y284533D01*
X298967Y284567D01*
X298873Y284607D01*
X298842Y284610D01*
X298813Y284620D01*
X298711Y284624D01*
X298608Y284634D01*
X298578Y284628D01*
X298547Y284629D01*
X298448Y284602D01*
X298348Y284582D01*
X298328Y284570D01*
X298291Y284560D01*
X298067Y284417D01*
X298042Y284388D01*
X298022Y284375D01*
X296304Y282657D01*
X293706Y281581D01*
X290894Y281581D01*
X288296Y282657D01*
X286578Y284375D01*
X286495Y284436D01*
X286417Y284503D01*
X286389Y284515D01*
X286364Y284533D01*
X286267Y284567D01*
X286173Y284607D01*
X286142Y284610D01*
X286113Y284620D01*
X286011Y284624D01*
X285908Y284634D01*
X285878Y284628D01*
X285847Y284629D01*
X285748Y284602D01*
X285648Y284582D01*
X285628Y284570D01*
X285591Y284560D01*
X285367Y284417D01*
X285342Y284388D01*
X285322Y284375D01*
X283604Y282657D01*
X281006Y281581D01*
X278194Y281581D01*
X275596Y282657D01*
X273607Y284646D01*
X272531Y287244D01*
X272531Y290056D01*
X273607Y292654D01*
X275325Y294372D01*
X275386Y294455D01*
X275453Y294533D01*
X275465Y294561D01*
X275483Y294586D01*
X275517Y294683D01*
X275557Y294777D01*
X275560Y294808D01*
X275570Y294837D01*
X275574Y294940D01*
X275584Y295042D01*
X275578Y295072D01*
X275579Y295103D01*
X275552Y295202D01*
X275532Y295302D01*
X275520Y295323D01*
X275510Y295359D01*
X275367Y295583D01*
X275338Y295608D01*
X275325Y295628D01*
X273607Y297346D01*
X272531Y299944D01*
X272531Y302757D01*
X272524Y302807D01*
X272525Y302859D01*
X272504Y302938D01*
X272491Y303019D01*
X272469Y303066D01*
X272455Y303116D01*
X272411Y303185D01*
X272376Y303259D01*
X272341Y303296D01*
X272313Y303340D01*
X272250Y303393D01*
X272194Y303453D01*
X272150Y303479D01*
X272110Y303512D01*
X272035Y303544D01*
X271964Y303585D01*
X271913Y303596D01*
X271866Y303616D01*
X271784Y303625D01*
X271704Y303643D01*
X271653Y303638D01*
X271601Y303644D01*
X271521Y303628D01*
X271439Y303621D01*
X271391Y303602D01*
X271341Y303592D01*
X271297Y303564D01*
X271192Y303522D01*
X271053Y303409D01*
X271015Y303385D01*
X263151Y295521D01*
X263138Y295504D01*
X263122Y295490D01*
X263060Y295397D01*
X262993Y295307D01*
X262986Y295287D01*
X262975Y295269D01*
X262965Y295225D01*
X262906Y295056D01*
X262902Y294943D01*
X262891Y294892D01*
X262891Y292387D01*
X260063Y289559D01*
X256065Y289559D01*
X253237Y292387D01*
X253237Y296385D01*
X256065Y299213D01*
X258570Y299213D01*
X258591Y299216D01*
X258612Y299214D01*
X258722Y299236D01*
X258833Y299253D01*
X258852Y299262D01*
X258873Y299266D01*
X258911Y299290D01*
X259073Y299368D01*
X259155Y299445D01*
X259199Y299473D01*
X273670Y313945D01*
X283658Y313945D01*
X289265Y308337D01*
X289271Y308333D01*
X289271Y308332D01*
X289276Y308329D01*
X289315Y308301D01*
X289358Y308256D01*
X289421Y308222D01*
X289479Y308180D01*
X289537Y308159D01*
X289592Y308130D01*
X289662Y308116D01*
X289730Y308092D01*
X289792Y308090D01*
X289853Y308078D01*
X289900Y308087D01*
X289996Y308083D01*
X290199Y308139D01*
X290213Y308141D01*
X290215Y308142D01*
X290233Y308145D01*
X290894Y308419D01*
X293706Y308419D01*
X296304Y307343D01*
X298022Y305625D01*
X298105Y305564D01*
X298183Y305497D01*
X298211Y305485D01*
X298236Y305467D01*
X298333Y305433D01*
X298427Y305393D01*
X298458Y305390D01*
X298487Y305380D01*
X298590Y305376D01*
X298692Y305366D01*
X298722Y305372D01*
X298753Y305371D01*
X298852Y305398D01*
X298952Y305418D01*
X298973Y305430D01*
X299009Y305440D01*
X299233Y305583D01*
X299258Y305612D01*
X299278Y305625D01*
X300996Y307343D01*
X303594Y308419D01*
X306406Y308419D01*
X307067Y308145D01*
X307127Y308130D01*
X307184Y308106D01*
X307256Y308098D01*
X307325Y308081D01*
X307387Y308085D01*
X307449Y308078D01*
X307519Y308092D01*
X307590Y308096D01*
X307648Y308118D01*
X307709Y308130D01*
X307750Y308156D01*
X307839Y308190D01*
X307914Y308247D01*
X307933Y308257D01*
X307967Y308288D01*
X308009Y308321D01*
X308035Y308337D01*
X314150Y314453D01*
X336438Y314453D01*
X342647Y308244D01*
X342647Y204218D01*
X342650Y204197D01*
X342648Y204176D01*
X342670Y204066D01*
X342687Y203955D01*
X342696Y203936D01*
X342700Y203915D01*
X342724Y203877D01*
X342802Y203715D01*
X342879Y203633D01*
X342907Y203589D01*
X344177Y202319D01*
X344218Y202289D01*
X344254Y202251D01*
X344325Y202210D01*
X344391Y202162D01*
X344440Y202145D01*
X344484Y202119D01*
X344564Y202101D01*
X344642Y202074D01*
X344694Y202073D01*
X344744Y202061D01*
X344826Y202068D01*
X344908Y202065D01*
X344957Y202079D01*
X345009Y202083D01*
X345085Y202113D01*
X345164Y202135D01*
X345208Y202163D01*
X345256Y202182D01*
X345319Y202234D01*
X345388Y202278D01*
X345422Y202317D01*
X345462Y202350D01*
X345507Y202418D01*
X345560Y202480D01*
X345581Y202528D01*
X345609Y202571D01*
X345621Y202621D01*
X345665Y202725D01*
X345683Y202903D01*
X345693Y202947D01*
X345693Y205199D01*
X348521Y208027D01*
X352519Y208027D01*
X355347Y205199D01*
X355347Y202694D01*
X355350Y202673D01*
X355348Y202652D01*
X355370Y202542D01*
X355387Y202431D01*
X355396Y202412D01*
X355400Y202391D01*
X355424Y202353D01*
X355502Y202191D01*
X355579Y202109D01*
X355607Y202065D01*
X396817Y160855D01*
X396834Y160842D01*
X396848Y160826D01*
X396941Y160764D01*
X397031Y160697D01*
X397051Y160690D01*
X397069Y160679D01*
X397113Y160669D01*
X397282Y160610D01*
X397395Y160606D01*
X397446Y160595D01*
X399704Y160595D01*
X399765Y160604D01*
X399827Y160603D01*
X399896Y160624D01*
X399966Y160635D01*
X400022Y160662D01*
X400082Y160679D01*
X400141Y160719D01*
X400206Y160750D01*
X400251Y160793D01*
X400303Y160827D01*
X400330Y160866D01*
X400400Y160932D01*
X400506Y161118D01*
X400524Y161143D01*
X401494Y163484D01*
X404316Y166306D01*
X408004Y167834D01*
X411996Y167834D01*
X415684Y166306D01*
X418506Y163484D01*
X420034Y159796D01*
X420034Y155804D01*
X418506Y152116D01*
X415684Y149294D01*
X411996Y147766D01*
X408004Y147766D01*
X404316Y149294D01*
X401494Y152116D01*
X400524Y154457D01*
X400492Y154510D01*
X400469Y154568D01*
X400424Y154623D01*
X400387Y154685D01*
X400341Y154726D01*
X400302Y154774D01*
X400242Y154814D01*
X400188Y154861D01*
X400132Y154887D01*
X400080Y154921D01*
X400033Y154932D01*
X399947Y154971D01*
X399734Y154998D01*
X399704Y155005D01*
X394762Y155005D01*
X351655Y198113D01*
X351638Y198126D01*
X351624Y198142D01*
X351531Y198204D01*
X351441Y198271D01*
X351421Y198278D01*
X351403Y198289D01*
X351359Y198299D01*
X351190Y198358D01*
X351077Y198362D01*
X351026Y198373D01*
X350267Y198373D01*
X350217Y198366D01*
X350165Y198367D01*
X350086Y198346D01*
X350005Y198333D01*
X349958Y198311D01*
X349908Y198297D01*
X349839Y198253D01*
X349765Y198218D01*
X349728Y198183D01*
X349684Y198155D01*
X349631Y198092D01*
X349571Y198036D01*
X349545Y197992D01*
X349512Y197952D01*
X349480Y197877D01*
X349439Y197806D01*
X349428Y197755D01*
X349408Y197708D01*
X349399Y197626D01*
X349381Y197546D01*
X349386Y197495D01*
X349380Y197443D01*
X349396Y197363D01*
X349403Y197281D01*
X349422Y197233D01*
X349432Y197183D01*
X349460Y197139D01*
X349502Y197034D01*
X349615Y196895D01*
X349639Y196857D01*
X404797Y141699D01*
X404847Y141662D01*
X404891Y141618D01*
X404954Y141584D01*
X405011Y141541D01*
X405070Y141521D01*
X405124Y141491D01*
X405195Y141477D01*
X405262Y141454D01*
X405324Y141452D01*
X405385Y141440D01*
X405433Y141448D01*
X405528Y141445D01*
X405735Y141501D01*
X405765Y141506D01*
X408004Y142434D01*
X411996Y142434D01*
X415684Y140906D01*
X418506Y138084D01*
X420034Y134396D01*
X420034Y130404D01*
X418506Y126716D01*
X415684Y123894D01*
X411996Y122366D01*
X408004Y122366D01*
X404316Y123894D01*
X401494Y126716D01*
X399966Y130404D01*
X399966Y134396D01*
X400978Y136838D01*
X400993Y136898D01*
X401017Y136955D01*
X401025Y137027D01*
X401042Y137096D01*
X401038Y137158D01*
X401045Y137220D01*
X401031Y137290D01*
X401026Y137362D01*
X401005Y137420D01*
X400993Y137481D01*
X400967Y137521D01*
X400933Y137611D01*
X400802Y137780D01*
X400785Y137806D01*
X337813Y200779D01*
X337772Y200809D01*
X337736Y200847D01*
X337665Y200888D01*
X337599Y200936D01*
X337550Y200953D01*
X337506Y200979D01*
X337426Y200997D01*
X337348Y201024D01*
X337296Y201025D01*
X337246Y201037D01*
X337164Y201030D01*
X337082Y201033D01*
X337033Y201019D01*
X336981Y201015D01*
X336905Y200985D01*
X336826Y200963D01*
X336782Y200935D01*
X336734Y200916D01*
X336671Y200864D01*
X336602Y200820D01*
X336568Y200781D01*
X336528Y200748D01*
X336483Y200680D01*
X336430Y200618D01*
X336409Y200570D01*
X336381Y200527D01*
X336369Y200477D01*
X336325Y200373D01*
X336307Y200195D01*
X336297Y200151D01*
X336297Y186648D01*
X336300Y186627D01*
X336298Y186606D01*
X336320Y186496D01*
X336337Y186385D01*
X336346Y186366D01*
X336350Y186346D01*
X336374Y186307D01*
X336452Y186146D01*
X336529Y186063D01*
X336557Y186020D01*
X405283Y117294D01*
X405300Y117281D01*
X405313Y117265D01*
X405407Y117203D01*
X405497Y117136D01*
X405517Y117129D01*
X405534Y117118D01*
X405579Y117108D01*
X405748Y117049D01*
X405861Y117045D01*
X405911Y117034D01*
X418992Y117034D01*
X420034Y115992D01*
X420034Y98008D01*
X418992Y96966D01*
X401008Y96966D01*
G37*
%LPD*%
%LPC*%
G36*
X126271Y16001D02*
X126271Y16001D01*
X125007Y17265D01*
X124990Y17278D01*
X124977Y17294D01*
X124883Y17356D01*
X124793Y17423D01*
X124773Y17430D01*
X124756Y17441D01*
X124711Y17451D01*
X124542Y17510D01*
X124429Y17514D01*
X124379Y17525D01*
X45876Y17525D01*
X44612Y18789D01*
X44595Y18802D01*
X44582Y18818D01*
X44488Y18880D01*
X44398Y18947D01*
X44378Y18954D01*
X44361Y18965D01*
X44316Y18975D01*
X44147Y19034D01*
X44034Y19038D01*
X43984Y19049D01*
X42197Y19049D01*
X39369Y21877D01*
X39369Y25875D01*
X42197Y28703D01*
X46195Y28703D01*
X49023Y25875D01*
X49023Y25019D01*
X49038Y24917D01*
X49046Y24815D01*
X49058Y24787D01*
X49063Y24756D01*
X49107Y24664D01*
X49145Y24568D01*
X49165Y24545D01*
X49178Y24517D01*
X49248Y24442D01*
X49313Y24362D01*
X49339Y24345D01*
X49360Y24323D01*
X49449Y24272D01*
X49534Y24215D01*
X49558Y24209D01*
X49590Y24191D01*
X49850Y24133D01*
X49888Y24136D01*
X49911Y24131D01*
X124379Y24131D01*
X124399Y24134D01*
X124420Y24132D01*
X124531Y24154D01*
X124642Y24171D01*
X124660Y24180D01*
X124681Y24184D01*
X124720Y24208D01*
X124881Y24286D01*
X124963Y24363D01*
X125007Y24391D01*
X126271Y25655D01*
X130269Y25655D01*
X133097Y22827D01*
X133097Y18829D01*
X130269Y16001D01*
X126271Y16001D01*
G37*
%LPD*%
%LPC*%
G36*
X76233Y51053D02*
X76233Y51053D01*
X73405Y53881D01*
X73405Y57879D01*
X75177Y59651D01*
X75190Y59668D01*
X75206Y59681D01*
X75223Y59707D01*
X75245Y59728D01*
X75286Y59799D01*
X75335Y59865D01*
X75342Y59885D01*
X75353Y59902D01*
X75359Y59926D01*
X75377Y59959D01*
X75395Y60039D01*
X75422Y60116D01*
X75424Y60168D01*
X75435Y60218D01*
X75432Y60256D01*
X75437Y60279D01*
X75437Y130601D01*
X75434Y130621D01*
X75436Y130642D01*
X75414Y130753D01*
X75397Y130864D01*
X75388Y130882D01*
X75384Y130903D01*
X75360Y130942D01*
X75282Y131103D01*
X75205Y131185D01*
X75177Y131229D01*
X73405Y133001D01*
X73405Y136999D01*
X76233Y139827D01*
X80231Y139827D01*
X83059Y136999D01*
X83059Y133001D01*
X81287Y131229D01*
X81274Y131212D01*
X81258Y131199D01*
X81196Y131105D01*
X81129Y131015D01*
X81122Y130995D01*
X81111Y130978D01*
X81101Y130933D01*
X81042Y130764D01*
X81038Y130651D01*
X81027Y130601D01*
X81027Y60279D01*
X81030Y60258D01*
X81028Y60238D01*
X81044Y60157D01*
X81050Y60075D01*
X81062Y60047D01*
X81067Y60016D01*
X81076Y59998D01*
X81080Y59977D01*
X81104Y59938D01*
X81111Y59924D01*
X81149Y59829D01*
X81169Y59805D01*
X81182Y59777D01*
X81252Y59702D01*
X81262Y59690D01*
X81287Y59651D01*
X83059Y57879D01*
X83059Y53881D01*
X80231Y51053D01*
X76233Y51053D01*
G37*
%LPD*%
%LPC*%
G36*
X408004Y223966D02*
X408004Y223966D01*
X404316Y225494D01*
X401494Y228316D01*
X399966Y232004D01*
X399966Y235996D01*
X401494Y239684D01*
X404316Y242506D01*
X408004Y244034D01*
X411996Y244034D01*
X415684Y242506D01*
X418506Y239684D01*
X420034Y235996D01*
X420034Y232004D01*
X418506Y228316D01*
X415684Y225494D01*
X411996Y223966D01*
X408004Y223966D01*
G37*
%LPD*%
%LPC*%
G36*
X408004Y198566D02*
X408004Y198566D01*
X404316Y200094D01*
X401494Y202916D01*
X399966Y206604D01*
X399966Y210596D01*
X401494Y214284D01*
X404316Y217106D01*
X408004Y218634D01*
X411996Y218634D01*
X415684Y217106D01*
X418506Y214284D01*
X420034Y210596D01*
X420034Y206604D01*
X418506Y202916D01*
X415684Y200094D01*
X411996Y198566D01*
X408004Y198566D01*
G37*
%LPD*%
%LPC*%
G36*
X408004Y173166D02*
X408004Y173166D01*
X404316Y174694D01*
X401494Y177516D01*
X399966Y181204D01*
X399966Y185196D01*
X401494Y188884D01*
X404316Y191706D01*
X408004Y193234D01*
X411996Y193234D01*
X415684Y191706D01*
X418506Y188884D01*
X420034Y185196D01*
X420034Y181204D01*
X418506Y177516D01*
X415684Y174694D01*
X411996Y173166D01*
X408004Y173166D01*
G37*
%LPD*%
%LPC*%
G36*
X411777Y261177D02*
X411777Y261177D01*
X411777Y270049D01*
X412528Y269930D01*
X414144Y269405D01*
X415658Y268633D01*
X417033Y267635D01*
X418235Y266433D01*
X419233Y265058D01*
X420005Y263544D01*
X420530Y261928D01*
X420649Y261177D01*
X411777Y261177D01*
G37*
%LPD*%
%LPC*%
G36*
X399351Y261177D02*
X399351Y261177D01*
X399470Y261928D01*
X399995Y263544D01*
X400767Y265058D01*
X401765Y266433D01*
X402967Y267635D01*
X404342Y268633D01*
X405856Y269405D01*
X407472Y269930D01*
X408223Y270049D01*
X408223Y261177D01*
X399351Y261177D01*
G37*
%LPD*%
%LPC*%
G36*
X411777Y257623D02*
X411777Y257623D01*
X420649Y257623D01*
X420530Y256872D01*
X420005Y255256D01*
X419233Y253742D01*
X418235Y252367D01*
X417033Y251165D01*
X415658Y250167D01*
X414144Y249395D01*
X412528Y248870D01*
X411777Y248751D01*
X411777Y257623D01*
G37*
%LPD*%
%LPC*%
G36*
X407472Y248870D02*
X407472Y248870D01*
X405856Y249395D01*
X404342Y250167D01*
X402967Y251165D01*
X401765Y252367D01*
X400767Y253742D01*
X399995Y255256D01*
X399470Y256872D01*
X399351Y257623D01*
X408223Y257623D01*
X408223Y248751D01*
X407472Y248870D01*
G37*
%LPD*%
%LPC*%
G36*
X409999Y259399D02*
X409999Y259399D01*
X409999Y259401D01*
X410001Y259401D01*
X410001Y259399D01*
X409999Y259399D01*
G37*
%LPD*%
D10*
X330400Y301350D03*
X330400Y288650D03*
X317700Y301350D03*
X317700Y288650D03*
X305000Y301350D03*
X305000Y288650D03*
X292300Y301350D03*
X292300Y288650D03*
X279600Y301350D03*
X279600Y288650D03*
D11*
X410000Y107000D03*
D12*
X410000Y132400D03*
X410000Y157800D03*
X410000Y183200D03*
X410000Y208600D03*
X410000Y234000D03*
X410000Y259400D03*
D13*
X315308Y311658D02*
X305000Y301350D01*
X339852Y307086D02*
X339852Y202692D01*
X410000Y132544D02*
X410000Y132400D01*
X410000Y132544D02*
X339852Y202692D01*
X335280Y311658D02*
X315308Y311658D01*
X335280Y311658D02*
X339852Y307086D01*
D14*
X258064Y294386D03*
D13*
X274828Y311150D01*
X282500Y311150D02*
X292300Y301350D01*
X282500Y311150D02*
X274828Y311150D01*
D14*
X78232Y55880D03*
D13*
X78232Y135000D01*
D14*
X78232Y135000D03*
X350520Y203200D03*
D13*
X395920Y157800D01*
X410000Y157800D01*
D14*
X332994Y243586D03*
D15*
X332994Y184912D01*
D14*
X191770Y274574D03*
D16*
X222758Y243586D01*
X332994Y243586D01*
D15*
X332994Y184912D02*
X410000Y107906D01*
X410000Y107000D01*
D14*
X15240Y71120D03*
X15240Y58420D03*
X15240Y48260D03*
X53340Y96520D03*
X53340Y106680D03*
X63500Y106680D03*
X63500Y96520D03*
X15240Y152400D03*
X15240Y139700D03*
X15240Y127000D03*
X9144Y195834D03*
X9144Y208026D03*
X9144Y220218D03*
X22352Y183388D03*
X9144Y183388D03*
X287020Y274320D03*
X294640Y274320D03*
X302260Y274320D03*
X289560Y266700D03*
X297180Y266700D03*
X304800Y266700D03*
X430276Y112268D03*
X430276Y122428D03*
X430276Y132588D03*
X430276Y142748D03*
X430276Y102108D03*
X14224Y291338D03*
X26924Y291338D03*
X39624Y291338D03*
X52324Y291338D03*
X65024Y291338D03*
X131064Y293878D03*
X143764Y293878D03*
X156464Y293878D03*
X141224Y243078D03*
X151384Y243078D03*
X161544Y243078D03*
X171704Y243078D03*
X181864Y245618D03*
X70104Y235458D03*
X70104Y248158D03*
X271526Y273812D03*
X256540Y280924D03*
X128270Y20828D03*
D15*
X47244Y20828D01*
X44196Y23876D01*
D14*
X44196Y23876D03*
X316738Y233934D03*
D16*
X80264Y233934D02*
X36576Y190246D01*
D14*
X36576Y190246D03*
D16*
X80264Y233934D02*
X316738Y233934D01*
M02*
