M48
;GenerationSoftware,Autodesk,EAGLE,9.2.2*%
;CreationDate,2018-12-27T03:04:44Z*%
FMAT,2
ICI,OFF
METRIC,TZ,000.000
T5C0.305
T4C0.550
T3C0.889
T2C2.000
T1C3.000
%
G90
M71
T1
X41000Y5620
X41000Y31020
T2
X2500Y32500
X35500Y2500
T3
X41000Y25940
X41000Y10700
X41000Y13240
X41000Y15780
X41000Y18320
X41000Y20860
X41000Y23400
T4
X33040Y30135
X33040Y28865
X31770Y30135
X31770Y28865
X30500Y30135
X30500Y28865
X29230Y30135
X27960Y30135
X27960Y28865
X29230Y28865
T5
X28702Y27432
X29464Y27432
X30226Y27432
X28956Y26670
X29718Y26670
X30480Y26670
X43028Y11227
X43028Y12243
X43028Y13259
X43028Y14275
X43028Y10211
X1422Y29134
X2692Y29134
X3962Y29134
X5232Y29134
X6502Y29134
X5334Y9652
X14376Y29388
X15646Y29388
X14122Y24308
X15138Y24308
X16154Y24308
X17170Y24308
X18186Y24562
X7010Y23546
X7010Y24816
X27153Y27381
X25654Y28092
X12827Y2083
X4420Y2388
X31674Y23393
X3658Y19025
X25806Y29439
X7823Y5588
X7823Y13500
X35052Y20320
X33299Y24359
X19177Y27457
X1524Y7112
X1524Y5842
X1524Y4826
X5334Y10668
X6350Y10668
X13106Y29388
X6350Y9652
X1524Y15240
X1524Y13970
X1524Y12700
X914Y19583
X914Y20803
X914Y22022
X2235Y18339
X914Y18339
M30