G04 EAGLE Gerber RS-274X export*
G75*
%MOMM*%
%FSLAX34Y34*%
%LPD*%
%INTop Copper*%
%IPPOS*%
%AMOC8*
5,1,8,0,0,1.08239X$1,22.5*%
G01*
%ADD10C,0.222250*%
%ADD11R,1.350000X0.600000*%
%ADD12R,2.000000X1.200000*%
%ADD13R,1.270000X0.635000*%
%ADD14C,0.203200*%
%ADD15C,1.058000*%
%ADD16C,0.190500*%
%ADD17R,1.651000X1.651000*%
%ADD18C,1.651000*%
%ADD19R,1.016000X0.508000*%
%ADD20C,0.550000*%
%ADD21R,2.200000X1.800000*%
%ADD22C,0.254000*%
%ADD23C,0.609600*%
%ADD24C,0.304800*%
%ADD25C,0.381000*%

G36*
X96244Y5215D02*
X96244Y5215D01*
X96296Y5214D01*
X96375Y5235D01*
X96456Y5248D01*
X96503Y5270D01*
X96552Y5284D01*
X96622Y5328D01*
X96695Y5363D01*
X96733Y5398D01*
X96777Y5426D01*
X96830Y5489D01*
X96890Y5545D01*
X96915Y5589D01*
X96949Y5629D01*
X96981Y5704D01*
X97022Y5775D01*
X97033Y5826D01*
X97053Y5873D01*
X97062Y5955D01*
X97079Y6035D01*
X97075Y6086D01*
X97081Y6138D01*
X97064Y6218D01*
X97058Y6300D01*
X97039Y6348D01*
X97029Y6398D01*
X97001Y6442D01*
X96959Y6547D01*
X96846Y6686D01*
X96821Y6724D01*
X95376Y8169D01*
X95376Y9017D01*
X95361Y9119D01*
X95353Y9221D01*
X95341Y9249D01*
X95336Y9280D01*
X95292Y9372D01*
X95254Y9468D01*
X95234Y9491D01*
X95221Y9519D01*
X95151Y9594D01*
X95086Y9674D01*
X95060Y9691D01*
X95039Y9713D01*
X94950Y9764D01*
X94865Y9821D01*
X94841Y9827D01*
X94809Y9845D01*
X94549Y9903D01*
X94511Y9900D01*
X94488Y9905D01*
X69962Y9905D01*
X41395Y38473D01*
X41354Y38503D01*
X41318Y38541D01*
X41247Y38582D01*
X41181Y38630D01*
X41132Y38647D01*
X41088Y38673D01*
X41008Y38691D01*
X40930Y38718D01*
X40878Y38719D01*
X40828Y38731D01*
X40746Y38724D01*
X40664Y38727D01*
X40615Y38713D01*
X40563Y38709D01*
X40487Y38679D01*
X40408Y38657D01*
X40364Y38629D01*
X40316Y38610D01*
X40253Y38558D01*
X40184Y38514D01*
X40150Y38475D01*
X40110Y38442D01*
X40065Y38374D01*
X40012Y38312D01*
X39991Y38264D01*
X39963Y38221D01*
X39951Y38171D01*
X39907Y38067D01*
X39889Y37889D01*
X39879Y37845D01*
X39879Y33232D01*
X39882Y33211D01*
X39880Y33190D01*
X39902Y33080D01*
X39919Y32969D01*
X39928Y32950D01*
X39932Y32930D01*
X39956Y32891D01*
X40034Y32730D01*
X40111Y32647D01*
X40139Y32604D01*
X43780Y28963D01*
X43797Y28950D01*
X43810Y28934D01*
X43904Y28872D01*
X43994Y28805D01*
X44014Y28798D01*
X44031Y28787D01*
X44076Y28777D01*
X44245Y28718D01*
X44358Y28714D01*
X44408Y28703D01*
X46195Y28703D01*
X49023Y25875D01*
X49023Y21877D01*
X46195Y19049D01*
X42197Y19049D01*
X39369Y21877D01*
X39369Y23664D01*
X39366Y23685D01*
X39368Y23706D01*
X39346Y23816D01*
X39329Y23927D01*
X39320Y23946D01*
X39316Y23966D01*
X39292Y24005D01*
X39214Y24166D01*
X39137Y24249D01*
X39109Y24292D01*
X33273Y30128D01*
X33273Y186355D01*
X33270Y186375D01*
X33272Y186396D01*
X33250Y186507D01*
X33233Y186618D01*
X33224Y186636D01*
X33220Y186657D01*
X33196Y186696D01*
X33118Y186857D01*
X33041Y186939D01*
X33013Y186983D01*
X31749Y188247D01*
X31749Y192245D01*
X34577Y195073D01*
X35825Y195073D01*
X35846Y195076D01*
X35867Y195074D01*
X35977Y195096D01*
X36088Y195113D01*
X36107Y195122D01*
X36128Y195126D01*
X36166Y195150D01*
X36327Y195228D01*
X36410Y195305D01*
X36453Y195333D01*
X44824Y203704D01*
X44837Y203721D01*
X44853Y203734D01*
X44915Y203827D01*
X44982Y203918D01*
X44989Y203937D01*
X45000Y203955D01*
X45010Y204000D01*
X45069Y204169D01*
X45073Y204281D01*
X45084Y204332D01*
X45084Y238303D01*
X45081Y238324D01*
X45083Y238345D01*
X45061Y238455D01*
X45044Y238566D01*
X45035Y238585D01*
X45031Y238605D01*
X45007Y238644D01*
X44929Y238805D01*
X44852Y238888D01*
X44824Y238931D01*
X25780Y257975D01*
X25780Y262722D01*
X25773Y262773D01*
X25774Y262824D01*
X25753Y262904D01*
X25740Y262984D01*
X25718Y263031D01*
X25704Y263081D01*
X25660Y263150D01*
X25625Y263224D01*
X25589Y263262D01*
X25562Y263305D01*
X25499Y263358D01*
X25443Y263418D01*
X25399Y263444D01*
X25359Y263477D01*
X25284Y263509D01*
X25213Y263550D01*
X25162Y263561D01*
X25115Y263582D01*
X25033Y263590D01*
X24953Y263608D01*
X24902Y263604D01*
X24850Y263609D01*
X24770Y263593D01*
X24688Y263586D01*
X24640Y263567D01*
X24590Y263557D01*
X24546Y263529D01*
X24441Y263487D01*
X24302Y263374D01*
X24264Y263350D01*
X23676Y262762D01*
X22807Y262260D01*
X21838Y262000D01*
X19303Y262000D01*
X19303Y270637D01*
X19288Y270738D01*
X19279Y270841D01*
X19268Y270869D01*
X19263Y270900D01*
X19219Y270992D01*
X19180Y271087D01*
X19161Y271111D01*
X19148Y271139D01*
X19078Y271214D01*
X19013Y271294D01*
X18987Y271311D01*
X18966Y271333D01*
X18877Y271384D01*
X18792Y271441D01*
X18768Y271446D01*
X18735Y271465D01*
X18476Y271523D01*
X18438Y271520D01*
X18415Y271525D01*
X17525Y271525D01*
X17525Y271527D01*
X18415Y271527D01*
X18516Y271542D01*
X18619Y271551D01*
X18647Y271562D01*
X18678Y271567D01*
X18770Y271611D01*
X18865Y271650D01*
X18889Y271669D01*
X18917Y271682D01*
X18992Y271752D01*
X19072Y271817D01*
X19089Y271843D01*
X19111Y271864D01*
X19162Y271953D01*
X19219Y272038D01*
X19224Y272062D01*
X19243Y272095D01*
X19301Y272354D01*
X19298Y272392D01*
X19303Y272415D01*
X19303Y281052D01*
X21838Y281052D01*
X22807Y280792D01*
X23676Y280290D01*
X24264Y279702D01*
X24305Y279672D01*
X24341Y279634D01*
X24412Y279593D01*
X24478Y279545D01*
X24527Y279528D01*
X24571Y279502D01*
X24651Y279484D01*
X24729Y279457D01*
X24781Y279455D01*
X24831Y279444D01*
X24913Y279451D01*
X24995Y279448D01*
X25044Y279462D01*
X25096Y279466D01*
X25172Y279496D01*
X25251Y279518D01*
X25295Y279546D01*
X25343Y279565D01*
X25406Y279617D01*
X25475Y279661D01*
X25509Y279700D01*
X25549Y279732D01*
X25594Y279801D01*
X25647Y279863D01*
X25668Y279911D01*
X25696Y279954D01*
X25708Y280004D01*
X25752Y280108D01*
X25765Y280236D01*
X27603Y282074D01*
X28568Y283039D01*
X30391Y284862D01*
X64859Y284862D01*
X69216Y280505D01*
X69216Y265595D01*
X67952Y264331D01*
X66764Y263143D01*
X66703Y263061D01*
X66637Y262983D01*
X66625Y262954D01*
X66606Y262930D01*
X66573Y262833D01*
X66532Y262738D01*
X66529Y262707D01*
X66519Y262678D01*
X66516Y262576D01*
X66505Y262474D01*
X66511Y262444D01*
X66510Y262413D01*
X66537Y262314D01*
X66549Y262255D01*
X66549Y255549D01*
X65507Y254507D01*
X53873Y254507D01*
X52831Y255549D01*
X52831Y261620D01*
X52816Y261722D01*
X52808Y261824D01*
X52796Y261852D01*
X52791Y261883D01*
X52747Y261975D01*
X52709Y262071D01*
X52689Y262094D01*
X52676Y262122D01*
X52606Y262197D01*
X52541Y262277D01*
X52515Y262294D01*
X52494Y262316D01*
X52405Y262367D01*
X52320Y262424D01*
X52296Y262430D01*
X52264Y262448D01*
X52004Y262506D01*
X51966Y262503D01*
X51943Y262508D01*
X44145Y262508D01*
X44124Y262505D01*
X44103Y262507D01*
X43993Y262485D01*
X43882Y262468D01*
X43863Y262459D01*
X43843Y262455D01*
X43804Y262431D01*
X43643Y262353D01*
X43560Y262276D01*
X43517Y262248D01*
X42247Y260978D01*
X42186Y260895D01*
X42119Y260817D01*
X42107Y260789D01*
X42089Y260764D01*
X42055Y260667D01*
X42015Y260573D01*
X42012Y260542D01*
X42002Y260513D01*
X41998Y260411D01*
X41988Y260308D01*
X41994Y260278D01*
X41993Y260247D01*
X42020Y260148D01*
X42040Y260048D01*
X42053Y260028D01*
X42062Y259991D01*
X42205Y259767D01*
X42234Y259742D01*
X42247Y259722D01*
X56471Y245498D01*
X56488Y245485D01*
X56501Y245469D01*
X56595Y245407D01*
X56685Y245340D01*
X56705Y245333D01*
X56722Y245322D01*
X56767Y245312D01*
X56936Y245253D01*
X57049Y245249D01*
X57099Y245238D01*
X60795Y245238D01*
X65660Y240373D01*
X65660Y203619D01*
X60287Y198246D01*
X50154Y198246D01*
X50133Y198243D01*
X50112Y198245D01*
X50002Y198223D01*
X49891Y198206D01*
X49872Y198197D01*
X49851Y198193D01*
X49813Y198169D01*
X49652Y198091D01*
X49569Y198014D01*
X49526Y197986D01*
X41663Y190123D01*
X41650Y190106D01*
X41634Y190093D01*
X41572Y190000D01*
X41505Y189909D01*
X41498Y189890D01*
X41487Y189872D01*
X41477Y189827D01*
X41418Y189658D01*
X41414Y189546D01*
X41403Y189495D01*
X41403Y188247D01*
X40139Y186983D01*
X40126Y186966D01*
X40110Y186953D01*
X40048Y186859D01*
X39981Y186769D01*
X39974Y186749D01*
X39963Y186732D01*
X39953Y186687D01*
X39894Y186518D01*
X39890Y186405D01*
X39879Y186355D01*
X39879Y149310D01*
X39882Y149289D01*
X39880Y149268D01*
X39902Y149158D01*
X39919Y149047D01*
X39928Y149028D01*
X39932Y149008D01*
X39956Y148969D01*
X40034Y148808D01*
X40111Y148725D01*
X40139Y148682D01*
X40258Y148563D01*
X40275Y148550D01*
X40288Y148534D01*
X40382Y148472D01*
X40472Y148405D01*
X40492Y148398D01*
X40509Y148387D01*
X40554Y148377D01*
X40723Y148318D01*
X40836Y148314D01*
X40886Y148303D01*
X42669Y148303D01*
X42690Y148306D01*
X42711Y148304D01*
X42821Y148326D01*
X42932Y148343D01*
X42951Y148352D01*
X42972Y148356D01*
X43010Y148380D01*
X43171Y148458D01*
X43254Y148535D01*
X43297Y148563D01*
X43568Y148833D01*
X43629Y148916D01*
X43695Y148994D01*
X43707Y149022D01*
X43725Y149047D01*
X43759Y149144D01*
X43799Y149238D01*
X43803Y149269D01*
X43813Y149298D01*
X43816Y149401D01*
X43827Y149503D01*
X43821Y149533D01*
X43822Y149564D01*
X43795Y149663D01*
X43775Y149764D01*
X43762Y149784D01*
X43752Y149820D01*
X43609Y150045D01*
X43580Y150069D01*
X43568Y150089D01*
X43217Y150440D01*
X42882Y151019D01*
X42709Y151665D01*
X42709Y153501D01*
X51389Y153501D01*
X51490Y153516D01*
X51593Y153524D01*
X51621Y153536D01*
X51652Y153540D01*
X51744Y153585D01*
X51839Y153623D01*
X51863Y153643D01*
X51891Y153656D01*
X51966Y153726D01*
X51997Y153752D01*
X52013Y153732D01*
X52039Y153715D01*
X52060Y153693D01*
X52149Y153642D01*
X52234Y153585D01*
X52258Y153579D01*
X52291Y153561D01*
X52550Y153503D01*
X52588Y153506D01*
X52611Y153501D01*
X61291Y153501D01*
X61291Y151665D01*
X61118Y151019D01*
X60783Y150440D01*
X60432Y150089D01*
X60372Y150007D01*
X60305Y149928D01*
X60293Y149900D01*
X60275Y149875D01*
X60241Y149779D01*
X60201Y149684D01*
X60197Y149653D01*
X60187Y149624D01*
X60184Y149522D01*
X60173Y149420D01*
X60179Y149389D01*
X60178Y149359D01*
X60205Y149260D01*
X60225Y149159D01*
X60238Y149139D01*
X60248Y149102D01*
X60391Y148878D01*
X60420Y148853D01*
X60432Y148833D01*
X60529Y148737D01*
X60529Y141263D01*
X59894Y140628D01*
X59833Y140546D01*
X59766Y140467D01*
X59754Y140439D01*
X59736Y140414D01*
X59702Y140317D01*
X59662Y140223D01*
X59659Y140192D01*
X59649Y140163D01*
X59645Y140061D01*
X59634Y139958D01*
X59640Y139928D01*
X59639Y139897D01*
X59666Y139798D01*
X59686Y139698D01*
X59699Y139678D01*
X59709Y139641D01*
X59852Y139417D01*
X59881Y139392D01*
X59894Y139372D01*
X60529Y138737D01*
X60529Y138683D01*
X60544Y138581D01*
X60552Y138479D01*
X60564Y138451D01*
X60569Y138420D01*
X60613Y138328D01*
X60651Y138232D01*
X60671Y138209D01*
X60684Y138181D01*
X60754Y138106D01*
X60819Y138026D01*
X60845Y138009D01*
X60866Y137987D01*
X60955Y137936D01*
X61040Y137879D01*
X61064Y137873D01*
X61096Y137855D01*
X61356Y137797D01*
X61394Y137800D01*
X61417Y137795D01*
X73833Y137795D01*
X73853Y137798D01*
X73874Y137796D01*
X73985Y137818D01*
X74096Y137835D01*
X74114Y137844D01*
X74135Y137848D01*
X74174Y137872D01*
X74335Y137950D01*
X74417Y138027D01*
X74461Y138055D01*
X76233Y139827D01*
X80231Y139827D01*
X82003Y138055D01*
X82020Y138042D01*
X82033Y138026D01*
X82127Y137964D01*
X82217Y137897D01*
X82237Y137890D01*
X82254Y137879D01*
X82299Y137869D01*
X82468Y137810D01*
X82581Y137806D01*
X82631Y137795D01*
X88262Y137795D01*
X88283Y137798D01*
X88304Y137796D01*
X88414Y137818D01*
X88525Y137835D01*
X88544Y137844D01*
X88565Y137848D01*
X88603Y137872D01*
X88765Y137950D01*
X88847Y138027D01*
X88891Y138055D01*
X254980Y304145D01*
X272513Y304145D01*
X272574Y304154D01*
X272636Y304153D01*
X272705Y304174D01*
X272776Y304185D01*
X272832Y304212D01*
X272891Y304229D01*
X272950Y304269D01*
X273015Y304300D01*
X273060Y304343D01*
X273112Y304377D01*
X273140Y304416D01*
X273209Y304482D01*
X273316Y304667D01*
X273334Y304693D01*
X273607Y305354D01*
X275596Y307343D01*
X278194Y308419D01*
X281006Y308419D01*
X283604Y307343D01*
X285322Y305625D01*
X285405Y305564D01*
X285483Y305497D01*
X285511Y305485D01*
X285536Y305467D01*
X285633Y305433D01*
X285727Y305393D01*
X285758Y305390D01*
X285787Y305380D01*
X285890Y305376D01*
X285992Y305366D01*
X286022Y305372D01*
X286053Y305371D01*
X286152Y305398D01*
X286252Y305418D01*
X286273Y305430D01*
X286309Y305440D01*
X286533Y305583D01*
X286558Y305612D01*
X286578Y305625D01*
X288296Y307343D01*
X290894Y308419D01*
X293706Y308419D01*
X296304Y307343D01*
X298022Y305625D01*
X298105Y305564D01*
X298183Y305497D01*
X298211Y305485D01*
X298236Y305467D01*
X298333Y305433D01*
X298427Y305393D01*
X298458Y305390D01*
X298487Y305380D01*
X298590Y305376D01*
X298692Y305366D01*
X298722Y305372D01*
X298753Y305371D01*
X298852Y305398D01*
X298952Y305418D01*
X298973Y305430D01*
X299009Y305440D01*
X299233Y305583D01*
X299258Y305612D01*
X299278Y305625D01*
X300996Y307343D01*
X303594Y308419D01*
X306406Y308419D01*
X309004Y307343D01*
X310206Y306140D01*
X310252Y306107D01*
X310291Y306066D01*
X310358Y306028D01*
X310420Y305983D01*
X310474Y305964D01*
X310524Y305936D01*
X310599Y305921D01*
X310671Y305895D01*
X310728Y305893D01*
X310784Y305882D01*
X310860Y305889D01*
X310937Y305886D01*
X310992Y305901D01*
X311048Y305906D01*
X311119Y305936D01*
X311193Y305956D01*
X311241Y305987D01*
X311294Y306008D01*
X311330Y306043D01*
X311418Y306099D01*
X311544Y306248D01*
X311573Y306275D01*
X311618Y306342D01*
X312708Y307433D01*
X313991Y308290D01*
X315416Y308880D01*
X316326Y309061D01*
X316326Y301836D01*
X316341Y301735D01*
X316349Y301632D01*
X316361Y301604D01*
X316365Y301573D01*
X316410Y301481D01*
X316448Y301386D01*
X316468Y301362D01*
X316477Y301344D01*
X316467Y301326D01*
X316410Y301241D01*
X316404Y301217D01*
X316386Y301184D01*
X316328Y300925D01*
X316331Y300887D01*
X316326Y300864D01*
X316326Y289136D01*
X316341Y289035D01*
X316349Y288932D01*
X316361Y288904D01*
X316365Y288873D01*
X316410Y288781D01*
X316448Y288686D01*
X316468Y288662D01*
X316477Y288644D01*
X316467Y288626D01*
X316410Y288541D01*
X316404Y288517D01*
X316386Y288484D01*
X316328Y288225D01*
X316331Y288187D01*
X316326Y288164D01*
X316326Y280939D01*
X315416Y281120D01*
X313991Y281710D01*
X312708Y282567D01*
X311618Y283658D01*
X311573Y283725D01*
X311535Y283767D01*
X311504Y283815D01*
X311464Y283849D01*
X311433Y283887D01*
X311413Y283900D01*
X311394Y283921D01*
X311345Y283950D01*
X311302Y283987D01*
X311251Y284009D01*
X311212Y284034D01*
X311195Y284038D01*
X311165Y284056D01*
X311109Y284069D01*
X311057Y284091D01*
X310981Y284099D01*
X310906Y284117D01*
X310857Y284113D01*
X310835Y284118D01*
X310833Y284118D01*
X310818Y284116D01*
X310793Y284119D01*
X310717Y284104D01*
X310641Y284098D01*
X310602Y284083D01*
X310570Y284078D01*
X310555Y284071D01*
X310532Y284067D01*
X310490Y284040D01*
X310393Y284002D01*
X310362Y283978D01*
X310331Y283963D01*
X310262Y283898D01*
X310240Y283881D01*
X310206Y283860D01*
X309004Y282657D01*
X306406Y281581D01*
X303594Y281581D01*
X300996Y282657D01*
X299278Y284375D01*
X299195Y284436D01*
X299117Y284503D01*
X299089Y284515D01*
X299064Y284533D01*
X298967Y284567D01*
X298873Y284607D01*
X298842Y284610D01*
X298813Y284620D01*
X298711Y284624D01*
X298608Y284634D01*
X298578Y284628D01*
X298547Y284629D01*
X298448Y284602D01*
X298348Y284582D01*
X298328Y284570D01*
X298291Y284560D01*
X298067Y284417D01*
X298042Y284388D01*
X298022Y284375D01*
X296304Y282657D01*
X293706Y281581D01*
X290894Y281581D01*
X288296Y282657D01*
X286578Y284375D01*
X286495Y284436D01*
X286417Y284503D01*
X286389Y284515D01*
X286364Y284533D01*
X286267Y284567D01*
X286173Y284607D01*
X286142Y284610D01*
X286113Y284620D01*
X286011Y284624D01*
X285908Y284634D01*
X285878Y284628D01*
X285847Y284629D01*
X285748Y284602D01*
X285648Y284582D01*
X285628Y284570D01*
X285591Y284560D01*
X285367Y284417D01*
X285342Y284388D01*
X285322Y284375D01*
X283604Y282657D01*
X282943Y282384D01*
X282890Y282352D01*
X282832Y282328D01*
X282777Y282283D01*
X282715Y282246D01*
X282674Y282200D01*
X282626Y282161D01*
X282586Y282101D01*
X282539Y282048D01*
X282513Y281991D01*
X282479Y281940D01*
X282468Y281893D01*
X282429Y281806D01*
X282402Y281593D01*
X282395Y281563D01*
X282395Y258428D01*
X282398Y258407D01*
X282396Y258386D01*
X282418Y258276D01*
X282435Y258165D01*
X282444Y258146D01*
X282448Y258125D01*
X282472Y258087D01*
X282550Y257926D01*
X282627Y257843D01*
X282655Y257800D01*
X334200Y206255D01*
X334217Y206242D01*
X334230Y206226D01*
X334323Y206164D01*
X334414Y206097D01*
X334433Y206090D01*
X334451Y206079D01*
X334495Y206069D01*
X334665Y206010D01*
X334777Y206006D01*
X334828Y205995D01*
X346121Y205995D01*
X346141Y205998D01*
X346162Y205996D01*
X346273Y206018D01*
X346384Y206035D01*
X346402Y206044D01*
X346423Y206048D01*
X346462Y206072D01*
X346623Y206150D01*
X346705Y206227D01*
X346749Y206255D01*
X348521Y208027D01*
X352519Y208027D01*
X355347Y205199D01*
X355347Y201044D01*
X355343Y201028D01*
X355316Y200950D01*
X355314Y200899D01*
X355303Y200848D01*
X355310Y200766D01*
X355307Y200685D01*
X355320Y200635D01*
X355325Y200583D01*
X355355Y200507D01*
X355377Y200428D01*
X355404Y200385D01*
X355424Y200336D01*
X355475Y200273D01*
X355519Y200204D01*
X355559Y200170D01*
X355591Y200130D01*
X355659Y200085D01*
X355722Y200032D01*
X355769Y200011D01*
X355812Y199983D01*
X355863Y199971D01*
X355966Y199927D01*
X356145Y199909D01*
X356189Y199899D01*
X396978Y199899D01*
X396999Y199902D01*
X397020Y199900D01*
X397130Y199922D01*
X397241Y199939D01*
X397260Y199948D01*
X397281Y199952D01*
X397319Y199976D01*
X397481Y200054D01*
X397563Y200131D01*
X397607Y200159D01*
X400743Y203296D01*
X400780Y203345D01*
X400824Y203389D01*
X400858Y203452D01*
X400901Y203510D01*
X400921Y203568D01*
X400951Y203623D01*
X400965Y203693D01*
X400988Y203761D01*
X400990Y203822D01*
X401002Y203883D01*
X400994Y203931D01*
X400997Y204026D01*
X400941Y204233D01*
X400936Y204264D01*
X399966Y206604D01*
X399966Y210596D01*
X401494Y214284D01*
X404316Y217106D01*
X408004Y218634D01*
X411996Y218634D01*
X415684Y217106D01*
X418506Y214284D01*
X420034Y210596D01*
X420034Y206604D01*
X418506Y202916D01*
X415684Y200094D01*
X411996Y198566D01*
X408004Y198566D01*
X405664Y199536D01*
X405603Y199551D01*
X405546Y199575D01*
X405475Y199582D01*
X405406Y199600D01*
X405344Y199596D01*
X405282Y199602D01*
X405212Y199588D01*
X405140Y199584D01*
X405082Y199563D01*
X405021Y199550D01*
X404981Y199525D01*
X404891Y199491D01*
X404722Y199360D01*
X404696Y199343D01*
X401952Y196600D01*
X401891Y196517D01*
X401825Y196439D01*
X401813Y196411D01*
X401795Y196386D01*
X401761Y196289D01*
X401721Y196195D01*
X401717Y196164D01*
X401707Y196135D01*
X401704Y196033D01*
X401693Y195930D01*
X401699Y195900D01*
X401698Y195869D01*
X401725Y195770D01*
X401745Y195670D01*
X401758Y195650D01*
X401768Y195613D01*
X401911Y195389D01*
X401940Y195364D01*
X401952Y195344D01*
X404797Y192499D01*
X404847Y192462D01*
X404891Y192418D01*
X404954Y192384D01*
X405011Y192341D01*
X405070Y192321D01*
X405124Y192291D01*
X405195Y192277D01*
X405262Y192254D01*
X405324Y192252D01*
X405385Y192240D01*
X405433Y192248D01*
X405528Y192245D01*
X405735Y192301D01*
X405765Y192306D01*
X408004Y193234D01*
X411996Y193234D01*
X415684Y191706D01*
X418506Y188884D01*
X420034Y185196D01*
X420034Y181204D01*
X418506Y177516D01*
X415684Y174694D01*
X411996Y173166D01*
X408004Y173166D01*
X404316Y174694D01*
X401494Y177516D01*
X399966Y181204D01*
X399966Y185196D01*
X400978Y187638D01*
X400993Y187698D01*
X401017Y187755D01*
X401025Y187827D01*
X401042Y187896D01*
X401038Y187958D01*
X401045Y188020D01*
X401031Y188090D01*
X401026Y188162D01*
X401005Y188220D01*
X400993Y188281D01*
X400967Y188321D01*
X400933Y188411D01*
X400802Y188580D01*
X400785Y188606D01*
X399407Y189985D01*
X399390Y189998D01*
X399376Y190014D01*
X399283Y190076D01*
X399193Y190143D01*
X399173Y190150D01*
X399155Y190161D01*
X399111Y190171D01*
X398942Y190230D01*
X398829Y190234D01*
X398778Y190245D01*
X331274Y190245D01*
X245637Y275883D01*
X245629Y275889D01*
X245625Y275893D01*
X245618Y275898D01*
X245606Y275912D01*
X245513Y275974D01*
X245423Y276041D01*
X245403Y276047D01*
X245385Y276059D01*
X245341Y276069D01*
X245172Y276128D01*
X245059Y276132D01*
X245009Y276143D01*
X244449Y276143D01*
X244429Y276140D01*
X244408Y276142D01*
X244297Y276120D01*
X244187Y276103D01*
X244168Y276094D01*
X244147Y276090D01*
X244109Y276065D01*
X243947Y275987D01*
X243865Y275910D01*
X243821Y275883D01*
X243495Y275556D01*
X92041Y124103D01*
X92041Y124102D01*
X91701Y123762D01*
X91688Y123745D01*
X91672Y123732D01*
X91610Y123639D01*
X91543Y123548D01*
X91536Y123529D01*
X91525Y123511D01*
X91515Y123467D01*
X91456Y123297D01*
X91452Y123185D01*
X91441Y123134D01*
X91441Y56754D01*
X79789Y45103D01*
X79776Y45086D01*
X79760Y45072D01*
X79698Y44979D01*
X79631Y44889D01*
X79624Y44869D01*
X79613Y44851D01*
X79603Y44807D01*
X79544Y44638D01*
X79540Y44525D01*
X79529Y44474D01*
X79529Y38584D01*
X79532Y38563D01*
X79530Y38542D01*
X79552Y38432D01*
X79569Y38321D01*
X79578Y38302D01*
X79582Y38281D01*
X79606Y38243D01*
X79684Y38081D01*
X79761Y37999D01*
X79789Y37955D01*
X85733Y32011D01*
X85750Y31998D01*
X85764Y31982D01*
X85857Y31920D01*
X85947Y31853D01*
X85967Y31846D01*
X85985Y31835D01*
X86029Y31825D01*
X86198Y31766D01*
X86311Y31762D01*
X86362Y31751D01*
X94488Y31751D01*
X94590Y31766D01*
X94692Y31774D01*
X94720Y31786D01*
X94751Y31791D01*
X94843Y31835D01*
X94939Y31873D01*
X94962Y31893D01*
X94990Y31906D01*
X95065Y31976D01*
X95145Y32041D01*
X95162Y32067D01*
X95184Y32088D01*
X95235Y32177D01*
X95292Y32262D01*
X95298Y32286D01*
X95316Y32318D01*
X95374Y32578D01*
X95371Y32616D01*
X95376Y32639D01*
X95376Y33487D01*
X97069Y35180D01*
X106131Y35180D01*
X107824Y33487D01*
X107824Y24425D01*
X106131Y22732D01*
X97069Y22732D01*
X95376Y24425D01*
X95376Y25273D01*
X95361Y25375D01*
X95353Y25477D01*
X95341Y25505D01*
X95336Y25536D01*
X95292Y25628D01*
X95254Y25724D01*
X95234Y25747D01*
X95221Y25775D01*
X95151Y25850D01*
X95086Y25930D01*
X95060Y25947D01*
X95039Y25969D01*
X94950Y26020D01*
X94865Y26077D01*
X94841Y26083D01*
X94809Y26101D01*
X94549Y26159D01*
X94511Y26156D01*
X94488Y26161D01*
X83678Y26161D01*
X73939Y35900D01*
X73939Y42317D01*
X73924Y42419D01*
X73916Y42521D01*
X73904Y42549D01*
X73899Y42580D01*
X73855Y42672D01*
X73817Y42768D01*
X73797Y42791D01*
X73784Y42819D01*
X73714Y42894D01*
X73649Y42974D01*
X73623Y42991D01*
X73602Y43013D01*
X73513Y43064D01*
X73428Y43121D01*
X73404Y43127D01*
X73372Y43145D01*
X73112Y43203D01*
X73074Y43200D01*
X73051Y43205D01*
X61417Y43205D01*
X61315Y43190D01*
X61213Y43182D01*
X61185Y43170D01*
X61154Y43165D01*
X61062Y43121D01*
X60966Y43083D01*
X60943Y43063D01*
X60915Y43050D01*
X60840Y42980D01*
X60760Y42915D01*
X60743Y42889D01*
X60721Y42868D01*
X60670Y42779D01*
X60613Y42694D01*
X60607Y42670D01*
X60589Y42638D01*
X60531Y42378D01*
X60534Y42340D01*
X60529Y42317D01*
X60529Y42263D01*
X59487Y41221D01*
X48695Y41221D01*
X48645Y41214D01*
X48593Y41215D01*
X48514Y41194D01*
X48433Y41181D01*
X48386Y41159D01*
X48336Y41145D01*
X48267Y41101D01*
X48193Y41066D01*
X48156Y41031D01*
X48112Y41003D01*
X48059Y40940D01*
X47999Y40884D01*
X47973Y40840D01*
X47940Y40800D01*
X47908Y40725D01*
X47867Y40654D01*
X47856Y40603D01*
X47836Y40556D01*
X47827Y40474D01*
X47809Y40394D01*
X47814Y40343D01*
X47808Y40291D01*
X47824Y40211D01*
X47831Y40129D01*
X47850Y40081D01*
X47860Y40031D01*
X47888Y39987D01*
X47930Y39882D01*
X48043Y39743D01*
X48067Y39705D01*
X72017Y15755D01*
X72034Y15742D01*
X72048Y15726D01*
X72141Y15664D01*
X72231Y15597D01*
X72251Y15590D01*
X72269Y15579D01*
X72313Y15569D01*
X72482Y15510D01*
X72595Y15506D01*
X72646Y15495D01*
X94488Y15495D01*
X94590Y15510D01*
X94692Y15518D01*
X94720Y15530D01*
X94751Y15535D01*
X94843Y15579D01*
X94939Y15617D01*
X94962Y15637D01*
X94990Y15650D01*
X95065Y15720D01*
X95145Y15785D01*
X95162Y15811D01*
X95184Y15832D01*
X95235Y15921D01*
X95292Y16006D01*
X95298Y16030D01*
X95316Y16062D01*
X95374Y16322D01*
X95371Y16360D01*
X95376Y16383D01*
X95376Y17231D01*
X97069Y18924D01*
X106131Y18924D01*
X107824Y17231D01*
X107824Y8169D01*
X106379Y6724D01*
X106348Y6683D01*
X106310Y6647D01*
X106270Y6576D01*
X106221Y6510D01*
X106204Y6461D01*
X106178Y6417D01*
X106160Y6336D01*
X106134Y6259D01*
X106132Y6207D01*
X106121Y6157D01*
X106127Y6075D01*
X106124Y5993D01*
X106138Y5944D01*
X106142Y5892D01*
X106173Y5816D01*
X106194Y5737D01*
X106222Y5693D01*
X106241Y5645D01*
X106293Y5582D01*
X106337Y5513D01*
X106376Y5479D01*
X106409Y5439D01*
X106477Y5394D01*
X106540Y5341D01*
X106587Y5320D01*
X106630Y5292D01*
X106680Y5280D01*
X106784Y5236D01*
X106962Y5218D01*
X107007Y5208D01*
X111433Y5208D01*
X111484Y5215D01*
X111536Y5214D01*
X111615Y5235D01*
X111696Y5248D01*
X111743Y5270D01*
X111792Y5284D01*
X111862Y5328D01*
X111935Y5363D01*
X111973Y5398D01*
X112017Y5426D01*
X112070Y5489D01*
X112130Y5545D01*
X112155Y5589D01*
X112189Y5629D01*
X112221Y5704D01*
X112262Y5775D01*
X112273Y5826D01*
X112293Y5873D01*
X112302Y5955D01*
X112319Y6035D01*
X112315Y6086D01*
X112321Y6138D01*
X112304Y6218D01*
X112298Y6300D01*
X112279Y6348D01*
X112269Y6398D01*
X112241Y6442D01*
X112199Y6547D01*
X112086Y6686D01*
X112061Y6724D01*
X110616Y8169D01*
X110616Y17231D01*
X112309Y18924D01*
X121371Y18924D01*
X121927Y18368D01*
X121968Y18337D01*
X122004Y18299D01*
X122075Y18259D01*
X122141Y18210D01*
X122190Y18193D01*
X122234Y18167D01*
X122314Y18150D01*
X122392Y18123D01*
X122444Y18121D01*
X122494Y18110D01*
X122576Y18116D01*
X122658Y18113D01*
X122707Y18127D01*
X122759Y18131D01*
X122835Y18162D01*
X122914Y18183D01*
X122958Y18211D01*
X123006Y18230D01*
X123069Y18282D01*
X123138Y18326D01*
X123172Y18365D01*
X123212Y18398D01*
X123257Y18466D01*
X123310Y18528D01*
X123331Y18576D01*
X123359Y18619D01*
X123371Y18669D01*
X123415Y18773D01*
X123433Y18951D01*
X123443Y18996D01*
X123443Y22660D01*
X123436Y22711D01*
X123437Y22763D01*
X123416Y22842D01*
X123403Y22923D01*
X123381Y22970D01*
X123367Y23019D01*
X123323Y23089D01*
X123288Y23162D01*
X123252Y23200D01*
X123225Y23244D01*
X123162Y23297D01*
X123106Y23357D01*
X123062Y23382D01*
X123022Y23416D01*
X122947Y23448D01*
X122876Y23489D01*
X122825Y23500D01*
X122778Y23520D01*
X122696Y23529D01*
X122616Y23546D01*
X122565Y23542D01*
X122513Y23548D01*
X122433Y23531D01*
X122351Y23525D01*
X122303Y23506D01*
X122253Y23496D01*
X122209Y23468D01*
X122104Y23426D01*
X121965Y23313D01*
X121927Y23288D01*
X121371Y22732D01*
X112309Y22732D01*
X110616Y24425D01*
X110616Y33487D01*
X112309Y35180D01*
X121371Y35180D01*
X123064Y33487D01*
X123064Y32639D01*
X123079Y32537D01*
X123087Y32435D01*
X123099Y32407D01*
X123104Y32376D01*
X123148Y32284D01*
X123186Y32188D01*
X123206Y32165D01*
X123219Y32137D01*
X123289Y32062D01*
X123354Y31982D01*
X123380Y31965D01*
X123401Y31943D01*
X123490Y31892D01*
X123575Y31835D01*
X123599Y31829D01*
X123631Y31811D01*
X123891Y31753D01*
X123929Y31756D01*
X123952Y31751D01*
X133477Y31751D01*
X133579Y31766D01*
X133681Y31774D01*
X133709Y31786D01*
X133740Y31791D01*
X133832Y31835D01*
X133928Y31873D01*
X133951Y31893D01*
X133979Y31906D01*
X134054Y31976D01*
X134134Y32041D01*
X134151Y32067D01*
X134173Y32088D01*
X134224Y32177D01*
X134281Y32262D01*
X134287Y32286D01*
X134305Y32318D01*
X134363Y32578D01*
X134360Y32616D01*
X134365Y32639D01*
X134365Y32868D01*
X135407Y33910D01*
X149581Y33910D01*
X150623Y32868D01*
X150623Y8788D01*
X149581Y7746D01*
X135407Y7746D01*
X134365Y8788D01*
X134365Y9017D01*
X134350Y9119D01*
X134342Y9221D01*
X134330Y9249D01*
X134325Y9280D01*
X134281Y9372D01*
X134243Y9468D01*
X134223Y9491D01*
X134210Y9519D01*
X134140Y9594D01*
X134075Y9674D01*
X134049Y9691D01*
X134028Y9713D01*
X133939Y9764D01*
X133854Y9821D01*
X133830Y9827D01*
X133798Y9845D01*
X133538Y9903D01*
X133500Y9900D01*
X133477Y9905D01*
X123952Y9905D01*
X123850Y9890D01*
X123748Y9882D01*
X123720Y9870D01*
X123689Y9865D01*
X123597Y9821D01*
X123501Y9783D01*
X123478Y9763D01*
X123450Y9750D01*
X123375Y9680D01*
X123295Y9615D01*
X123278Y9589D01*
X123256Y9568D01*
X123205Y9479D01*
X123148Y9394D01*
X123142Y9370D01*
X123124Y9338D01*
X123066Y9078D01*
X123069Y9040D01*
X123064Y9017D01*
X123064Y8169D01*
X121619Y6724D01*
X121588Y6683D01*
X121550Y6647D01*
X121510Y6576D01*
X121461Y6510D01*
X121444Y6461D01*
X121418Y6417D01*
X121400Y6336D01*
X121374Y6259D01*
X121372Y6207D01*
X121361Y6157D01*
X121367Y6075D01*
X121364Y5993D01*
X121378Y5944D01*
X121382Y5892D01*
X121413Y5816D01*
X121434Y5737D01*
X121462Y5693D01*
X121481Y5645D01*
X121533Y5582D01*
X121577Y5513D01*
X121616Y5479D01*
X121649Y5439D01*
X121717Y5394D01*
X121780Y5341D01*
X121827Y5320D01*
X121870Y5292D01*
X121920Y5280D01*
X122024Y5236D01*
X122202Y5218D01*
X122247Y5208D01*
X336784Y5208D01*
X336815Y5212D01*
X336846Y5210D01*
X336946Y5232D01*
X337047Y5248D01*
X337075Y5261D01*
X337105Y5268D01*
X337194Y5319D01*
X337286Y5363D01*
X337309Y5385D01*
X337336Y5400D01*
X337406Y5475D01*
X337481Y5545D01*
X337496Y5572D01*
X337517Y5594D01*
X337562Y5687D01*
X337613Y5775D01*
X337619Y5806D01*
X337633Y5834D01*
X337648Y5935D01*
X337670Y6035D01*
X337668Y6066D01*
X337672Y6097D01*
X337657Y6198D01*
X337649Y6300D01*
X337637Y6329D01*
X337632Y6359D01*
X337607Y6404D01*
X337550Y6547D01*
X337467Y6649D01*
X337441Y6694D01*
X333109Y11446D01*
X329691Y20269D01*
X329691Y29731D01*
X333109Y38554D01*
X339484Y45547D01*
X347954Y49764D01*
X357376Y50638D01*
X366477Y48048D01*
X374028Y42346D01*
X379009Y34301D01*
X380747Y25000D01*
X379009Y15699D01*
X374028Y7654D01*
X372903Y6805D01*
X372824Y6724D01*
X372742Y6647D01*
X372731Y6629D01*
X372717Y6615D01*
X372666Y6514D01*
X372610Y6417D01*
X372605Y6396D01*
X372596Y6378D01*
X372576Y6267D01*
X372552Y6157D01*
X372554Y6137D01*
X372550Y6116D01*
X372564Y6004D01*
X372574Y5892D01*
X372581Y5873D01*
X372584Y5853D01*
X372631Y5750D01*
X372673Y5645D01*
X372686Y5629D01*
X372694Y5611D01*
X372769Y5527D01*
X372840Y5439D01*
X372857Y5428D01*
X372871Y5412D01*
X372967Y5354D01*
X373061Y5292D01*
X373077Y5288D01*
X373099Y5275D01*
X373357Y5211D01*
X373408Y5214D01*
X373438Y5208D01*
X430900Y5208D01*
X430954Y5216D01*
X430987Y5212D01*
X432275Y5339D01*
X432518Y5401D01*
X432528Y5402D01*
X434909Y6388D01*
X435136Y6526D01*
X435171Y6564D01*
X435197Y6581D01*
X437019Y8403D01*
X437177Y8617D01*
X437194Y8666D01*
X437212Y8691D01*
X438198Y11072D01*
X438205Y11102D01*
X438207Y11105D01*
X438215Y11142D01*
X438258Y11315D01*
X438261Y11325D01*
X438388Y12613D01*
X438385Y12668D01*
X438392Y12700D01*
X438392Y41498D01*
X438387Y41532D01*
X438390Y41567D01*
X438367Y41663D01*
X438352Y41761D01*
X438337Y41792D01*
X438330Y41826D01*
X438280Y41911D01*
X438237Y42000D01*
X438213Y42025D01*
X438196Y42055D01*
X438123Y42122D01*
X438055Y42195D01*
X438025Y42212D01*
X438000Y42235D01*
X437910Y42277D01*
X437825Y42326D01*
X437791Y42334D01*
X437760Y42349D01*
X437662Y42363D01*
X437565Y42384D01*
X437531Y42381D01*
X437497Y42386D01*
X437399Y42371D01*
X437300Y42363D01*
X437268Y42350D01*
X437234Y42344D01*
X437145Y42301D01*
X437053Y42264D01*
X437027Y42242D01*
X436996Y42227D01*
X436960Y42188D01*
X436847Y42096D01*
X436771Y41981D01*
X436735Y41942D01*
X433555Y36435D01*
X425375Y29571D01*
X415339Y25918D01*
X404661Y25918D01*
X394625Y29571D01*
X386445Y36435D01*
X381105Y45683D01*
X379251Y56200D01*
X381105Y66717D01*
X386445Y75965D01*
X394625Y82829D01*
X404661Y86482D01*
X415339Y86482D01*
X425375Y82829D01*
X433555Y75965D01*
X436735Y70458D01*
X436756Y70431D01*
X436771Y70400D01*
X436839Y70327D01*
X436901Y70250D01*
X436929Y70231D01*
X436953Y70205D01*
X437039Y70156D01*
X437121Y70101D01*
X437154Y70091D01*
X437183Y70074D01*
X437280Y70052D01*
X437375Y70023D01*
X437409Y70023D01*
X437443Y70016D01*
X437542Y70024D01*
X437641Y70024D01*
X437674Y70035D01*
X437708Y70037D01*
X437800Y70074D01*
X437894Y70104D01*
X437922Y70123D01*
X437955Y70136D01*
X438031Y70199D01*
X438113Y70255D01*
X438134Y70282D01*
X438161Y70304D01*
X438216Y70387D01*
X438277Y70464D01*
X438289Y70496D01*
X438308Y70525D01*
X438320Y70576D01*
X438372Y70712D01*
X438379Y70829D01*
X438390Y70877D01*
X438389Y70888D01*
X438392Y70902D01*
X438392Y295498D01*
X438387Y295532D01*
X438390Y295567D01*
X438367Y295663D01*
X438352Y295761D01*
X438337Y295792D01*
X438330Y295826D01*
X438280Y295911D01*
X438237Y296000D01*
X438213Y296025D01*
X438196Y296055D01*
X438123Y296122D01*
X438055Y296195D01*
X438025Y296212D01*
X438000Y296235D01*
X437910Y296277D01*
X437825Y296326D01*
X437791Y296334D01*
X437760Y296349D01*
X437662Y296363D01*
X437565Y296384D01*
X437531Y296381D01*
X437497Y296386D01*
X437399Y296371D01*
X437300Y296363D01*
X437268Y296350D01*
X437234Y296344D01*
X437145Y296301D01*
X437053Y296264D01*
X437027Y296242D01*
X436996Y296227D01*
X436960Y296188D01*
X436847Y296096D01*
X436771Y295981D01*
X436735Y295942D01*
X433555Y290435D01*
X425374Y283571D01*
X415339Y279918D01*
X404661Y279918D01*
X394625Y283571D01*
X386445Y290435D01*
X381105Y299683D01*
X379251Y310200D01*
X381105Y320717D01*
X386445Y329965D01*
X394625Y336829D01*
X404661Y340482D01*
X415339Y340482D01*
X425375Y336829D01*
X433555Y329965D01*
X436735Y324458D01*
X436756Y324431D01*
X436771Y324400D01*
X436839Y324327D01*
X436901Y324250D01*
X436929Y324231D01*
X436953Y324205D01*
X437039Y324156D01*
X437121Y324101D01*
X437154Y324091D01*
X437183Y324074D01*
X437280Y324052D01*
X437375Y324023D01*
X437409Y324023D01*
X437443Y324016D01*
X437542Y324024D01*
X437641Y324024D01*
X437674Y324035D01*
X437708Y324037D01*
X437800Y324074D01*
X437894Y324104D01*
X437922Y324123D01*
X437955Y324136D01*
X438031Y324199D01*
X438113Y324255D01*
X438134Y324282D01*
X438161Y324304D01*
X438216Y324387D01*
X438277Y324464D01*
X438289Y324496D01*
X438308Y324525D01*
X438320Y324576D01*
X438372Y324712D01*
X438381Y324850D01*
X438392Y324902D01*
X438392Y337300D01*
X438384Y337354D01*
X438388Y337387D01*
X438261Y338675D01*
X438199Y338918D01*
X438198Y338928D01*
X437212Y341309D01*
X437180Y341362D01*
X437158Y341417D01*
X437114Y341470D01*
X437074Y341536D01*
X437036Y341571D01*
X437019Y341597D01*
X435197Y343419D01*
X434983Y343577D01*
X434934Y343594D01*
X434909Y343612D01*
X432528Y344598D01*
X432285Y344658D01*
X432275Y344661D01*
X430987Y344788D01*
X430932Y344785D01*
X430900Y344792D01*
X43438Y344792D01*
X43327Y344775D01*
X43215Y344764D01*
X43196Y344756D01*
X43175Y344752D01*
X43074Y344703D01*
X42970Y344659D01*
X42955Y344646D01*
X42936Y344637D01*
X42853Y344560D01*
X42768Y344487D01*
X42757Y344469D01*
X42742Y344455D01*
X42686Y344357D01*
X42625Y344262D01*
X42620Y344242D01*
X42610Y344225D01*
X42585Y344115D01*
X42556Y344006D01*
X42556Y343985D01*
X42552Y343965D01*
X42561Y343853D01*
X42565Y343740D01*
X42572Y343721D01*
X42574Y343700D01*
X42616Y343596D01*
X42653Y343489D01*
X42663Y343477D01*
X42673Y343453D01*
X42840Y343247D01*
X42883Y343219D01*
X42903Y343195D01*
X44028Y342346D01*
X49009Y334301D01*
X50747Y325000D01*
X49009Y315699D01*
X44028Y307654D01*
X36477Y301952D01*
X27376Y299362D01*
X17954Y300236D01*
X9484Y304453D01*
X6752Y307449D01*
X6697Y307495D01*
X6647Y307547D01*
X6594Y307578D01*
X6546Y307617D01*
X6479Y307644D01*
X6417Y307679D01*
X6356Y307693D01*
X6299Y307716D01*
X6227Y307721D01*
X6157Y307737D01*
X6096Y307732D01*
X6034Y307737D01*
X5964Y307721D01*
X5892Y307715D01*
X5835Y307693D01*
X5775Y307679D01*
X5712Y307643D01*
X5645Y307616D01*
X5598Y307578D01*
X5544Y307547D01*
X5495Y307494D01*
X5439Y307449D01*
X5405Y307398D01*
X5363Y307353D01*
X5332Y307288D01*
X5292Y307228D01*
X5282Y307185D01*
X5247Y307113D01*
X5208Y306852D01*
X5208Y306851D01*
X5208Y177429D01*
X5223Y177327D01*
X5231Y177225D01*
X5243Y177197D01*
X5248Y177166D01*
X5292Y177074D01*
X5330Y176978D01*
X5350Y176955D01*
X5363Y176927D01*
X5433Y176852D01*
X5498Y176772D01*
X5524Y176755D01*
X5545Y176733D01*
X5634Y176682D01*
X5719Y176625D01*
X5743Y176619D01*
X5775Y176601D01*
X6035Y176543D01*
X6073Y176546D01*
X6096Y176541D01*
X13473Y176541D01*
X13473Y168889D01*
X13488Y168788D01*
X13497Y168685D01*
X13508Y168657D01*
X13513Y168626D01*
X13557Y168534D01*
X13596Y168439D01*
X13615Y168415D01*
X13628Y168387D01*
X13698Y168312D01*
X13763Y168232D01*
X13789Y168215D01*
X13810Y168193D01*
X13899Y168142D01*
X13984Y168085D01*
X14008Y168080D01*
X14040Y168061D01*
X14300Y168003D01*
X14338Y168006D01*
X14361Y168001D01*
X15251Y168001D01*
X15251Y167999D01*
X14361Y167999D01*
X14260Y167984D01*
X14157Y167975D01*
X14129Y167964D01*
X14098Y167959D01*
X14006Y167915D01*
X13911Y167876D01*
X13887Y167857D01*
X13859Y167844D01*
X13784Y167774D01*
X13704Y167709D01*
X13687Y167683D01*
X13665Y167662D01*
X13614Y167573D01*
X13557Y167488D01*
X13551Y167464D01*
X13533Y167431D01*
X13475Y167172D01*
X13478Y167134D01*
X13473Y167111D01*
X13473Y159459D01*
X6096Y159459D01*
X5994Y159444D01*
X5892Y159436D01*
X5864Y159424D01*
X5833Y159419D01*
X5741Y159375D01*
X5645Y159337D01*
X5622Y159317D01*
X5594Y159304D01*
X5519Y159234D01*
X5439Y159169D01*
X5422Y159143D01*
X5400Y159122D01*
X5349Y159033D01*
X5292Y158948D01*
X5286Y158924D01*
X5268Y158892D01*
X5210Y158632D01*
X5213Y158594D01*
X5208Y158571D01*
X5208Y121429D01*
X5223Y121327D01*
X5231Y121225D01*
X5243Y121197D01*
X5248Y121166D01*
X5292Y121074D01*
X5330Y120978D01*
X5350Y120955D01*
X5363Y120927D01*
X5433Y120852D01*
X5498Y120772D01*
X5524Y120755D01*
X5545Y120733D01*
X5634Y120682D01*
X5719Y120625D01*
X5743Y120619D01*
X5775Y120601D01*
X6035Y120543D01*
X6073Y120546D01*
X6096Y120541D01*
X13473Y120541D01*
X13473Y112889D01*
X13488Y112788D01*
X13497Y112685D01*
X13508Y112657D01*
X13513Y112626D01*
X13557Y112534D01*
X13596Y112439D01*
X13615Y112415D01*
X13628Y112387D01*
X13698Y112312D01*
X13763Y112232D01*
X13789Y112215D01*
X13810Y112193D01*
X13899Y112142D01*
X13984Y112085D01*
X14008Y112080D01*
X14040Y112061D01*
X14300Y112003D01*
X14338Y112006D01*
X14361Y112001D01*
X15251Y112001D01*
X15251Y111999D01*
X14361Y111999D01*
X14260Y111984D01*
X14157Y111975D01*
X14129Y111964D01*
X14098Y111959D01*
X14006Y111915D01*
X13911Y111876D01*
X13887Y111857D01*
X13859Y111844D01*
X13784Y111774D01*
X13704Y111709D01*
X13687Y111683D01*
X13665Y111662D01*
X13614Y111573D01*
X13557Y111488D01*
X13551Y111464D01*
X13533Y111431D01*
X13475Y111172D01*
X13478Y111134D01*
X13473Y111111D01*
X13473Y103459D01*
X6096Y103459D01*
X5994Y103444D01*
X5892Y103436D01*
X5864Y103424D01*
X5833Y103419D01*
X5741Y103375D01*
X5645Y103337D01*
X5622Y103317D01*
X5594Y103304D01*
X5519Y103234D01*
X5439Y103169D01*
X5422Y103143D01*
X5400Y103122D01*
X5349Y103033D01*
X5292Y102948D01*
X5286Y102924D01*
X5268Y102892D01*
X5210Y102632D01*
X5213Y102594D01*
X5208Y102571D01*
X5208Y98429D01*
X5223Y98327D01*
X5231Y98225D01*
X5243Y98197D01*
X5248Y98166D01*
X5292Y98074D01*
X5330Y97978D01*
X5350Y97955D01*
X5363Y97927D01*
X5433Y97852D01*
X5498Y97772D01*
X5524Y97755D01*
X5545Y97733D01*
X5634Y97682D01*
X5719Y97625D01*
X5743Y97619D01*
X5775Y97601D01*
X6035Y97543D01*
X6073Y97546D01*
X6096Y97541D01*
X13473Y97541D01*
X13473Y89889D01*
X13488Y89788D01*
X13497Y89685D01*
X13508Y89657D01*
X13513Y89626D01*
X13557Y89534D01*
X13596Y89439D01*
X13615Y89415D01*
X13628Y89387D01*
X13698Y89312D01*
X13763Y89232D01*
X13789Y89215D01*
X13810Y89193D01*
X13899Y89142D01*
X13984Y89085D01*
X14008Y89080D01*
X14040Y89061D01*
X14300Y89003D01*
X14338Y89006D01*
X14361Y89001D01*
X15251Y89001D01*
X15251Y88999D01*
X14361Y88999D01*
X14260Y88984D01*
X14157Y88975D01*
X14129Y88964D01*
X14098Y88959D01*
X14006Y88915D01*
X13911Y88876D01*
X13887Y88857D01*
X13859Y88844D01*
X13784Y88774D01*
X13704Y88709D01*
X13687Y88683D01*
X13665Y88662D01*
X13614Y88573D01*
X13557Y88488D01*
X13551Y88464D01*
X13533Y88431D01*
X13475Y88172D01*
X13478Y88134D01*
X13473Y88111D01*
X13473Y80459D01*
X6096Y80459D01*
X5994Y80444D01*
X5892Y80436D01*
X5864Y80424D01*
X5833Y80419D01*
X5741Y80375D01*
X5645Y80337D01*
X5622Y80317D01*
X5594Y80304D01*
X5519Y80234D01*
X5439Y80169D01*
X5422Y80143D01*
X5400Y80122D01*
X5349Y80033D01*
X5292Y79948D01*
X5286Y79924D01*
X5268Y79892D01*
X5210Y79632D01*
X5213Y79594D01*
X5208Y79571D01*
X5208Y42429D01*
X5223Y42327D01*
X5231Y42225D01*
X5243Y42197D01*
X5248Y42166D01*
X5292Y42074D01*
X5330Y41978D01*
X5350Y41955D01*
X5363Y41927D01*
X5433Y41852D01*
X5498Y41772D01*
X5524Y41755D01*
X5545Y41733D01*
X5634Y41682D01*
X5719Y41625D01*
X5743Y41619D01*
X5775Y41601D01*
X6035Y41543D01*
X6073Y41546D01*
X6096Y41541D01*
X13473Y41541D01*
X13473Y33889D01*
X13488Y33787D01*
X13497Y33685D01*
X13508Y33657D01*
X13513Y33626D01*
X13557Y33534D01*
X13596Y33439D01*
X13615Y33415D01*
X13628Y33387D01*
X13698Y33312D01*
X13763Y33232D01*
X13789Y33215D01*
X13810Y33193D01*
X13899Y33142D01*
X13984Y33085D01*
X14008Y33080D01*
X14040Y33061D01*
X14300Y33003D01*
X14338Y33006D01*
X14361Y33001D01*
X15251Y33001D01*
X15251Y32999D01*
X14361Y32999D01*
X14260Y32984D01*
X14157Y32975D01*
X14129Y32964D01*
X14098Y32959D01*
X14006Y32915D01*
X13911Y32876D01*
X13887Y32857D01*
X13859Y32844D01*
X13784Y32774D01*
X13704Y32709D01*
X13687Y32683D01*
X13665Y32662D01*
X13614Y32573D01*
X13557Y32488D01*
X13551Y32464D01*
X13533Y32431D01*
X13475Y32172D01*
X13478Y32134D01*
X13473Y32111D01*
X13473Y24459D01*
X6096Y24459D01*
X5994Y24444D01*
X5892Y24436D01*
X5864Y24424D01*
X5833Y24419D01*
X5741Y24375D01*
X5645Y24337D01*
X5622Y24317D01*
X5594Y24304D01*
X5519Y24234D01*
X5439Y24169D01*
X5422Y24143D01*
X5400Y24122D01*
X5349Y24033D01*
X5292Y23948D01*
X5286Y23924D01*
X5268Y23892D01*
X5210Y23632D01*
X5213Y23594D01*
X5208Y23571D01*
X5208Y12700D01*
X5216Y12646D01*
X5212Y12613D01*
X5339Y11325D01*
X5353Y11268D01*
X5357Y11222D01*
X5379Y11167D01*
X5401Y11082D01*
X5402Y11072D01*
X6388Y8691D01*
X6526Y8464D01*
X6564Y8429D01*
X6581Y8403D01*
X8403Y6581D01*
X8617Y6423D01*
X8666Y6406D01*
X8691Y6388D01*
X11072Y5402D01*
X11315Y5342D01*
X11325Y5339D01*
X12613Y5212D01*
X12668Y5215D01*
X12700Y5208D01*
X96193Y5208D01*
X96244Y5215D01*
G37*
%LPC*%
G36*
X163067Y249173D02*
X163067Y249173D01*
X163067Y255905D01*
X163052Y256006D01*
X163043Y256109D01*
X163032Y256137D01*
X163027Y256168D01*
X162983Y256260D01*
X162944Y256355D01*
X162925Y256379D01*
X162912Y256407D01*
X162842Y256482D01*
X162777Y256562D01*
X162751Y256579D01*
X162730Y256601D01*
X162641Y256652D01*
X162556Y256709D01*
X162532Y256714D01*
X162499Y256733D01*
X162240Y256791D01*
X162202Y256788D01*
X162179Y256793D01*
X161289Y256793D01*
X161289Y257683D01*
X161274Y257784D01*
X161265Y257887D01*
X161254Y257915D01*
X161249Y257946D01*
X161205Y258038D01*
X161166Y258133D01*
X161147Y258157D01*
X161134Y258185D01*
X161064Y258260D01*
X160999Y258340D01*
X160973Y258357D01*
X160952Y258379D01*
X160863Y258430D01*
X160778Y258487D01*
X160754Y258492D01*
X160721Y258511D01*
X160462Y258569D01*
X160424Y258566D01*
X160401Y258571D01*
X142367Y258571D01*
X142266Y258556D01*
X142163Y258547D01*
X142135Y258536D01*
X142104Y258531D01*
X142012Y258487D01*
X141917Y258448D01*
X141893Y258429D01*
X141865Y258416D01*
X141790Y258346D01*
X141710Y258281D01*
X141693Y258255D01*
X141671Y258234D01*
X141620Y258145D01*
X141563Y258060D01*
X141558Y258036D01*
X141539Y258003D01*
X141481Y257744D01*
X141484Y257706D01*
X141479Y257683D01*
X141479Y256793D01*
X141477Y256793D01*
X141477Y257683D01*
X141462Y257784D01*
X141453Y257887D01*
X141442Y257915D01*
X141437Y257946D01*
X141393Y258038D01*
X141354Y258133D01*
X141335Y258157D01*
X141322Y258185D01*
X141252Y258260D01*
X141187Y258340D01*
X141161Y258357D01*
X141140Y258379D01*
X141051Y258430D01*
X140966Y258487D01*
X140942Y258492D01*
X140909Y258511D01*
X140650Y258569D01*
X140612Y258566D01*
X140589Y258571D01*
X131952Y258571D01*
X131952Y261106D01*
X132212Y262075D01*
X132265Y262167D01*
X132271Y262183D01*
X132282Y262197D01*
X132320Y262306D01*
X132362Y262414D01*
X132363Y262431D01*
X132369Y262448D01*
X132373Y262564D01*
X132381Y262679D01*
X132377Y262696D01*
X132378Y262713D01*
X132348Y262825D01*
X132321Y262938D01*
X132313Y262953D01*
X132308Y262970D01*
X132246Y263068D01*
X132188Y263168D01*
X132175Y263180D01*
X132166Y263194D01*
X132077Y263270D01*
X131992Y263348D01*
X131976Y263355D01*
X131963Y263366D01*
X131856Y263412D01*
X131752Y263461D01*
X131734Y263464D01*
X131718Y263471D01*
X131603Y263483D01*
X131488Y263499D01*
X131471Y263496D01*
X131454Y263498D01*
X131340Y263475D01*
X131226Y263457D01*
X131210Y263449D01*
X131193Y263446D01*
X131158Y263424D01*
X130988Y263339D01*
X130934Y263281D01*
X130868Y263239D01*
X128658Y261029D01*
X126835Y259206D01*
X99733Y259206D01*
X96392Y262547D01*
X96392Y282537D01*
X99434Y285579D01*
X99993Y286138D01*
X100024Y286179D01*
X100062Y286215D01*
X100102Y286286D01*
X100151Y286352D01*
X100168Y286401D01*
X100193Y286445D01*
X100211Y286525D01*
X100238Y286603D01*
X100240Y286655D01*
X100251Y286705D01*
X100245Y286787D01*
X100247Y286869D01*
X100234Y286918D01*
X100230Y286970D01*
X100199Y287046D01*
X100178Y287125D01*
X100150Y287169D01*
X100131Y287217D01*
X100079Y287280D01*
X100035Y287349D01*
X99996Y287383D01*
X99963Y287423D01*
X99895Y287468D01*
X99832Y287521D01*
X99785Y287542D01*
X99742Y287570D01*
X99692Y287582D01*
X99588Y287626D01*
X99410Y287644D01*
X99365Y287654D01*
X97621Y287654D01*
X97600Y287651D01*
X97579Y287653D01*
X97469Y287631D01*
X97358Y287614D01*
X97339Y287605D01*
X97319Y287601D01*
X97280Y287577D01*
X97119Y287499D01*
X97036Y287422D01*
X96993Y287394D01*
X89669Y280070D01*
X89656Y280053D01*
X89640Y280040D01*
X89578Y279946D01*
X89511Y279856D01*
X89504Y279836D01*
X89493Y279819D01*
X89483Y279774D01*
X89424Y279605D01*
X89420Y279492D01*
X89409Y279442D01*
X89409Y274345D01*
X89153Y274090D01*
X89111Y274032D01*
X89088Y274011D01*
X89072Y273983D01*
X89026Y273929D01*
X89014Y273901D01*
X88996Y273876D01*
X88972Y273809D01*
X88956Y273780D01*
X88949Y273747D01*
X88922Y273685D01*
X88918Y273654D01*
X88908Y273625D01*
X88906Y273556D01*
X88898Y273520D01*
X88901Y273484D01*
X88894Y273420D01*
X88900Y273390D01*
X88899Y273359D01*
X88916Y273297D01*
X88920Y273255D01*
X88935Y273218D01*
X88946Y273159D01*
X88959Y273139D01*
X88969Y273103D01*
X89001Y273053D01*
X89019Y273009D01*
X89066Y272950D01*
X89112Y272878D01*
X89141Y272854D01*
X89153Y272834D01*
X89663Y272324D01*
X89998Y271745D01*
X90171Y271099D01*
X90171Y269493D01*
X82931Y269493D01*
X82830Y269478D01*
X82727Y269470D01*
X82699Y269458D01*
X82668Y269453D01*
X82576Y269409D01*
X82558Y269401D01*
X82546Y269409D01*
X82522Y269415D01*
X82489Y269433D01*
X82230Y269491D01*
X82192Y269488D01*
X82169Y269493D01*
X74929Y269493D01*
X74929Y271099D01*
X75102Y271745D01*
X75437Y272324D01*
X75947Y272834D01*
X75977Y272875D01*
X76012Y272908D01*
X76037Y272951D01*
X76074Y272995D01*
X76086Y273023D01*
X76104Y273048D01*
X76123Y273101D01*
X76144Y273139D01*
X76154Y273182D01*
X76178Y273239D01*
X76182Y273270D01*
X76192Y273299D01*
X76194Y273361D01*
X76202Y273398D01*
X76199Y273437D01*
X76206Y273503D01*
X76200Y273534D01*
X76201Y273564D01*
X76183Y273629D01*
X76180Y273663D01*
X76167Y273696D01*
X76154Y273764D01*
X76141Y273784D01*
X76131Y273821D01*
X76094Y273880D01*
X76081Y273910D01*
X76049Y273950D01*
X75988Y274045D01*
X75959Y274070D01*
X75947Y274090D01*
X75691Y274345D01*
X75691Y280899D01*
X76733Y281941D01*
X81830Y281941D01*
X81851Y281944D01*
X81872Y281942D01*
X81982Y281964D01*
X82093Y281981D01*
X82112Y281990D01*
X82132Y281994D01*
X82171Y282018D01*
X82332Y282096D01*
X82415Y282173D01*
X82458Y282201D01*
X92576Y292319D01*
X92589Y292336D01*
X92605Y292349D01*
X92667Y292443D01*
X92734Y292533D01*
X92741Y292553D01*
X92752Y292570D01*
X92762Y292615D01*
X92821Y292784D01*
X92825Y292897D01*
X92836Y292947D01*
X92836Y298409D01*
X94529Y300102D01*
X94869Y300102D01*
X94971Y300117D01*
X95073Y300125D01*
X95101Y300137D01*
X95132Y300142D01*
X95224Y300186D01*
X95320Y300224D01*
X95343Y300244D01*
X95371Y300257D01*
X95446Y300327D01*
X95526Y300392D01*
X95543Y300418D01*
X95565Y300439D01*
X95616Y300528D01*
X95673Y300613D01*
X95679Y300637D01*
X95697Y300669D01*
X95755Y300929D01*
X95755Y300933D01*
X95755Y300934D01*
X95752Y300968D01*
X95757Y300990D01*
X95757Y301498D01*
X95742Y301600D01*
X95734Y301702D01*
X95722Y301730D01*
X95717Y301761D01*
X95673Y301853D01*
X95635Y301949D01*
X95615Y301972D01*
X95602Y302000D01*
X95532Y302075D01*
X95467Y302155D01*
X95441Y302172D01*
X95420Y302194D01*
X95331Y302245D01*
X95246Y302302D01*
X95222Y302308D01*
X95190Y302326D01*
X94930Y302384D01*
X94892Y302381D01*
X94869Y302386D01*
X94529Y302386D01*
X92836Y304079D01*
X92836Y313141D01*
X94529Y314834D01*
X103591Y314834D01*
X105284Y313141D01*
X105284Y304079D01*
X103591Y302386D01*
X103251Y302386D01*
X103149Y302371D01*
X103047Y302363D01*
X103019Y302351D01*
X102988Y302346D01*
X102896Y302302D01*
X102800Y302264D01*
X102777Y302244D01*
X102749Y302231D01*
X102674Y302161D01*
X102594Y302096D01*
X102577Y302070D01*
X102555Y302049D01*
X102504Y301960D01*
X102447Y301875D01*
X102441Y301851D01*
X102423Y301819D01*
X102365Y301559D01*
X102368Y301521D01*
X102363Y301498D01*
X102363Y300990D01*
X102378Y300888D01*
X102386Y300786D01*
X102398Y300758D01*
X102403Y300727D01*
X102447Y300635D01*
X102485Y300539D01*
X102505Y300516D01*
X102518Y300488D01*
X102588Y300413D01*
X102653Y300333D01*
X102679Y300316D01*
X102700Y300294D01*
X102789Y300243D01*
X102874Y300186D01*
X102898Y300180D01*
X102930Y300162D01*
X103190Y300104D01*
X103228Y300107D01*
X103251Y300102D01*
X103591Y300102D01*
X104082Y299611D01*
X104164Y299550D01*
X104243Y299483D01*
X104271Y299471D01*
X104296Y299453D01*
X104393Y299419D01*
X104487Y299379D01*
X104518Y299376D01*
X104547Y299366D01*
X104649Y299362D01*
X104752Y299352D01*
X104782Y299358D01*
X104812Y299357D01*
X104911Y299383D01*
X105012Y299404D01*
X105032Y299416D01*
X105069Y299426D01*
X105293Y299569D01*
X105318Y299598D01*
X105338Y299611D01*
X106546Y300819D01*
X107825Y302097D01*
X107896Y302194D01*
X107969Y302288D01*
X107974Y302300D01*
X107982Y302311D01*
X108022Y302424D01*
X108064Y302536D01*
X108065Y302549D01*
X108070Y302562D01*
X108074Y302682D01*
X108081Y302801D01*
X108078Y302812D01*
X108079Y302828D01*
X108009Y303084D01*
X107976Y303136D01*
X107966Y303169D01*
X107563Y303867D01*
X107314Y304795D01*
X107314Y306833D01*
X113411Y306833D01*
X113512Y306848D01*
X113615Y306857D01*
X113643Y306868D01*
X113674Y306873D01*
X113766Y306917D01*
X113861Y306956D01*
X113885Y306975D01*
X113913Y306988D01*
X113988Y307058D01*
X114068Y307123D01*
X114085Y307149D01*
X114107Y307170D01*
X114158Y307259D01*
X114215Y307344D01*
X114220Y307368D01*
X114239Y307400D01*
X114297Y307660D01*
X114294Y307698D01*
X114299Y307721D01*
X114299Y308611D01*
X114301Y308611D01*
X114301Y307721D01*
X114316Y307620D01*
X114325Y307517D01*
X114336Y307489D01*
X114341Y307458D01*
X114385Y307366D01*
X114424Y307271D01*
X114443Y307247D01*
X114456Y307219D01*
X114526Y307144D01*
X114591Y307064D01*
X114617Y307047D01*
X114638Y307025D01*
X114727Y306974D01*
X114812Y306917D01*
X114836Y306911D01*
X114869Y306893D01*
X115128Y306835D01*
X115166Y306838D01*
X115189Y306833D01*
X121286Y306833D01*
X121286Y304795D01*
X121008Y303760D01*
X120999Y303675D01*
X120980Y303591D01*
X120984Y303543D01*
X120979Y303496D01*
X120995Y303411D01*
X121002Y303326D01*
X121020Y303282D01*
X121029Y303235D01*
X121069Y303159D01*
X121101Y303079D01*
X121131Y303042D01*
X121153Y303000D01*
X121214Y302940D01*
X121268Y302873D01*
X121308Y302846D01*
X121342Y302813D01*
X121418Y302773D01*
X121489Y302726D01*
X121524Y302718D01*
X121578Y302690D01*
X121736Y302661D01*
X124842Y299555D01*
X124842Y291033D01*
X124845Y291012D01*
X124843Y290991D01*
X124865Y290881D01*
X124882Y290770D01*
X124891Y290751D01*
X124895Y290731D01*
X124919Y290692D01*
X124997Y290531D01*
X125074Y290448D01*
X125102Y290405D01*
X128099Y287408D01*
X128116Y287395D01*
X128129Y287379D01*
X128223Y287317D01*
X128313Y287250D01*
X128333Y287243D01*
X128350Y287232D01*
X128395Y287222D01*
X128564Y287163D01*
X128677Y287159D01*
X128727Y287148D01*
X160325Y287148D01*
X160346Y287151D01*
X160367Y287149D01*
X160477Y287171D01*
X160588Y287188D01*
X160607Y287197D01*
X160627Y287201D01*
X160666Y287225D01*
X160827Y287303D01*
X160910Y287380D01*
X160953Y287408D01*
X161283Y287738D01*
X161296Y287755D01*
X161312Y287768D01*
X161374Y287862D01*
X161441Y287952D01*
X161448Y287972D01*
X161459Y287989D01*
X161469Y288034D01*
X161528Y288203D01*
X161532Y288316D01*
X161543Y288366D01*
X161543Y299593D01*
X161528Y299695D01*
X161520Y299797D01*
X161508Y299825D01*
X161503Y299856D01*
X161459Y299948D01*
X161421Y300044D01*
X161401Y300067D01*
X161388Y300095D01*
X161318Y300170D01*
X161253Y300250D01*
X161227Y300267D01*
X161206Y300289D01*
X161117Y300340D01*
X161032Y300397D01*
X161008Y300403D01*
X160976Y300421D01*
X160716Y300479D01*
X160678Y300476D01*
X160655Y300481D01*
X160222Y300481D01*
X158622Y302081D01*
X158622Y310059D01*
X160222Y311659D01*
X169470Y311659D01*
X171070Y310059D01*
X171070Y302081D01*
X169470Y300481D01*
X169037Y300481D01*
X168935Y300466D01*
X168833Y300458D01*
X168805Y300446D01*
X168774Y300441D01*
X168682Y300397D01*
X168586Y300359D01*
X168563Y300339D01*
X168535Y300326D01*
X168460Y300256D01*
X168380Y300191D01*
X168363Y300165D01*
X168341Y300144D01*
X168290Y300055D01*
X168233Y299970D01*
X168227Y299946D01*
X168209Y299914D01*
X168151Y299654D01*
X168154Y299616D01*
X168149Y299593D01*
X168149Y288112D01*
X168152Y288091D01*
X168150Y288070D01*
X168172Y287960D01*
X168189Y287849D01*
X168198Y287830D01*
X168202Y287810D01*
X168226Y287771D01*
X168304Y287610D01*
X168381Y287527D01*
X168409Y287484D01*
X168739Y287154D01*
X168756Y287141D01*
X168769Y287125D01*
X168863Y287063D01*
X168953Y286996D01*
X168973Y286989D01*
X168990Y286978D01*
X169035Y286968D01*
X169204Y286909D01*
X169317Y286905D01*
X169367Y286894D01*
X192621Y286894D01*
X199010Y280505D01*
X199010Y270167D01*
X196730Y267887D01*
X192875Y264032D01*
X186436Y264032D01*
X186334Y264017D01*
X186232Y264009D01*
X186204Y263997D01*
X186173Y263992D01*
X186081Y263948D01*
X185985Y263910D01*
X185962Y263890D01*
X185934Y263877D01*
X185859Y263807D01*
X185779Y263742D01*
X185762Y263716D01*
X185740Y263695D01*
X185689Y263606D01*
X185632Y263521D01*
X185626Y263497D01*
X185608Y263465D01*
X185550Y263205D01*
X185553Y263167D01*
X185548Y263144D01*
X185548Y261111D01*
X179451Y261111D01*
X179350Y261096D01*
X179247Y261087D01*
X179219Y261076D01*
X179188Y261071D01*
X179096Y261027D01*
X179001Y260988D01*
X178977Y260969D01*
X178949Y260956D01*
X178874Y260886D01*
X178794Y260821D01*
X178777Y260795D01*
X178755Y260774D01*
X178704Y260685D01*
X178647Y260600D01*
X178642Y260576D01*
X178623Y260543D01*
X178565Y260284D01*
X178568Y260246D01*
X178563Y260223D01*
X178563Y259333D01*
X177673Y259333D01*
X177572Y259318D01*
X177469Y259309D01*
X177441Y259298D01*
X177410Y259293D01*
X177318Y259249D01*
X177223Y259210D01*
X177199Y259191D01*
X177171Y259178D01*
X177096Y259108D01*
X177016Y259043D01*
X176999Y259017D01*
X176977Y258996D01*
X176926Y258907D01*
X176869Y258822D01*
X176863Y258798D01*
X176845Y258765D01*
X176787Y258506D01*
X176790Y258468D01*
X176785Y258445D01*
X176785Y252348D01*
X174747Y252348D01*
X173819Y252597D01*
X172986Y253078D01*
X172332Y253732D01*
X172291Y253762D01*
X172255Y253800D01*
X172184Y253841D01*
X172118Y253889D01*
X172069Y253906D01*
X172025Y253932D01*
X171945Y253950D01*
X171867Y253977D01*
X171815Y253979D01*
X171765Y253990D01*
X171683Y253983D01*
X171601Y253986D01*
X171552Y253972D01*
X171500Y253968D01*
X171424Y253938D01*
X171345Y253916D01*
X171301Y253888D01*
X171253Y253869D01*
X171190Y253817D01*
X171121Y253773D01*
X171087Y253734D01*
X171047Y253702D01*
X171002Y253633D01*
X170949Y253571D01*
X170928Y253523D01*
X170900Y253480D01*
X170888Y253430D01*
X170844Y253326D01*
X170826Y253148D01*
X170816Y253104D01*
X170816Y252482D01*
X170556Y251513D01*
X170054Y250644D01*
X169345Y249935D01*
X168476Y249433D01*
X167507Y249173D01*
X163067Y249173D01*
G37*
%LPD*%
G36*
X83932Y57453D02*
X83932Y57453D01*
X83962Y57452D01*
X84061Y57479D01*
X84162Y57499D01*
X84182Y57512D01*
X84219Y57522D01*
X84443Y57665D01*
X84468Y57693D01*
X84488Y57706D01*
X85591Y58809D01*
X85604Y58826D01*
X85620Y58840D01*
X85682Y58933D01*
X85749Y59023D01*
X85756Y59043D01*
X85767Y59061D01*
X85777Y59105D01*
X85836Y59275D01*
X85840Y59387D01*
X85851Y59438D01*
X85851Y121317D01*
X85836Y121419D01*
X85828Y121521D01*
X85816Y121549D01*
X85811Y121580D01*
X85767Y121672D01*
X85729Y121768D01*
X85709Y121791D01*
X85696Y121819D01*
X85626Y121894D01*
X85561Y121974D01*
X85535Y121991D01*
X85514Y122013D01*
X85425Y122064D01*
X85340Y122121D01*
X85316Y122127D01*
X85284Y122145D01*
X85024Y122203D01*
X84986Y122200D01*
X84963Y122205D01*
X61417Y122205D01*
X61315Y122190D01*
X61213Y122182D01*
X61185Y122170D01*
X61154Y122165D01*
X61062Y122121D01*
X60966Y122083D01*
X60943Y122063D01*
X60915Y122050D01*
X60840Y121980D01*
X60760Y121915D01*
X60743Y121889D01*
X60721Y121868D01*
X60670Y121779D01*
X60613Y121694D01*
X60607Y121670D01*
X60589Y121638D01*
X60531Y121378D01*
X60534Y121340D01*
X60529Y121317D01*
X60529Y121263D01*
X59487Y120221D01*
X44513Y120221D01*
X43471Y121263D01*
X43471Y128737D01*
X44106Y129372D01*
X44167Y129455D01*
X44234Y129533D01*
X44246Y129561D01*
X44264Y129586D01*
X44298Y129683D01*
X44338Y129777D01*
X44341Y129808D01*
X44351Y129837D01*
X44355Y129940D01*
X44366Y130042D01*
X44360Y130072D01*
X44361Y130103D01*
X44334Y130202D01*
X44314Y130302D01*
X44301Y130323D01*
X44291Y130359D01*
X44148Y130583D01*
X44119Y130608D01*
X44106Y130628D01*
X43471Y131263D01*
X43471Y138737D01*
X44106Y139372D01*
X44167Y139455D01*
X44234Y139533D01*
X44246Y139561D01*
X44264Y139586D01*
X44298Y139683D01*
X44338Y139777D01*
X44341Y139808D01*
X44351Y139837D01*
X44355Y139940D01*
X44366Y140042D01*
X44360Y140072D01*
X44361Y140103D01*
X44334Y140202D01*
X44314Y140302D01*
X44301Y140323D01*
X44291Y140359D01*
X44148Y140583D01*
X44119Y140608D01*
X44106Y140628D01*
X43297Y141437D01*
X43281Y141450D01*
X43267Y141466D01*
X43173Y141528D01*
X43083Y141595D01*
X43064Y141602D01*
X43046Y141613D01*
X43001Y141623D01*
X42832Y141682D01*
X42720Y141686D01*
X42669Y141697D01*
X40886Y141697D01*
X40865Y141694D01*
X40844Y141696D01*
X40734Y141674D01*
X40623Y141657D01*
X40604Y141648D01*
X40584Y141644D01*
X40545Y141620D01*
X40384Y141542D01*
X40301Y141465D01*
X40258Y141437D01*
X40139Y141318D01*
X40126Y141301D01*
X40110Y141288D01*
X40048Y141194D01*
X39981Y141104D01*
X39974Y141084D01*
X39963Y141067D01*
X39953Y141022D01*
X39894Y140853D01*
X39890Y140740D01*
X39879Y140690D01*
X39879Y70316D01*
X39882Y70295D01*
X39880Y70274D01*
X39902Y70164D01*
X39919Y70053D01*
X39928Y70034D01*
X39932Y70014D01*
X39956Y69975D01*
X40034Y69814D01*
X40111Y69731D01*
X40139Y69688D01*
X40264Y69563D01*
X40281Y69550D01*
X40294Y69534D01*
X40388Y69472D01*
X40478Y69405D01*
X40498Y69398D01*
X40515Y69387D01*
X40560Y69377D01*
X40729Y69318D01*
X40842Y69314D01*
X40892Y69303D01*
X42669Y69303D01*
X42690Y69306D01*
X42711Y69304D01*
X42821Y69326D01*
X42932Y69343D01*
X42951Y69352D01*
X42972Y69356D01*
X43010Y69380D01*
X43171Y69458D01*
X43254Y69535D01*
X43297Y69563D01*
X43568Y69833D01*
X43629Y69916D01*
X43695Y69994D01*
X43707Y70022D01*
X43725Y70047D01*
X43759Y70144D01*
X43799Y70238D01*
X43803Y70269D01*
X43813Y70298D01*
X43816Y70401D01*
X43827Y70503D01*
X43821Y70533D01*
X43822Y70564D01*
X43795Y70663D01*
X43775Y70764D01*
X43762Y70784D01*
X43752Y70820D01*
X43609Y71045D01*
X43580Y71069D01*
X43568Y71089D01*
X43217Y71440D01*
X42882Y72019D01*
X42709Y72665D01*
X42709Y74501D01*
X51389Y74501D01*
X51490Y74516D01*
X51593Y74524D01*
X51621Y74536D01*
X51652Y74540D01*
X51744Y74585D01*
X51839Y74623D01*
X51863Y74643D01*
X51891Y74656D01*
X51966Y74726D01*
X51997Y74752D01*
X52013Y74732D01*
X52039Y74715D01*
X52060Y74693D01*
X52149Y74642D01*
X52234Y74585D01*
X52258Y74579D01*
X52291Y74561D01*
X52550Y74503D01*
X52588Y74506D01*
X52611Y74501D01*
X61291Y74501D01*
X61291Y72665D01*
X61118Y72019D01*
X60783Y71440D01*
X60432Y71089D01*
X60371Y71006D01*
X60305Y70928D01*
X60293Y70900D01*
X60275Y70875D01*
X60241Y70778D01*
X60201Y70684D01*
X60197Y70653D01*
X60187Y70624D01*
X60184Y70522D01*
X60173Y70419D01*
X60179Y70389D01*
X60178Y70359D01*
X60205Y70259D01*
X60225Y70159D01*
X60238Y70139D01*
X60248Y70102D01*
X60391Y69878D01*
X60420Y69853D01*
X60432Y69833D01*
X60529Y69737D01*
X60529Y62263D01*
X59894Y61628D01*
X59833Y61546D01*
X59766Y61467D01*
X59754Y61439D01*
X59736Y61414D01*
X59702Y61317D01*
X59662Y61223D01*
X59659Y61192D01*
X59649Y61163D01*
X59645Y61061D01*
X59634Y60958D01*
X59640Y60928D01*
X59639Y60897D01*
X59666Y60798D01*
X59686Y60698D01*
X59699Y60678D01*
X59709Y60641D01*
X59852Y60417D01*
X59881Y60392D01*
X59894Y60372D01*
X60529Y59737D01*
X60529Y59683D01*
X60544Y59581D01*
X60552Y59479D01*
X60564Y59451D01*
X60569Y59420D01*
X60613Y59328D01*
X60651Y59232D01*
X60671Y59209D01*
X60684Y59181D01*
X60754Y59106D01*
X60819Y59026D01*
X60845Y59009D01*
X60866Y58987D01*
X60955Y58936D01*
X61040Y58879D01*
X61064Y58873D01*
X61096Y58855D01*
X61356Y58797D01*
X61394Y58800D01*
X61417Y58795D01*
X73953Y58795D01*
X73973Y58798D01*
X73994Y58796D01*
X74105Y58818D01*
X74216Y58835D01*
X74234Y58844D01*
X74255Y58848D01*
X74294Y58872D01*
X74455Y58950D01*
X74537Y59027D01*
X74581Y59055D01*
X76233Y60707D01*
X80231Y60707D01*
X83232Y57706D01*
X83314Y57645D01*
X83393Y57579D01*
X83421Y57567D01*
X83446Y57549D01*
X83543Y57515D01*
X83637Y57474D01*
X83668Y57471D01*
X83697Y57461D01*
X83799Y57458D01*
X83902Y57447D01*
X83932Y57453D01*
G37*
G36*
X125751Y260989D02*
X125751Y260989D01*
X125772Y260987D01*
X125882Y261009D01*
X125993Y261026D01*
X126012Y261035D01*
X126032Y261039D01*
X126071Y261063D01*
X126232Y261141D01*
X126315Y261218D01*
X126358Y261246D01*
X130924Y265812D01*
X191770Y265812D01*
X191791Y265815D01*
X191812Y265813D01*
X191922Y265835D01*
X192033Y265852D01*
X192052Y265861D01*
X192072Y265865D01*
X192111Y265889D01*
X192272Y265967D01*
X192355Y266044D01*
X192398Y266072D01*
X196970Y270644D01*
X196983Y270661D01*
X196999Y270674D01*
X197061Y270768D01*
X197128Y270858D01*
X197135Y270878D01*
X197146Y270895D01*
X197156Y270940D01*
X197215Y271109D01*
X197219Y271222D01*
X197230Y271272D01*
X197230Y279400D01*
X197227Y279421D01*
X197229Y279442D01*
X197207Y279552D01*
X197190Y279663D01*
X197181Y279682D01*
X197177Y279702D01*
X197153Y279741D01*
X197075Y279902D01*
X196998Y279985D01*
X196970Y280028D01*
X192144Y284854D01*
X192127Y284867D01*
X192114Y284883D01*
X192020Y284945D01*
X191930Y285012D01*
X191910Y285019D01*
X191893Y285030D01*
X191848Y285040D01*
X191679Y285099D01*
X191566Y285103D01*
X191516Y285114D01*
X168262Y285114D01*
X166236Y287140D01*
X166219Y287153D01*
X166206Y287169D01*
X166112Y287231D01*
X166022Y287298D01*
X166002Y287305D01*
X165985Y287316D01*
X165940Y287326D01*
X165771Y287385D01*
X165658Y287389D01*
X165608Y287400D01*
X163830Y287400D01*
X163809Y287397D01*
X163788Y287399D01*
X163678Y287377D01*
X163567Y287360D01*
X163548Y287351D01*
X163528Y287347D01*
X163489Y287323D01*
X163328Y287245D01*
X163245Y287168D01*
X163202Y287140D01*
X161430Y285368D01*
X127622Y285368D01*
X123062Y289928D01*
X123062Y298450D01*
X123059Y298471D01*
X123061Y298492D01*
X123039Y298602D01*
X123022Y298713D01*
X123013Y298732D01*
X123009Y298752D01*
X122985Y298791D01*
X122907Y298952D01*
X122830Y299035D01*
X122802Y299078D01*
X121278Y300602D01*
X121261Y300615D01*
X121248Y300631D01*
X121154Y300693D01*
X121064Y300760D01*
X121044Y300767D01*
X121027Y300778D01*
X120982Y300788D01*
X120813Y300847D01*
X120700Y300851D01*
X120650Y300862D01*
X109474Y300862D01*
X109453Y300859D01*
X109432Y300861D01*
X109322Y300839D01*
X109211Y300822D01*
X109192Y300813D01*
X109172Y300809D01*
X109133Y300785D01*
X108972Y300707D01*
X108889Y300630D01*
X108846Y300602D01*
X107576Y299332D01*
X107563Y299315D01*
X107547Y299302D01*
X107485Y299208D01*
X107418Y299118D01*
X107411Y299098D01*
X107400Y299081D01*
X107390Y299036D01*
X107331Y298867D01*
X107327Y298754D01*
X107316Y298704D01*
X107316Y289674D01*
X103264Y285622D01*
X102362Y285622D01*
X102341Y285619D01*
X102320Y285621D01*
X102210Y285599D01*
X102099Y285582D01*
X102080Y285573D01*
X102060Y285569D01*
X102021Y285545D01*
X101860Y285467D01*
X101777Y285390D01*
X101734Y285362D01*
X98432Y282060D01*
X98419Y282043D01*
X98403Y282030D01*
X98341Y281936D01*
X98274Y281846D01*
X98267Y281826D01*
X98256Y281809D01*
X98246Y281764D01*
X98243Y281755D01*
X98232Y281736D01*
X98224Y281702D01*
X98187Y281595D01*
X98184Y281524D01*
X98174Y281477D01*
X98176Y281451D01*
X98172Y281432D01*
X98172Y263652D01*
X98175Y263631D01*
X98173Y263610D01*
X98191Y263518D01*
X98197Y263447D01*
X98206Y263423D01*
X98212Y263389D01*
X98221Y263370D01*
X98225Y263350D01*
X98249Y263311D01*
X98261Y263286D01*
X98296Y263200D01*
X98313Y263178D01*
X98327Y263150D01*
X98399Y263073D01*
X98406Y263064D01*
X98432Y263024D01*
X100210Y261246D01*
X100227Y261233D01*
X100240Y261217D01*
X100334Y261155D01*
X100424Y261088D01*
X100444Y261081D01*
X100461Y261070D01*
X100506Y261060D01*
X100675Y261001D01*
X100788Y260997D01*
X100838Y260986D01*
X125730Y260986D01*
X125751Y260989D01*
G37*
%LPC*%
G36*
X79413Y200532D02*
X79413Y200532D01*
X75564Y204381D01*
X75564Y250749D01*
X75561Y250770D01*
X75563Y250791D01*
X75541Y250901D01*
X75524Y251012D01*
X75515Y251031D01*
X75511Y251051D01*
X75487Y251090D01*
X75409Y251251D01*
X75332Y251334D01*
X75304Y251377D01*
X73278Y253403D01*
X73278Y261201D01*
X74542Y262465D01*
X75235Y263157D01*
X75306Y263254D01*
X75380Y263348D01*
X75384Y263361D01*
X75392Y263371D01*
X75432Y263485D01*
X75474Y263596D01*
X75475Y263610D01*
X75480Y263622D01*
X75484Y263742D01*
X75492Y263861D01*
X75488Y263872D01*
X75489Y263888D01*
X75419Y264145D01*
X75387Y264196D01*
X75376Y264230D01*
X75102Y264703D01*
X74929Y265349D01*
X74929Y266955D01*
X82169Y266955D01*
X82270Y266970D01*
X82373Y266978D01*
X82401Y266990D01*
X82432Y266994D01*
X82524Y267039D01*
X82542Y267047D01*
X82554Y267039D01*
X82578Y267033D01*
X82611Y267015D01*
X82870Y266957D01*
X82908Y266960D01*
X82931Y266955D01*
X90171Y266955D01*
X90171Y265349D01*
X89998Y264703D01*
X89724Y264230D01*
X89680Y264118D01*
X89633Y264008D01*
X89632Y263995D01*
X89627Y263982D01*
X89618Y263863D01*
X89606Y263744D01*
X89609Y263730D01*
X89608Y263717D01*
X89635Y263600D01*
X89658Y263483D01*
X89664Y263474D01*
X89668Y263458D01*
X89802Y263228D01*
X89846Y263187D01*
X89865Y263157D01*
X91574Y261449D01*
X93301Y259722D01*
X95124Y257899D01*
X95124Y236677D01*
X95127Y236656D01*
X95125Y236635D01*
X95147Y236525D01*
X95164Y236414D01*
X95173Y236395D01*
X95177Y236375D01*
X95201Y236336D01*
X95279Y236175D01*
X95356Y236092D01*
X95384Y236049D01*
X96095Y235338D01*
X96112Y235325D01*
X96125Y235309D01*
X96219Y235247D01*
X96309Y235180D01*
X96329Y235173D01*
X96346Y235162D01*
X96391Y235152D01*
X96560Y235093D01*
X96673Y235089D01*
X96723Y235078D01*
X124803Y235078D01*
X128144Y231737D01*
X128144Y211493D01*
X125057Y208406D01*
X101549Y208406D01*
X101528Y208403D01*
X101507Y208405D01*
X101397Y208383D01*
X101286Y208366D01*
X101267Y208357D01*
X101247Y208353D01*
X101208Y208329D01*
X101047Y208251D01*
X100964Y208174D01*
X100921Y208146D01*
X93307Y200532D01*
X79413Y200532D01*
G37*
%LPD*%
%LPC*%
G36*
X408004Y223966D02*
X408004Y223966D01*
X404316Y225494D01*
X401494Y228316D01*
X400893Y229768D01*
X400861Y229821D01*
X400837Y229879D01*
X400792Y229934D01*
X400755Y229996D01*
X400709Y230037D01*
X400670Y230085D01*
X400610Y230125D01*
X400557Y230172D01*
X400500Y230198D01*
X400449Y230232D01*
X400402Y230243D01*
X400315Y230282D01*
X400102Y230309D01*
X400072Y230316D01*
X320314Y230316D01*
X320294Y230313D01*
X320273Y230315D01*
X320162Y230293D01*
X320051Y230276D01*
X320033Y230267D01*
X320012Y230263D01*
X319973Y230239D01*
X319812Y230161D01*
X319730Y230084D01*
X319686Y230056D01*
X318737Y229107D01*
X314739Y229107D01*
X311911Y231935D01*
X311911Y235933D01*
X314739Y238761D01*
X318737Y238761D01*
X319554Y237944D01*
X319571Y237931D01*
X319584Y237915D01*
X319678Y237853D01*
X319768Y237786D01*
X319788Y237779D01*
X319805Y237768D01*
X319850Y237758D01*
X320019Y237699D01*
X320132Y237695D01*
X320182Y237684D01*
X329926Y237684D01*
X329977Y237691D01*
X330028Y237690D01*
X330108Y237711D01*
X330189Y237724D01*
X330235Y237746D01*
X330285Y237760D01*
X330354Y237804D01*
X330428Y237839D01*
X330466Y237874D01*
X330509Y237902D01*
X330562Y237965D01*
X330622Y238021D01*
X330648Y238065D01*
X330681Y238105D01*
X330714Y238180D01*
X330754Y238251D01*
X330765Y238302D01*
X330786Y238349D01*
X330794Y238431D01*
X330812Y238511D01*
X330808Y238562D01*
X330813Y238614D01*
X330797Y238694D01*
X330790Y238776D01*
X330771Y238824D01*
X330761Y238874D01*
X330733Y238918D01*
X330691Y239023D01*
X330578Y239162D01*
X330554Y239200D01*
X328167Y241587D01*
X328167Y245585D01*
X328842Y246260D01*
X328872Y246301D01*
X328910Y246337D01*
X328951Y246408D01*
X329000Y246474D01*
X329017Y246523D01*
X329042Y246567D01*
X329060Y246647D01*
X329087Y246725D01*
X329089Y246777D01*
X329100Y246827D01*
X329093Y246909D01*
X329096Y246991D01*
X329083Y247040D01*
X329078Y247092D01*
X329048Y247168D01*
X329026Y247247D01*
X328999Y247291D01*
X328979Y247339D01*
X328928Y247402D01*
X328884Y247471D01*
X328844Y247505D01*
X328812Y247545D01*
X328743Y247590D01*
X328681Y247643D01*
X328634Y247664D01*
X328591Y247692D01*
X328540Y247704D01*
X328533Y247707D01*
X326770Y249469D01*
X326770Y258531D01*
X328463Y260224D01*
X328803Y260224D01*
X328905Y260239D01*
X329007Y260247D01*
X329035Y260259D01*
X329066Y260264D01*
X329158Y260308D01*
X329254Y260346D01*
X329277Y260366D01*
X329305Y260379D01*
X329380Y260449D01*
X329460Y260514D01*
X329477Y260540D01*
X329499Y260561D01*
X329550Y260650D01*
X329607Y260735D01*
X329613Y260759D01*
X329631Y260791D01*
X329689Y261051D01*
X329686Y261089D01*
X329691Y261112D01*
X329691Y261874D01*
X329676Y261976D01*
X329668Y262078D01*
X329656Y262106D01*
X329651Y262137D01*
X329607Y262229D01*
X329569Y262325D01*
X329549Y262348D01*
X329536Y262376D01*
X329466Y262451D01*
X329401Y262531D01*
X329375Y262548D01*
X329354Y262570D01*
X329265Y262621D01*
X329180Y262678D01*
X329156Y262684D01*
X329124Y262702D01*
X328864Y262760D01*
X328826Y262757D01*
X328803Y262762D01*
X328463Y262762D01*
X326770Y264455D01*
X326770Y273517D01*
X326837Y273584D01*
X326850Y273600D01*
X326866Y273614D01*
X326928Y273707D01*
X326995Y273798D01*
X327002Y273817D01*
X327013Y273835D01*
X327023Y273880D01*
X327082Y274049D01*
X327086Y274161D01*
X327097Y274212D01*
X327097Y281773D01*
X327088Y281835D01*
X327089Y281897D01*
X327068Y281965D01*
X327057Y282036D01*
X327031Y282092D01*
X327013Y282151D01*
X326973Y282211D01*
X326942Y282276D01*
X326899Y282321D01*
X326865Y282372D01*
X326826Y282400D01*
X326760Y282470D01*
X326575Y282576D01*
X326549Y282594D01*
X326396Y282657D01*
X325194Y283860D01*
X325178Y283871D01*
X325165Y283887D01*
X325135Y283907D01*
X325109Y283934D01*
X325042Y283972D01*
X324980Y284017D01*
X324958Y284025D01*
X324944Y284034D01*
X324919Y284040D01*
X324876Y284064D01*
X324801Y284079D01*
X324729Y284105D01*
X324672Y284107D01*
X324616Y284118D01*
X324582Y284115D01*
X324567Y284118D01*
X324565Y284118D01*
X324522Y284112D01*
X324463Y284114D01*
X324408Y284099D01*
X324352Y284094D01*
X324323Y284082D01*
X324302Y284078D01*
X324261Y284059D01*
X324207Y284044D01*
X324159Y284013D01*
X324106Y283992D01*
X324090Y283976D01*
X324063Y283963D01*
X324028Y283930D01*
X323982Y283901D01*
X323927Y283836D01*
X323868Y283781D01*
X323847Y283744D01*
X323827Y283725D01*
X323782Y283658D01*
X322692Y282567D01*
X321409Y281710D01*
X319984Y281120D01*
X319074Y280939D01*
X319074Y288164D01*
X319059Y288265D01*
X319051Y288368D01*
X319039Y288396D01*
X319034Y288427D01*
X318990Y288519D01*
X318952Y288614D01*
X318932Y288638D01*
X318923Y288656D01*
X318933Y288674D01*
X318990Y288759D01*
X318996Y288783D01*
X319014Y288816D01*
X319072Y289075D01*
X319069Y289113D01*
X319074Y289136D01*
X319074Y300864D01*
X319059Y300965D01*
X319051Y301068D01*
X319039Y301096D01*
X319034Y301127D01*
X318990Y301219D01*
X318952Y301314D01*
X318932Y301338D01*
X318923Y301356D01*
X318933Y301374D01*
X318990Y301459D01*
X318996Y301483D01*
X319014Y301516D01*
X319072Y301775D01*
X319069Y301810D01*
X319072Y301822D01*
X319072Y301826D01*
X319074Y301836D01*
X319074Y309061D01*
X319984Y308880D01*
X321409Y308290D01*
X322692Y307433D01*
X323782Y306342D01*
X323827Y306275D01*
X323865Y306233D01*
X323896Y306185D01*
X323954Y306135D01*
X324006Y306079D01*
X324055Y306050D01*
X324098Y306013D01*
X324169Y305983D01*
X324235Y305944D01*
X324291Y305931D01*
X324343Y305909D01*
X324419Y305901D01*
X324494Y305883D01*
X324551Y305887D01*
X324607Y305881D01*
X324683Y305896D01*
X324759Y305902D01*
X324812Y305922D01*
X324868Y305933D01*
X324910Y305960D01*
X325007Y305998D01*
X325160Y306119D01*
X325194Y306140D01*
X326396Y307343D01*
X328994Y308419D01*
X331806Y308419D01*
X334404Y307343D01*
X336393Y305354D01*
X337469Y302756D01*
X337469Y299944D01*
X336393Y297346D01*
X334675Y295628D01*
X334614Y295545D01*
X334547Y295467D01*
X334535Y295439D01*
X334517Y295414D01*
X334483Y295317D01*
X334443Y295223D01*
X334440Y295192D01*
X334430Y295163D01*
X334426Y295061D01*
X334416Y294958D01*
X334422Y294928D01*
X334421Y294897D01*
X334448Y294798D01*
X334468Y294698D01*
X334480Y294678D01*
X334490Y294641D01*
X334633Y294417D01*
X334662Y294392D01*
X334675Y294372D01*
X336393Y292654D01*
X337469Y290056D01*
X337469Y287244D01*
X336393Y284646D01*
X334404Y282657D01*
X334251Y282594D01*
X334198Y282562D01*
X334140Y282539D01*
X334085Y282494D01*
X334023Y282457D01*
X333982Y282410D01*
X333934Y282371D01*
X333894Y282312D01*
X333847Y282258D01*
X333821Y282202D01*
X333787Y282150D01*
X333776Y282103D01*
X333737Y282016D01*
X333710Y281804D01*
X333703Y281773D01*
X333703Y276098D01*
X333718Y275996D01*
X333726Y275894D01*
X333738Y275866D01*
X333743Y275835D01*
X333787Y275743D01*
X333825Y275647D01*
X333845Y275624D01*
X333858Y275596D01*
X333928Y275521D01*
X333993Y275441D01*
X334019Y275424D01*
X334040Y275402D01*
X334129Y275351D01*
X334214Y275294D01*
X334238Y275288D01*
X334270Y275270D01*
X334530Y275212D01*
X334568Y275215D01*
X334591Y275210D01*
X337525Y275210D01*
X339218Y273517D01*
X339218Y264455D01*
X337525Y262762D01*
X337185Y262762D01*
X337083Y262747D01*
X336981Y262739D01*
X336953Y262727D01*
X336922Y262722D01*
X336830Y262678D01*
X336734Y262640D01*
X336711Y262620D01*
X336683Y262607D01*
X336608Y262537D01*
X336528Y262472D01*
X336511Y262446D01*
X336489Y262425D01*
X336438Y262336D01*
X336381Y262251D01*
X336375Y262227D01*
X336357Y262195D01*
X336299Y261935D01*
X336302Y261897D01*
X336297Y261874D01*
X336297Y261112D01*
X336312Y261010D01*
X336320Y260908D01*
X336332Y260880D01*
X336337Y260849D01*
X336381Y260757D01*
X336419Y260661D01*
X336439Y260638D01*
X336452Y260610D01*
X336522Y260535D01*
X336587Y260455D01*
X336613Y260438D01*
X336634Y260416D01*
X336723Y260365D01*
X336808Y260308D01*
X336832Y260302D01*
X336864Y260284D01*
X337124Y260226D01*
X337162Y260229D01*
X337185Y260224D01*
X337525Y260224D01*
X339218Y258531D01*
X339218Y249469D01*
X337462Y247713D01*
X337415Y247700D01*
X337346Y247656D01*
X337272Y247621D01*
X337234Y247586D01*
X337191Y247558D01*
X337138Y247495D01*
X337078Y247439D01*
X337052Y247395D01*
X337019Y247355D01*
X336986Y247280D01*
X336946Y247209D01*
X336935Y247158D01*
X336914Y247111D01*
X336906Y247029D01*
X336888Y246949D01*
X336892Y246898D01*
X336887Y246846D01*
X336903Y246766D01*
X336910Y246684D01*
X336929Y246636D01*
X336939Y246586D01*
X336967Y246542D01*
X337009Y246437D01*
X337122Y246298D01*
X337146Y246260D01*
X337821Y245585D01*
X337821Y241587D01*
X335434Y239200D01*
X335403Y239159D01*
X335366Y239123D01*
X335325Y239052D01*
X335276Y238986D01*
X335259Y238937D01*
X335234Y238893D01*
X335216Y238813D01*
X335189Y238735D01*
X335187Y238683D01*
X335176Y238633D01*
X335183Y238551D01*
X335180Y238469D01*
X335193Y238420D01*
X335198Y238368D01*
X335228Y238292D01*
X335250Y238213D01*
X335277Y238169D01*
X335297Y238121D01*
X335348Y238058D01*
X335392Y237989D01*
X335432Y237955D01*
X335464Y237915D01*
X335533Y237870D01*
X335595Y237817D01*
X335642Y237796D01*
X335685Y237768D01*
X335736Y237756D01*
X335839Y237712D01*
X336018Y237694D01*
X336062Y237684D01*
X400072Y237684D01*
X400133Y237693D01*
X400195Y237692D01*
X400264Y237713D01*
X400335Y237724D01*
X400391Y237751D01*
X400450Y237768D01*
X400509Y237808D01*
X400574Y237839D01*
X400619Y237882D01*
X400671Y237916D01*
X400698Y237955D01*
X400768Y238021D01*
X400875Y238207D01*
X400893Y238232D01*
X401494Y239684D01*
X404316Y242506D01*
X408004Y244034D01*
X411996Y244034D01*
X415684Y242506D01*
X418506Y239684D01*
X420034Y235996D01*
X420034Y232004D01*
X418506Y228316D01*
X415684Y225494D01*
X411996Y223966D01*
X408004Y223966D01*
G37*
%LPD*%
G36*
X92223Y202315D02*
X92223Y202315D01*
X92244Y202313D01*
X92354Y202335D01*
X92465Y202352D01*
X92484Y202361D01*
X92504Y202365D01*
X92543Y202389D01*
X92704Y202467D01*
X92787Y202544D01*
X92830Y202572D01*
X100444Y210186D01*
X123952Y210186D01*
X123973Y210189D01*
X123994Y210187D01*
X124104Y210209D01*
X124215Y210226D01*
X124234Y210235D01*
X124254Y210239D01*
X124293Y210263D01*
X124454Y210341D01*
X124537Y210418D01*
X124580Y210446D01*
X126104Y211970D01*
X126117Y211987D01*
X126133Y212000D01*
X126195Y212094D01*
X126262Y212184D01*
X126269Y212204D01*
X126280Y212221D01*
X126290Y212266D01*
X126349Y212435D01*
X126353Y212548D01*
X126364Y212598D01*
X126364Y230632D01*
X126361Y230653D01*
X126363Y230674D01*
X126341Y230784D01*
X126324Y230895D01*
X126315Y230914D01*
X126311Y230934D01*
X126287Y230973D01*
X126209Y231134D01*
X126132Y231217D01*
X126104Y231260D01*
X124326Y233038D01*
X124309Y233051D01*
X124296Y233067D01*
X124202Y233129D01*
X124112Y233196D01*
X124092Y233203D01*
X124075Y233214D01*
X124030Y233224D01*
X123861Y233283D01*
X123748Y233287D01*
X123698Y233298D01*
X95618Y233298D01*
X93344Y235572D01*
X93344Y256794D01*
X93341Y256815D01*
X93343Y256836D01*
X93321Y256946D01*
X93304Y257057D01*
X93295Y257076D01*
X93291Y257096D01*
X93267Y257135D01*
X93189Y257296D01*
X93112Y257379D01*
X93084Y257422D01*
X88258Y262248D01*
X88241Y262261D01*
X88228Y262277D01*
X88134Y262339D01*
X88044Y262406D01*
X88024Y262413D01*
X88007Y262424D01*
X87962Y262434D01*
X87793Y262493D01*
X87680Y262497D01*
X87630Y262508D01*
X77470Y262508D01*
X77449Y262505D01*
X77428Y262507D01*
X77318Y262485D01*
X77207Y262468D01*
X77188Y262459D01*
X77168Y262455D01*
X77129Y262431D01*
X76968Y262353D01*
X76885Y262276D01*
X76842Y262248D01*
X75318Y260724D01*
X75305Y260707D01*
X75289Y260694D01*
X75227Y260600D01*
X75160Y260510D01*
X75153Y260490D01*
X75142Y260473D01*
X75132Y260428D01*
X75073Y260259D01*
X75069Y260151D01*
X75060Y260109D01*
X75060Y260106D01*
X75058Y260096D01*
X75058Y254508D01*
X75061Y254487D01*
X75059Y254466D01*
X75081Y254356D01*
X75098Y254245D01*
X75107Y254226D01*
X75111Y254206D01*
X75135Y254167D01*
X75213Y254006D01*
X75290Y253923D01*
X75318Y253880D01*
X77344Y251854D01*
X77344Y205486D01*
X77347Y205465D01*
X77345Y205444D01*
X77367Y205334D01*
X77384Y205223D01*
X77393Y205204D01*
X77397Y205184D01*
X77421Y205145D01*
X77499Y204984D01*
X77576Y204901D01*
X77604Y204858D01*
X79890Y202572D01*
X79907Y202559D01*
X79920Y202543D01*
X80014Y202481D01*
X80104Y202414D01*
X80124Y202407D01*
X80141Y202396D01*
X80186Y202386D01*
X80355Y202327D01*
X80468Y202323D01*
X80518Y202312D01*
X92202Y202312D01*
X92223Y202315D01*
G37*
G36*
X59203Y200029D02*
X59203Y200029D01*
X59224Y200027D01*
X59334Y200049D01*
X59445Y200066D01*
X59464Y200075D01*
X59484Y200079D01*
X59523Y200103D01*
X59684Y200181D01*
X59767Y200258D01*
X59810Y200286D01*
X63620Y204096D01*
X63633Y204113D01*
X63649Y204126D01*
X63711Y204220D01*
X63778Y204310D01*
X63785Y204330D01*
X63796Y204347D01*
X63806Y204392D01*
X63865Y204561D01*
X63869Y204674D01*
X63880Y204724D01*
X63880Y239268D01*
X63877Y239289D01*
X63879Y239310D01*
X63857Y239420D01*
X63840Y239531D01*
X63831Y239550D01*
X63827Y239570D01*
X63803Y239609D01*
X63725Y239770D01*
X63648Y239853D01*
X63620Y239896D01*
X60318Y243198D01*
X60301Y243211D01*
X60288Y243227D01*
X60194Y243289D01*
X60104Y243356D01*
X60084Y243363D01*
X60067Y243374D01*
X60022Y243384D01*
X59853Y243443D01*
X59740Y243447D01*
X59690Y243458D01*
X55994Y243458D01*
X40004Y259448D01*
X40004Y261252D01*
X43040Y264288D01*
X65024Y264288D01*
X65045Y264291D01*
X65066Y264289D01*
X65176Y264311D01*
X65287Y264328D01*
X65306Y264337D01*
X65326Y264341D01*
X65365Y264365D01*
X65526Y264443D01*
X65609Y264520D01*
X65652Y264548D01*
X67176Y266072D01*
X67189Y266089D01*
X67205Y266102D01*
X67267Y266196D01*
X67334Y266286D01*
X67341Y266306D01*
X67352Y266323D01*
X67362Y266368D01*
X67421Y266537D01*
X67425Y266650D01*
X67436Y266700D01*
X67436Y279400D01*
X67433Y279421D01*
X67435Y279442D01*
X67413Y279552D01*
X67396Y279663D01*
X67387Y279682D01*
X67383Y279702D01*
X67359Y279741D01*
X67281Y279902D01*
X67204Y279985D01*
X67176Y280028D01*
X64382Y282822D01*
X64365Y282835D01*
X64352Y282851D01*
X64258Y282913D01*
X64168Y282980D01*
X64148Y282987D01*
X64131Y282998D01*
X64086Y283008D01*
X63917Y283067D01*
X63804Y283071D01*
X63754Y283082D01*
X31496Y283082D01*
X31475Y283079D01*
X31454Y283081D01*
X31344Y283059D01*
X31233Y283042D01*
X31214Y283033D01*
X31194Y283029D01*
X31155Y283005D01*
X30994Y282927D01*
X30911Y282850D01*
X30868Y282822D01*
X27820Y279774D01*
X27807Y279757D01*
X27791Y279744D01*
X27729Y279650D01*
X27662Y279560D01*
X27655Y279540D01*
X27644Y279523D01*
X27634Y279478D01*
X27575Y279309D01*
X27571Y279196D01*
X27560Y279146D01*
X27560Y259080D01*
X27563Y259059D01*
X27561Y259038D01*
X27583Y258928D01*
X27600Y258817D01*
X27609Y258798D01*
X27613Y258778D01*
X27637Y258739D01*
X27715Y258578D01*
X27792Y258495D01*
X27820Y258452D01*
X46864Y239408D01*
X46864Y202184D01*
X46867Y202163D01*
X46865Y202142D01*
X46887Y202032D01*
X46904Y201921D01*
X46913Y201902D01*
X46917Y201882D01*
X46941Y201843D01*
X47019Y201682D01*
X47096Y201599D01*
X47124Y201556D01*
X48394Y200286D01*
X48411Y200273D01*
X48424Y200257D01*
X48518Y200195D01*
X48608Y200128D01*
X48628Y200121D01*
X48645Y200110D01*
X48690Y200100D01*
X48859Y200041D01*
X48972Y200037D01*
X49022Y200026D01*
X59182Y200026D01*
X59203Y200029D01*
G37*
%LPC*%
G36*
X401008Y96966D02*
X401008Y96966D01*
X399966Y98008D01*
X399966Y115992D01*
X401008Y117034D01*
X418992Y117034D01*
X420034Y115992D01*
X420034Y98008D01*
X418992Y96966D01*
X401008Y96966D01*
G37*
%LPD*%
%LPC*%
G36*
X408004Y122366D02*
X408004Y122366D01*
X404316Y123894D01*
X401494Y126716D01*
X399966Y130404D01*
X399966Y134396D01*
X401494Y138084D01*
X404316Y140906D01*
X408004Y142434D01*
X411996Y142434D01*
X415684Y140906D01*
X418506Y138084D01*
X420034Y134396D01*
X420034Y130404D01*
X418506Y126716D01*
X415684Y123894D01*
X411996Y122366D01*
X408004Y122366D01*
G37*
%LPD*%
%LPC*%
G36*
X408004Y147766D02*
X408004Y147766D01*
X404316Y149294D01*
X401494Y152116D01*
X399966Y155804D01*
X399966Y159796D01*
X401494Y163484D01*
X404316Y166306D01*
X408004Y167834D01*
X411996Y167834D01*
X415684Y166306D01*
X418506Y163484D01*
X420034Y159796D01*
X420034Y155804D01*
X418506Y152116D01*
X415684Y149294D01*
X411996Y147766D01*
X408004Y147766D01*
G37*
%LPD*%
%LPC*%
G36*
X145075Y315086D02*
X145075Y315086D01*
X143382Y316779D01*
X143382Y325841D01*
X145075Y327534D01*
X154137Y327534D01*
X155830Y325841D01*
X155830Y325501D01*
X155845Y325399D01*
X155853Y325297D01*
X155865Y325269D01*
X155870Y325238D01*
X155914Y325146D01*
X155952Y325050D01*
X155972Y325027D01*
X155985Y324999D01*
X156055Y324924D01*
X156120Y324844D01*
X156146Y324827D01*
X156167Y324805D01*
X156256Y324754D01*
X156341Y324697D01*
X156365Y324691D01*
X156397Y324673D01*
X156657Y324615D01*
X156695Y324618D01*
X156718Y324613D01*
X157734Y324613D01*
X157836Y324628D01*
X157938Y324636D01*
X157966Y324648D01*
X157997Y324653D01*
X158089Y324697D01*
X158185Y324735D01*
X158208Y324755D01*
X158236Y324768D01*
X158311Y324838D01*
X158391Y324903D01*
X158408Y324929D01*
X158430Y324950D01*
X158481Y325039D01*
X158538Y325124D01*
X158544Y325148D01*
X158562Y325180D01*
X158579Y325256D01*
X160222Y326899D01*
X169470Y326899D01*
X171070Y325299D01*
X171070Y317321D01*
X169470Y315721D01*
X160222Y315721D01*
X158586Y317357D01*
X158582Y317382D01*
X158538Y317474D01*
X158500Y317570D01*
X158480Y317593D01*
X158467Y317621D01*
X158397Y317696D01*
X158332Y317776D01*
X158306Y317793D01*
X158285Y317815D01*
X158196Y317866D01*
X158111Y317923D01*
X158087Y317929D01*
X158055Y317947D01*
X157795Y318005D01*
X157757Y318002D01*
X157734Y318007D01*
X156718Y318007D01*
X156616Y317992D01*
X156514Y317984D01*
X156486Y317972D01*
X156455Y317967D01*
X156363Y317923D01*
X156267Y317885D01*
X156244Y317865D01*
X156216Y317852D01*
X156141Y317782D01*
X156061Y317717D01*
X156044Y317691D01*
X156022Y317670D01*
X155971Y317581D01*
X155914Y317496D01*
X155908Y317472D01*
X155890Y317440D01*
X155832Y317180D01*
X155835Y317142D01*
X155830Y317119D01*
X155830Y316779D01*
X154137Y315086D01*
X145075Y315086D01*
G37*
%LPD*%
G36*
X275938Y259526D02*
X275938Y259526D01*
X276020Y259523D01*
X276069Y259537D01*
X276121Y259541D01*
X276197Y259571D01*
X276276Y259593D01*
X276320Y259621D01*
X276368Y259640D01*
X276431Y259692D01*
X276500Y259736D01*
X276534Y259775D01*
X276574Y259808D01*
X276619Y259876D01*
X276672Y259938D01*
X276693Y259986D01*
X276721Y260029D01*
X276733Y260079D01*
X276777Y260183D01*
X276795Y260361D01*
X276805Y260405D01*
X276805Y281563D01*
X276796Y281624D01*
X276797Y281686D01*
X276776Y281755D01*
X276765Y281826D01*
X276738Y281882D01*
X276721Y281941D01*
X276681Y282000D01*
X276650Y282065D01*
X276607Y282110D01*
X276573Y282162D01*
X276534Y282190D01*
X276468Y282259D01*
X276283Y282366D01*
X276257Y282384D01*
X275596Y282657D01*
X273607Y284646D01*
X272531Y287244D01*
X272531Y290056D01*
X273607Y292654D01*
X275325Y294372D01*
X275386Y294455D01*
X275453Y294533D01*
X275465Y294561D01*
X275483Y294586D01*
X275517Y294683D01*
X275557Y294777D01*
X275560Y294808D01*
X275570Y294837D01*
X275574Y294940D01*
X275584Y295042D01*
X275578Y295072D01*
X275579Y295103D01*
X275552Y295202D01*
X275532Y295302D01*
X275520Y295323D01*
X275510Y295359D01*
X275367Y295583D01*
X275338Y295608D01*
X275325Y295628D01*
X273607Y297346D01*
X273334Y298007D01*
X273302Y298060D01*
X273278Y298118D01*
X273233Y298173D01*
X273196Y298235D01*
X273150Y298276D01*
X273111Y298324D01*
X273051Y298364D01*
X272998Y298411D01*
X272941Y298437D01*
X272890Y298471D01*
X272843Y298482D01*
X272756Y298521D01*
X272543Y298548D01*
X272513Y298555D01*
X267843Y298555D01*
X267741Y298540D01*
X267639Y298532D01*
X267611Y298520D01*
X267580Y298515D01*
X267488Y298471D01*
X267392Y298433D01*
X267369Y298413D01*
X267341Y298400D01*
X267266Y298330D01*
X267186Y298265D01*
X267169Y298239D01*
X267147Y298218D01*
X267096Y298129D01*
X267039Y298044D01*
X267033Y298020D01*
X267015Y297988D01*
X266957Y297728D01*
X266960Y297690D01*
X266955Y297667D01*
X266955Y268480D01*
X266958Y268459D01*
X266956Y268438D01*
X266978Y268328D01*
X266995Y268217D01*
X267004Y268198D01*
X267008Y268177D01*
X267032Y268139D01*
X267110Y267977D01*
X267187Y267895D01*
X267215Y267851D01*
X275289Y259777D01*
X275330Y259747D01*
X275366Y259709D01*
X275437Y259668D01*
X275503Y259620D01*
X275552Y259603D01*
X275596Y259577D01*
X275676Y259559D01*
X275754Y259532D01*
X275806Y259531D01*
X275856Y259519D01*
X275938Y259526D01*
G37*
G36*
X260498Y269324D02*
X260498Y269324D01*
X260580Y269321D01*
X260629Y269335D01*
X260681Y269339D01*
X260757Y269369D01*
X260836Y269391D01*
X260880Y269419D01*
X260928Y269438D01*
X260991Y269490D01*
X261060Y269533D01*
X261094Y269573D01*
X261134Y269605D01*
X261179Y269674D01*
X261232Y269736D01*
X261253Y269784D01*
X261281Y269826D01*
X261293Y269877D01*
X261337Y269981D01*
X261355Y270159D01*
X261365Y270203D01*
X261365Y288717D01*
X261358Y288768D01*
X261359Y288820D01*
X261338Y288899D01*
X261325Y288980D01*
X261303Y289026D01*
X261289Y289076D01*
X261245Y289145D01*
X261210Y289219D01*
X261174Y289257D01*
X261147Y289300D01*
X261084Y289353D01*
X261028Y289413D01*
X260983Y289439D01*
X260944Y289472D01*
X260869Y289505D01*
X260798Y289545D01*
X260747Y289556D01*
X260699Y289577D01*
X260618Y289585D01*
X260538Y289603D01*
X260486Y289599D01*
X260435Y289604D01*
X260355Y289588D01*
X260273Y289581D01*
X260225Y289562D01*
X260211Y289559D01*
X257866Y289559D01*
X257845Y289556D01*
X257824Y289558D01*
X257714Y289536D01*
X257603Y289519D01*
X257584Y289510D01*
X257563Y289506D01*
X257525Y289482D01*
X257364Y289404D01*
X257281Y289327D01*
X257238Y289299D01*
X249589Y281650D01*
X249577Y281634D01*
X249560Y281620D01*
X249498Y281527D01*
X249431Y281436D01*
X249424Y281417D01*
X249413Y281399D01*
X249403Y281355D01*
X249344Y281185D01*
X249340Y281073D01*
X249329Y281022D01*
X249329Y280463D01*
X249332Y280443D01*
X249330Y280422D01*
X249352Y280311D01*
X249369Y280200D01*
X249378Y280182D01*
X249382Y280161D01*
X249406Y280122D01*
X249484Y279961D01*
X249561Y279879D01*
X249589Y279835D01*
X259849Y269575D01*
X259890Y269545D01*
X259926Y269507D01*
X259997Y269466D01*
X260063Y269417D01*
X260112Y269400D01*
X260156Y269375D01*
X260236Y269357D01*
X260314Y269330D01*
X260366Y269328D01*
X260416Y269317D01*
X260498Y269324D01*
G37*
%LPC*%
G36*
X143255Y249173D02*
X143255Y249173D01*
X143255Y255017D01*
X159513Y255017D01*
X159513Y249173D01*
X155073Y249173D01*
X154104Y249433D01*
X153235Y249935D01*
X152526Y250644D01*
X152153Y251289D01*
X152110Y251343D01*
X152076Y251402D01*
X152028Y251446D01*
X151987Y251497D01*
X151931Y251536D01*
X151880Y251582D01*
X151821Y251610D01*
X151767Y251646D01*
X151702Y251666D01*
X151640Y251696D01*
X151575Y251705D01*
X151513Y251724D01*
X151445Y251724D01*
X151377Y251733D01*
X151312Y251723D01*
X151247Y251723D01*
X151182Y251702D01*
X151114Y251691D01*
X151056Y251663D01*
X150994Y251643D01*
X150937Y251604D01*
X150876Y251574D01*
X150845Y251540D01*
X150775Y251492D01*
X150624Y251300D01*
X150615Y251289D01*
X150242Y250644D01*
X149533Y249935D01*
X148664Y249433D01*
X147695Y249173D01*
X143255Y249173D01*
G37*
%LPD*%
%LPC*%
G36*
X17027Y113777D02*
X17027Y113777D01*
X17027Y120541D01*
X25585Y120541D01*
X26231Y120368D01*
X26810Y120033D01*
X27283Y119560D01*
X27618Y118981D01*
X27791Y118335D01*
X27791Y113777D01*
X17027Y113777D01*
G37*
%LPD*%
%LPC*%
G36*
X17027Y169777D02*
X17027Y169777D01*
X17027Y176541D01*
X25585Y176541D01*
X26231Y176368D01*
X26810Y176033D01*
X27283Y175560D01*
X27618Y174981D01*
X27791Y174335D01*
X27791Y169777D01*
X17027Y169777D01*
G37*
%LPD*%
%LPC*%
G36*
X17027Y90777D02*
X17027Y90777D01*
X17027Y97541D01*
X25585Y97541D01*
X26231Y97368D01*
X26810Y97033D01*
X27283Y96560D01*
X27618Y95981D01*
X27791Y95335D01*
X27791Y90777D01*
X17027Y90777D01*
G37*
%LPD*%
%LPC*%
G36*
X17027Y34777D02*
X17027Y34777D01*
X17027Y41541D01*
X25585Y41541D01*
X26231Y41368D01*
X26810Y41033D01*
X27283Y40560D01*
X27618Y39981D01*
X27791Y39335D01*
X27791Y34777D01*
X17027Y34777D01*
G37*
%LPD*%
%LPC*%
G36*
X17027Y24459D02*
X17027Y24459D01*
X17027Y31223D01*
X27791Y31223D01*
X27791Y26665D01*
X27618Y26019D01*
X27283Y25440D01*
X26810Y24967D01*
X26231Y24632D01*
X25585Y24459D01*
X17027Y24459D01*
G37*
%LPD*%
%LPC*%
G36*
X17027Y103459D02*
X17027Y103459D01*
X17027Y110223D01*
X27791Y110223D01*
X27791Y105665D01*
X27618Y105019D01*
X27283Y104440D01*
X26810Y103967D01*
X26231Y103632D01*
X25585Y103459D01*
X17027Y103459D01*
G37*
%LPD*%
%LPC*%
G36*
X17027Y159459D02*
X17027Y159459D01*
X17027Y166223D01*
X27791Y166223D01*
X27791Y161665D01*
X27618Y161019D01*
X27283Y160440D01*
X26810Y159967D01*
X26231Y159632D01*
X25585Y159459D01*
X17027Y159459D01*
G37*
%LPD*%
%LPC*%
G36*
X17027Y80459D02*
X17027Y80459D01*
X17027Y87223D01*
X27791Y87223D01*
X27791Y82665D01*
X27618Y82019D01*
X27283Y81440D01*
X26810Y80967D01*
X26231Y80632D01*
X25585Y80459D01*
X17027Y80459D01*
G37*
%LPD*%
%LPC*%
G36*
X411777Y261177D02*
X411777Y261177D01*
X411777Y270049D01*
X412528Y269930D01*
X414144Y269405D01*
X415658Y268633D01*
X417033Y267635D01*
X418235Y266433D01*
X419233Y265058D01*
X420005Y263544D01*
X420530Y261928D01*
X420649Y261177D01*
X411777Y261177D01*
G37*
%LPD*%
%LPC*%
G36*
X399351Y261177D02*
X399351Y261177D01*
X399470Y261928D01*
X399995Y263544D01*
X400767Y265058D01*
X401765Y266433D01*
X402967Y267635D01*
X404342Y268633D01*
X405856Y269405D01*
X407472Y269930D01*
X408223Y270049D01*
X408223Y261177D01*
X399351Y261177D01*
G37*
%LPD*%
%LPC*%
G36*
X411777Y257623D02*
X411777Y257623D01*
X420649Y257623D01*
X420530Y256872D01*
X420005Y255256D01*
X419233Y253742D01*
X418235Y252367D01*
X417033Y251165D01*
X415658Y250167D01*
X414144Y249395D01*
X412528Y248870D01*
X411777Y248751D01*
X411777Y257623D01*
G37*
%LPD*%
%LPC*%
G36*
X407472Y248870D02*
X407472Y248870D01*
X405856Y249395D01*
X404342Y250167D01*
X402967Y251165D01*
X401765Y252367D01*
X400767Y253742D01*
X399995Y255256D01*
X399470Y256872D01*
X399351Y257623D01*
X408223Y257623D01*
X408223Y248751D01*
X407472Y248870D01*
G37*
%LPD*%
%LPC*%
G36*
X319531Y255777D02*
X319531Y255777D01*
X319531Y267209D01*
X324740Y267209D01*
X324740Y265171D01*
X324491Y264243D01*
X324010Y263410D01*
X323330Y262730D01*
X322520Y262262D01*
X322466Y262219D01*
X322407Y262185D01*
X322363Y262137D01*
X322312Y262096D01*
X322274Y262040D01*
X322227Y261989D01*
X322199Y261930D01*
X322163Y261876D01*
X322143Y261811D01*
X322114Y261749D01*
X322104Y261684D01*
X322085Y261622D01*
X322086Y261554D01*
X322076Y261486D01*
X322086Y261421D01*
X322086Y261356D01*
X322107Y261291D01*
X322118Y261223D01*
X322147Y261165D01*
X322166Y261103D01*
X322205Y261046D01*
X322236Y260985D01*
X322269Y260954D01*
X322317Y260884D01*
X322510Y260733D01*
X322520Y260724D01*
X323330Y260256D01*
X324010Y259576D01*
X324491Y258743D01*
X324740Y257815D01*
X324740Y255777D01*
X319531Y255777D01*
G37*
%LPD*%
%LPC*%
G36*
X310768Y255777D02*
X310768Y255777D01*
X310768Y257815D01*
X311017Y258743D01*
X311498Y259576D01*
X312178Y260256D01*
X312988Y260724D01*
X313042Y260767D01*
X313101Y260801D01*
X313145Y260849D01*
X313196Y260890D01*
X313234Y260946D01*
X313281Y260997D01*
X313309Y261056D01*
X313345Y261110D01*
X313365Y261175D01*
X313394Y261237D01*
X313404Y261302D01*
X313423Y261364D01*
X313422Y261432D01*
X313432Y261500D01*
X313422Y261565D01*
X313422Y261630D01*
X313401Y261695D01*
X313390Y261763D01*
X313361Y261821D01*
X313342Y261883D01*
X313303Y261940D01*
X313272Y262001D01*
X313239Y262032D01*
X313191Y262102D01*
X312998Y262253D01*
X312988Y262262D01*
X312178Y262730D01*
X311498Y263410D01*
X311017Y264243D01*
X310768Y265171D01*
X310768Y267209D01*
X315977Y267209D01*
X315977Y255777D01*
X310768Y255777D01*
G37*
%LPD*%
%LPC*%
G36*
X9905Y273303D02*
X9905Y273303D01*
X9905Y277743D01*
X10165Y278712D01*
X10667Y279581D01*
X11376Y280290D01*
X12245Y280792D01*
X13214Y281052D01*
X15749Y281052D01*
X15749Y273303D01*
X9905Y273303D01*
G37*
%LPD*%
%LPC*%
G36*
X13214Y262000D02*
X13214Y262000D01*
X12245Y262260D01*
X11376Y262762D01*
X10667Y263471D01*
X10165Y264340D01*
X9905Y265309D01*
X9905Y269749D01*
X15749Y269749D01*
X15749Y262000D01*
X13214Y262000D01*
G37*
%LPD*%
%LPC*%
G36*
X135261Y249173D02*
X135261Y249173D01*
X134292Y249433D01*
X133423Y249935D01*
X132714Y250644D01*
X132212Y251513D01*
X131952Y252482D01*
X131952Y255017D01*
X139701Y255017D01*
X139701Y249173D01*
X135261Y249173D01*
G37*
%LPD*%
%LPC*%
G36*
X53499Y156499D02*
X53499Y156499D01*
X53499Y160541D01*
X59085Y160541D01*
X59731Y160368D01*
X60310Y160033D01*
X60783Y159560D01*
X61118Y158981D01*
X61291Y158335D01*
X61291Y156499D01*
X53499Y156499D01*
G37*
%LPD*%
%LPC*%
G36*
X53499Y77499D02*
X53499Y77499D01*
X53499Y81541D01*
X59085Y81541D01*
X59731Y81368D01*
X60310Y81033D01*
X60783Y80560D01*
X61118Y79981D01*
X61291Y79335D01*
X61291Y77499D01*
X53499Y77499D01*
G37*
%LPD*%
%LPC*%
G36*
X42709Y156499D02*
X42709Y156499D01*
X42709Y158335D01*
X42882Y158981D01*
X43217Y159560D01*
X43690Y160033D01*
X44269Y160368D01*
X44915Y160541D01*
X50501Y160541D01*
X50501Y156499D01*
X42709Y156499D01*
G37*
%LPD*%
%LPC*%
G36*
X42709Y77499D02*
X42709Y77499D01*
X42709Y79335D01*
X42882Y79981D01*
X43217Y80560D01*
X43690Y81033D01*
X44269Y81368D01*
X44915Y81541D01*
X50501Y81541D01*
X50501Y77499D01*
X42709Y77499D01*
G37*
%LPD*%
%LPC*%
G36*
X116077Y310387D02*
X116077Y310387D01*
X116077Y315596D01*
X118115Y315596D01*
X119043Y315347D01*
X119876Y314866D01*
X120556Y314186D01*
X121037Y313353D01*
X121286Y312425D01*
X121286Y310387D01*
X116077Y310387D01*
G37*
%LPD*%
%LPC*%
G36*
X151383Y307847D02*
X151383Y307847D01*
X151383Y313056D01*
X153421Y313056D01*
X154349Y312807D01*
X155182Y312326D01*
X155862Y311646D01*
X156343Y310813D01*
X156592Y309885D01*
X156592Y307847D01*
X151383Y307847D01*
G37*
%LPD*%
%LPC*%
G36*
X319531Y270763D02*
X319531Y270763D01*
X319531Y275972D01*
X321569Y275972D01*
X322497Y275723D01*
X323330Y275242D01*
X324010Y274562D01*
X324491Y273729D01*
X324740Y272801D01*
X324740Y270763D01*
X319531Y270763D01*
G37*
%LPD*%
%LPC*%
G36*
X151383Y299084D02*
X151383Y299084D01*
X151383Y304293D01*
X156592Y304293D01*
X156592Y302255D01*
X156343Y301327D01*
X155862Y300494D01*
X155182Y299814D01*
X154349Y299333D01*
X153421Y299084D01*
X151383Y299084D01*
G37*
%LPD*%
%LPC*%
G36*
X142620Y307847D02*
X142620Y307847D01*
X142620Y309885D01*
X142869Y310813D01*
X143350Y311646D01*
X144030Y312326D01*
X144863Y312807D01*
X145791Y313056D01*
X147829Y313056D01*
X147829Y307847D01*
X142620Y307847D01*
G37*
%LPD*%
%LPC*%
G36*
X107314Y310387D02*
X107314Y310387D01*
X107314Y312425D01*
X107563Y313353D01*
X108044Y314186D01*
X108724Y314866D01*
X109557Y315347D01*
X110485Y315596D01*
X112523Y315596D01*
X112523Y310387D01*
X107314Y310387D01*
G37*
%LPD*%
%LPC*%
G36*
X180339Y252348D02*
X180339Y252348D01*
X180339Y257557D01*
X185548Y257557D01*
X185548Y255519D01*
X185299Y254591D01*
X184818Y253758D01*
X184138Y253078D01*
X183305Y252597D01*
X182377Y252348D01*
X180339Y252348D01*
G37*
%LPD*%
%LPC*%
G36*
X310768Y270763D02*
X310768Y270763D01*
X310768Y272801D01*
X311017Y273729D01*
X311498Y274562D01*
X312178Y275242D01*
X313011Y275723D01*
X313939Y275972D01*
X315977Y275972D01*
X315977Y270763D01*
X310768Y270763D01*
G37*
%LPD*%
%LPC*%
G36*
X319531Y247014D02*
X319531Y247014D01*
X319531Y252223D01*
X324740Y252223D01*
X324740Y250185D01*
X324491Y249257D01*
X324010Y248424D01*
X323330Y247744D01*
X322497Y247263D01*
X321569Y247014D01*
X319531Y247014D01*
G37*
%LPD*%
%LPC*%
G36*
X145791Y299084D02*
X145791Y299084D01*
X144863Y299333D01*
X144030Y299814D01*
X143350Y300494D01*
X142869Y301327D01*
X142620Y302255D01*
X142620Y304293D01*
X147829Y304293D01*
X147829Y299084D01*
X145791Y299084D01*
G37*
%LPD*%
%LPC*%
G36*
X313939Y247014D02*
X313939Y247014D01*
X313011Y247263D01*
X312178Y247744D01*
X311498Y248424D01*
X311017Y249257D01*
X310768Y250185D01*
X310768Y252223D01*
X315977Y252223D01*
X315977Y247014D01*
X313939Y247014D01*
G37*
%LPD*%
%LPC*%
G36*
X409999Y259399D02*
X409999Y259399D01*
X409999Y259401D01*
X410001Y259401D01*
X410001Y259399D01*
X409999Y259399D01*
G37*
%LPD*%
%LPC*%
G36*
X317753Y268985D02*
X317753Y268985D01*
X317753Y268987D01*
X317755Y268987D01*
X317755Y268985D01*
X317753Y268985D01*
G37*
%LPD*%
%LPC*%
G36*
X149605Y306069D02*
X149605Y306069D01*
X149605Y306071D01*
X149607Y306071D01*
X149607Y306069D01*
X149605Y306069D01*
G37*
%LPD*%
%LPC*%
G36*
X317753Y253999D02*
X317753Y253999D01*
X317753Y254001D01*
X317755Y254001D01*
X317755Y253999D01*
X317753Y253999D01*
G37*
%LPD*%
D10*
X321088Y250666D02*
X314420Y250666D01*
X314420Y257334D01*
X321088Y257334D01*
X321088Y250666D01*
X321088Y252778D02*
X314420Y252778D01*
X314420Y254890D02*
X321088Y254890D01*
X321088Y257002D02*
X314420Y257002D01*
X329660Y250666D02*
X336328Y250666D01*
X329660Y250666D02*
X329660Y257334D01*
X336328Y257334D01*
X336328Y250666D01*
X336328Y252778D02*
X329660Y252778D01*
X329660Y254890D02*
X336328Y254890D01*
X336328Y257002D02*
X329660Y257002D01*
X321088Y265652D02*
X314420Y265652D01*
X314420Y272320D01*
X321088Y272320D01*
X321088Y265652D01*
X321088Y267764D02*
X314420Y267764D01*
X314420Y269876D02*
X321088Y269876D01*
X321088Y271988D02*
X314420Y271988D01*
X329660Y265652D02*
X336328Y265652D01*
X329660Y265652D02*
X329660Y272320D01*
X336328Y272320D01*
X336328Y265652D01*
X336328Y267764D02*
X329660Y267764D01*
X329660Y269876D02*
X336328Y269876D01*
X336328Y271988D02*
X329660Y271988D01*
D11*
X52000Y155000D03*
X52000Y145000D03*
X52000Y135000D03*
X52000Y125000D03*
D12*
X15250Y112000D03*
X15250Y168000D03*
D11*
X52000Y76000D03*
X52000Y66000D03*
X52000Y56000D03*
X52000Y46000D03*
D12*
X15250Y33000D03*
X15250Y89000D03*
D13*
X142494Y12700D03*
X142494Y20828D03*
X142494Y28956D03*
D14*
X142494Y20828D02*
X142494Y12446D01*
X142494Y20828D02*
X142494Y29464D01*
D10*
X104934Y25622D02*
X98266Y25622D01*
X98266Y32290D01*
X104934Y32290D01*
X104934Y25622D01*
X104934Y27734D02*
X98266Y27734D01*
X98266Y29846D02*
X104934Y29846D01*
X104934Y31958D02*
X98266Y31958D01*
X113506Y25622D02*
X120174Y25622D01*
X113506Y25622D02*
X113506Y32290D01*
X120174Y32290D01*
X120174Y25622D01*
X120174Y27734D02*
X113506Y27734D01*
X113506Y29846D02*
X120174Y29846D01*
X120174Y31958D02*
X113506Y31958D01*
X104934Y9366D02*
X98266Y9366D01*
X98266Y16034D01*
X104934Y16034D01*
X104934Y9366D01*
X104934Y11478D02*
X98266Y11478D01*
X98266Y13590D02*
X104934Y13590D01*
X104934Y15702D02*
X98266Y15702D01*
X113506Y9366D02*
X120174Y9366D01*
X113506Y9366D02*
X113506Y16034D01*
X120174Y16034D01*
X120174Y9366D01*
X120174Y11478D02*
X113506Y11478D01*
X113506Y13590D02*
X120174Y13590D01*
X120174Y15702D02*
X113506Y15702D01*
D15*
X330400Y301350D03*
X330400Y288650D03*
X317700Y301350D03*
X317700Y288650D03*
X305000Y301350D03*
X305000Y288650D03*
X292300Y301350D03*
X292300Y288650D03*
X279600Y301350D03*
X279600Y288650D03*
D16*
X168339Y303212D02*
X168339Y308928D01*
X168339Y303212D02*
X161353Y303212D01*
X161353Y308928D01*
X168339Y308928D01*
X168339Y305022D02*
X161353Y305022D01*
X161353Y306832D02*
X168339Y306832D01*
X168339Y308642D02*
X161353Y308642D01*
X168339Y318452D02*
X168339Y324168D01*
X168339Y318452D02*
X161353Y318452D01*
X161353Y324168D01*
X168339Y324168D01*
X168339Y320262D02*
X161353Y320262D01*
X161353Y322072D02*
X168339Y322072D01*
X168339Y323882D02*
X161353Y323882D01*
D10*
X152940Y309404D02*
X152940Y302736D01*
X146272Y302736D01*
X146272Y309404D01*
X152940Y309404D01*
X152940Y304848D02*
X146272Y304848D01*
X146272Y306960D02*
X152940Y306960D01*
X152940Y309072D02*
X146272Y309072D01*
X152940Y317976D02*
X152940Y324644D01*
X152940Y317976D02*
X146272Y317976D01*
X146272Y324644D01*
X152940Y324644D01*
X152940Y320088D02*
X146272Y320088D01*
X146272Y322200D02*
X152940Y322200D01*
X152940Y324312D02*
X146272Y324312D01*
D17*
X410000Y107000D03*
D18*
X410000Y132400D03*
X410000Y157800D03*
X410000Y183200D03*
X410000Y208600D03*
X410000Y234000D03*
X410000Y259400D03*
D19*
X82550Y258826D03*
X82550Y268224D03*
X82550Y277622D03*
X59690Y277622D03*
X59690Y268224D03*
X59690Y258826D03*
D20*
X58616Y206500D02*
X53116Y206500D01*
X53116Y238000D01*
X58616Y238000D01*
X58616Y206500D01*
X58616Y211725D02*
X53116Y211725D01*
X53116Y216950D02*
X58616Y216950D01*
X58616Y222175D02*
X53116Y222175D01*
X53116Y227400D02*
X58616Y227400D01*
X58616Y232625D02*
X53116Y232625D01*
X53116Y237850D02*
X58616Y237850D01*
X83116Y206500D02*
X88616Y206500D01*
X83116Y206500D02*
X83116Y238000D01*
X88616Y238000D01*
X88616Y206500D01*
X88616Y211725D02*
X83116Y211725D01*
X83116Y216950D02*
X88616Y216950D01*
X88616Y222175D02*
X83116Y222175D01*
X83116Y227400D02*
X88616Y227400D01*
X88616Y232625D02*
X83116Y232625D01*
X83116Y237850D02*
X88616Y237850D01*
D21*
X112776Y273150D03*
X112776Y222150D03*
D22*
X39116Y277241D02*
X31496Y277241D01*
X39116Y277241D02*
X39116Y265811D01*
X31496Y265811D01*
X31496Y277241D01*
X31496Y268224D02*
X39116Y268224D01*
X39116Y270637D02*
X31496Y270637D01*
X31496Y273050D02*
X39116Y273050D01*
X39116Y275463D02*
X31496Y275463D01*
X21336Y277241D02*
X13716Y277241D01*
X21336Y277241D02*
X21336Y265811D01*
X13716Y265811D01*
X13716Y277241D01*
X13716Y268224D02*
X21336Y268224D01*
X21336Y270637D02*
X13716Y270637D01*
X13716Y273050D02*
X21336Y273050D01*
X21336Y275463D02*
X13716Y275463D01*
X135763Y278384D02*
X135763Y270764D01*
X135763Y278384D02*
X147193Y278384D01*
X147193Y270764D01*
X135763Y270764D01*
X135763Y273177D02*
X147193Y273177D01*
X147193Y275590D02*
X135763Y275590D01*
X135763Y278003D02*
X147193Y278003D01*
X135763Y260604D02*
X135763Y252984D01*
X135763Y260604D02*
X147193Y260604D01*
X147193Y252984D01*
X135763Y252984D01*
X135763Y255397D02*
X147193Y255397D01*
X147193Y257810D02*
X135763Y257810D01*
X135763Y260223D02*
X147193Y260223D01*
D10*
X102394Y290544D02*
X95726Y290544D01*
X95726Y297212D01*
X102394Y297212D01*
X102394Y290544D01*
X102394Y292656D02*
X95726Y292656D01*
X95726Y294768D02*
X102394Y294768D01*
X102394Y296880D02*
X95726Y296880D01*
X110966Y290544D02*
X117634Y290544D01*
X110966Y290544D02*
X110966Y297212D01*
X117634Y297212D01*
X117634Y290544D01*
X117634Y292656D02*
X110966Y292656D01*
X110966Y294768D02*
X117634Y294768D01*
X117634Y296880D02*
X110966Y296880D01*
X110966Y311944D02*
X117634Y311944D01*
X117634Y305276D01*
X110966Y305276D01*
X110966Y311944D01*
X110966Y307388D02*
X117634Y307388D01*
X117634Y309500D02*
X110966Y309500D01*
X110966Y311612D02*
X117634Y311612D01*
X102394Y311944D02*
X95726Y311944D01*
X102394Y311944D02*
X102394Y305276D01*
X95726Y305276D01*
X95726Y311944D01*
X95726Y307388D02*
X102394Y307388D01*
X102394Y309500D02*
X95726Y309500D01*
X95726Y311612D02*
X102394Y311612D01*
X175228Y277908D02*
X175228Y271240D01*
X175228Y277908D02*
X181896Y277908D01*
X181896Y271240D01*
X175228Y271240D01*
X175228Y273352D02*
X181896Y273352D01*
X181896Y275464D02*
X175228Y275464D01*
X175228Y277576D02*
X181896Y277576D01*
X175228Y262668D02*
X175228Y256000D01*
X175228Y262668D02*
X181896Y262668D01*
X181896Y256000D01*
X175228Y256000D01*
X175228Y258112D02*
X181896Y258112D01*
X181896Y260224D02*
X175228Y260224D01*
X175228Y262336D02*
X181896Y262336D01*
D22*
X155575Y270764D02*
X155575Y278384D01*
X167005Y278384D01*
X167005Y270764D01*
X155575Y270764D01*
X155575Y273177D02*
X167005Y273177D01*
X167005Y275590D02*
X155575Y275590D01*
X155575Y278003D02*
X167005Y278003D01*
X155575Y260604D02*
X155575Y252984D01*
X155575Y260604D02*
X167005Y260604D01*
X167005Y252984D01*
X155575Y252984D01*
X155575Y255397D02*
X167005Y255397D01*
X167005Y257810D02*
X155575Y257810D01*
X155575Y260223D02*
X167005Y260223D01*
D14*
X86582Y125000D02*
X52000Y125000D01*
D23*
X258064Y294386D03*
D14*
X88646Y125000D02*
X86582Y125000D01*
X88646Y125000D02*
X88986Y125000D01*
X258064Y294078D02*
X258064Y294386D01*
X258064Y294078D02*
X246534Y282548D01*
X242924Y278938D01*
X242597Y278611D02*
X88986Y125000D01*
X74930Y46000D02*
X52000Y46000D01*
X74930Y46000D02*
X76734Y46000D01*
X88646Y57912D02*
X88646Y122936D01*
X88646Y125000D01*
X88646Y57912D02*
X76734Y46000D01*
X88646Y122936D02*
X86582Y125000D01*
X84836Y28956D02*
X101600Y28956D01*
X76734Y37058D02*
X76734Y43942D01*
X76734Y46000D01*
X76734Y37058D02*
X84836Y28956D01*
X76734Y43942D02*
X74930Y45746D01*
X74930Y46000D01*
X332432Y193040D02*
X400304Y193040D01*
X410000Y183344D02*
X410000Y183200D01*
X410000Y183344D02*
X400304Y193040D01*
X246534Y278938D02*
X246534Y282548D01*
X246534Y278938D02*
X332432Y193040D01*
X246534Y278938D02*
X242924Y278938D01*
X242597Y278611D01*
X78232Y135000D02*
X52000Y135000D01*
X78232Y135000D02*
X89788Y135000D01*
X256138Y301350D02*
X262128Y301350D01*
X266192Y301350D01*
X279600Y301350D01*
X256138Y301350D02*
X89788Y135000D01*
X78112Y56000D02*
X52000Y56000D01*
X78112Y56000D02*
X78232Y55880D01*
D23*
X78232Y55880D03*
X78232Y135000D03*
D14*
X52000Y56000D02*
X47872Y56000D01*
X40894Y49022D01*
X40894Y42926D01*
X71120Y12700D02*
X101600Y12700D01*
X71120Y12700D02*
X40894Y42926D01*
X264160Y299318D02*
X262128Y301350D01*
X264160Y299318D02*
X264160Y266954D01*
X264160Y299318D02*
X266192Y301350D01*
X398504Y197104D02*
X410000Y208600D01*
X398504Y197104D02*
X334010Y197104D01*
X264160Y266954D01*
X279600Y256902D02*
X279600Y288650D01*
X333302Y203200D02*
X350520Y203200D01*
D23*
X350520Y203200D03*
D14*
X333302Y203200D02*
X279600Y256902D01*
D23*
X332994Y243586D03*
D24*
X332994Y254000D01*
X332994Y268986D01*
X330400Y271580D01*
X330400Y288650D01*
X330400Y301350D01*
X114300Y293878D02*
X114300Y274674D01*
X112776Y273150D01*
X114200Y274574D01*
X141478Y274574D01*
X161290Y274574D01*
X178562Y274574D01*
X164846Y278130D02*
X164846Y306070D01*
X164846Y278130D02*
X161290Y274574D01*
D25*
X178562Y274574D02*
X191770Y274574D01*
D23*
X191770Y274574D03*
X15240Y71120D03*
X15240Y58420D03*
X15240Y48260D03*
X53340Y96520D03*
X53340Y106680D03*
X63500Y106680D03*
X63500Y96520D03*
X15240Y152400D03*
X15240Y139700D03*
X15240Y127000D03*
X9144Y195834D03*
X9144Y208026D03*
X9144Y220218D03*
X22352Y183388D03*
X9144Y183388D03*
X287020Y274320D03*
X294640Y274320D03*
X302260Y274320D03*
X289560Y266700D03*
X297180Y266700D03*
X304800Y266700D03*
X430276Y112268D03*
X430276Y122428D03*
X430276Y132588D03*
X430276Y142748D03*
X430276Y102108D03*
D25*
X317700Y288650D02*
X317700Y301350D01*
X317700Y288650D02*
X317700Y268986D01*
X317754Y268986D01*
D23*
X14224Y291338D03*
X26924Y291338D03*
X39624Y291338D03*
X52324Y291338D03*
X65024Y291338D03*
X131064Y293878D03*
X143764Y293878D03*
X156464Y293878D03*
X141224Y243078D03*
X151384Y243078D03*
X161544Y243078D03*
X171704Y243078D03*
X181864Y245618D03*
X70104Y235458D03*
X70104Y248158D03*
X271526Y273812D03*
X256540Y280924D03*
D24*
X36576Y190246D02*
X36576Y147574D01*
X36576Y142426D01*
X36576Y68580D01*
X36576Y63420D01*
X36576Y31496D01*
X128270Y20828D02*
X142494Y20828D01*
D23*
X128270Y20828D03*
X44196Y23876D03*
D24*
X36576Y31496D01*
X39156Y66000D02*
X52000Y66000D01*
X39156Y66000D02*
X36576Y68580D01*
X39156Y66000D02*
X36576Y63420D01*
X55866Y209536D02*
X55866Y222250D01*
X35306Y255778D02*
X35306Y271526D01*
X55866Y235218D02*
X55866Y224536D01*
X55866Y222250D01*
X55866Y235218D02*
X35306Y255778D01*
X38608Y268224D02*
X35306Y271526D01*
X38608Y268224D02*
X59690Y268224D01*
X59690Y277622D01*
X52000Y145000D02*
X39150Y145000D01*
X36576Y147574D01*
X39150Y145000D02*
X36576Y142426D01*
D25*
X316804Y234000D02*
X410000Y234000D01*
X316804Y234000D02*
X316738Y233934D01*
D23*
X316738Y233934D03*
X36576Y190246D03*
D25*
X55866Y209536D01*
X55866Y224536D01*
D14*
X116840Y28956D02*
X142494Y28956D01*
X142494Y12700D02*
X116840Y12700D01*
D24*
X149606Y321310D02*
X164846Y321310D01*
X85866Y255510D02*
X82550Y258826D01*
X85866Y255510D02*
X85866Y222250D01*
X112676Y222250D01*
X112776Y222150D01*
X82550Y277622D02*
X98806Y293878D01*
X99060Y293878D01*
X99060Y308610D01*
M02*
