G04 EAGLE Gerber RS-274X export*
G75*
%MOMM*%
%FSLAX34Y34*%
%LPD*%
%INSoldermask Top*%
%IPPOS*%
%AMOC8*
5,1,8,0,0,1.08239X$1,22.5*%
G01*
%ADD10C,2.101600*%
%ADD11C,3.101600*%
%ADD12C,0.326897*%
%ADD13R,1.451600X0.701600*%
%ADD14R,2.101600X1.301600*%
%ADD15R,1.371600X0.736600*%
%ADD16C,0.203200*%
%ADD17C,1.159600*%
%ADD18C,0.293622*%
%ADD19R,1.752600X1.752600*%
%ADD20C,1.752600*%
%ADD21R,1.117600X0.609600*%
%ADD22C,0.648863*%
%ADD23R,2.301600X1.901600*%
%ADD24C,0.357631*%


D10*
X25000Y325000D03*
X355000Y25000D03*
D11*
X410000Y56200D03*
X410000Y310200D03*
D12*
X321073Y250681D02*
X314435Y250681D01*
X314435Y257319D01*
X321073Y257319D01*
X321073Y250681D01*
X321073Y253787D02*
X314435Y253787D01*
X314435Y256893D02*
X321073Y256893D01*
X329675Y250681D02*
X336313Y250681D01*
X329675Y250681D02*
X329675Y257319D01*
X336313Y257319D01*
X336313Y250681D01*
X336313Y253787D02*
X329675Y253787D01*
X329675Y256893D02*
X336313Y256893D01*
X321073Y265667D02*
X314435Y265667D01*
X314435Y272305D01*
X321073Y272305D01*
X321073Y265667D01*
X321073Y268773D02*
X314435Y268773D01*
X314435Y271879D02*
X321073Y271879D01*
X329675Y265667D02*
X336313Y265667D01*
X329675Y265667D02*
X329675Y272305D01*
X336313Y272305D01*
X336313Y265667D01*
X336313Y268773D02*
X329675Y268773D01*
X329675Y271879D02*
X336313Y271879D01*
D13*
X52000Y155000D03*
X52000Y145000D03*
X52000Y135000D03*
X52000Y125000D03*
D14*
X15250Y112000D03*
X15250Y168000D03*
D13*
X52000Y76000D03*
X52000Y66000D03*
X52000Y56000D03*
X52000Y46000D03*
D14*
X15250Y33000D03*
X15250Y89000D03*
D15*
X142494Y12700D03*
X142494Y20828D03*
X142494Y28956D03*
D16*
X142494Y29718D02*
X142494Y12192D01*
D12*
X104919Y25637D02*
X98281Y25637D01*
X98281Y32275D01*
X104919Y32275D01*
X104919Y25637D01*
X104919Y28743D02*
X98281Y28743D01*
X98281Y31849D02*
X104919Y31849D01*
X113521Y25637D02*
X120159Y25637D01*
X113521Y25637D02*
X113521Y32275D01*
X120159Y32275D01*
X120159Y25637D01*
X120159Y28743D02*
X113521Y28743D01*
X113521Y31849D02*
X120159Y31849D01*
X104919Y9381D02*
X98281Y9381D01*
X98281Y16019D01*
X104919Y16019D01*
X104919Y9381D01*
X104919Y12487D02*
X98281Y12487D01*
X98281Y15593D02*
X104919Y15593D01*
X113521Y9381D02*
X120159Y9381D01*
X113521Y9381D02*
X113521Y16019D01*
X120159Y16019D01*
X120159Y9381D01*
X120159Y12487D02*
X113521Y12487D01*
X113521Y15593D02*
X120159Y15593D01*
D17*
X330400Y301350D03*
X330400Y288650D03*
X317700Y301350D03*
X317700Y288650D03*
X305000Y301350D03*
X305000Y288650D03*
X292300Y301350D03*
X292300Y288650D03*
X279600Y301350D03*
X279600Y288650D03*
D18*
X168331Y303220D02*
X168331Y308920D01*
X168331Y303220D02*
X161361Y303220D01*
X161361Y308920D01*
X168331Y308920D01*
X168331Y306009D02*
X161361Y306009D01*
X161361Y308798D02*
X168331Y308798D01*
X168331Y318460D02*
X168331Y324160D01*
X168331Y318460D02*
X161361Y318460D01*
X161361Y324160D01*
X168331Y324160D01*
X168331Y321249D02*
X161361Y321249D01*
X161361Y324038D02*
X168331Y324038D01*
D12*
X152925Y309389D02*
X152925Y302751D01*
X146287Y302751D01*
X146287Y309389D01*
X152925Y309389D01*
X152925Y305857D02*
X146287Y305857D01*
X146287Y308963D02*
X152925Y308963D01*
X152925Y317991D02*
X152925Y324629D01*
X152925Y317991D02*
X146287Y317991D01*
X146287Y324629D01*
X152925Y324629D01*
X152925Y321097D02*
X146287Y321097D01*
X146287Y324203D02*
X152925Y324203D01*
D19*
X410000Y107000D03*
D20*
X410000Y132400D03*
X410000Y157800D03*
X410000Y183200D03*
X410000Y208600D03*
X410000Y234000D03*
X410000Y259400D03*
D21*
X82550Y258826D03*
X82550Y268224D03*
X82550Y277622D03*
X59690Y277622D03*
X59690Y268224D03*
X59690Y258826D03*
D22*
X58630Y206486D02*
X53102Y206486D01*
X53102Y238014D01*
X58630Y238014D01*
X58630Y206486D01*
X58630Y212651D02*
X53102Y212651D01*
X53102Y218816D02*
X58630Y218816D01*
X58630Y224981D02*
X53102Y224981D01*
X53102Y231146D02*
X58630Y231146D01*
X58630Y237311D02*
X53102Y237311D01*
X83102Y206486D02*
X88630Y206486D01*
X83102Y206486D02*
X83102Y238014D01*
X88630Y238014D01*
X88630Y206486D01*
X88630Y212651D02*
X83102Y212651D01*
X83102Y218816D02*
X88630Y218816D01*
X88630Y224981D02*
X83102Y224981D01*
X83102Y231146D02*
X88630Y231146D01*
X88630Y237311D02*
X83102Y237311D01*
D23*
X112776Y273150D03*
X112776Y222150D03*
D24*
X39106Y277231D02*
X31506Y277231D01*
X39106Y277231D02*
X39106Y265821D01*
X31506Y265821D01*
X31506Y277231D01*
X31506Y269218D02*
X39106Y269218D01*
X39106Y272615D02*
X31506Y272615D01*
X31506Y276012D02*
X39106Y276012D01*
X21326Y277231D02*
X13726Y277231D01*
X21326Y277231D02*
X21326Y265821D01*
X13726Y265821D01*
X13726Y277231D01*
X13726Y269218D02*
X21326Y269218D01*
X21326Y272615D02*
X13726Y272615D01*
X13726Y276012D02*
X21326Y276012D01*
X135773Y278374D02*
X135773Y270774D01*
X135773Y278374D02*
X147183Y278374D01*
X147183Y270774D01*
X135773Y270774D01*
X135773Y274171D02*
X147183Y274171D01*
X147183Y277568D02*
X135773Y277568D01*
X135773Y260594D02*
X135773Y252994D01*
X135773Y260594D02*
X147183Y260594D01*
X147183Y252994D01*
X135773Y252994D01*
X135773Y256391D02*
X147183Y256391D01*
X147183Y259788D02*
X135773Y259788D01*
D12*
X102379Y290559D02*
X95741Y290559D01*
X95741Y297197D01*
X102379Y297197D01*
X102379Y290559D01*
X102379Y293665D02*
X95741Y293665D01*
X95741Y296771D02*
X102379Y296771D01*
X110981Y290559D02*
X117619Y290559D01*
X110981Y290559D02*
X110981Y297197D01*
X117619Y297197D01*
X117619Y290559D01*
X117619Y293665D02*
X110981Y293665D01*
X110981Y296771D02*
X117619Y296771D01*
X117619Y311929D02*
X110981Y311929D01*
X117619Y311929D02*
X117619Y305291D01*
X110981Y305291D01*
X110981Y311929D01*
X110981Y308397D02*
X117619Y308397D01*
X117619Y311503D02*
X110981Y311503D01*
X102379Y311929D02*
X95741Y311929D01*
X102379Y311929D02*
X102379Y305291D01*
X95741Y305291D01*
X95741Y311929D01*
X95741Y308397D02*
X102379Y308397D01*
X102379Y311503D02*
X95741Y311503D01*
X175243Y277893D02*
X175243Y271255D01*
X175243Y277893D02*
X181881Y277893D01*
X181881Y271255D01*
X175243Y271255D01*
X175243Y274361D02*
X181881Y274361D01*
X181881Y277467D02*
X175243Y277467D01*
X175243Y262653D02*
X175243Y256015D01*
X175243Y262653D02*
X181881Y262653D01*
X181881Y256015D01*
X175243Y256015D01*
X175243Y259121D02*
X181881Y259121D01*
X181881Y262227D02*
X175243Y262227D01*
D24*
X155585Y270774D02*
X155585Y278374D01*
X166995Y278374D01*
X166995Y270774D01*
X155585Y270774D01*
X155585Y274171D02*
X166995Y274171D01*
X166995Y277568D02*
X155585Y277568D01*
X155585Y260594D02*
X155585Y252994D01*
X155585Y260594D02*
X166995Y260594D01*
X166995Y252994D01*
X155585Y252994D01*
X155585Y256391D02*
X166995Y256391D01*
X166995Y259788D02*
X155585Y259788D01*
M02*
