G04 EAGLE Gerber RS-274X export*
G75*
%MOMM*%
%FSLAX34Y34*%
%LPD*%
%INSolderpaste Top*%
%IPPOS*%
%AMOC8*
5,1,8,0,0,1.08239X$1,22.5*%
G01*
%ADD10C,0.222250*%
%ADD11R,1.350000X0.600000*%
%ADD12R,2.000000X1.200000*%
%ADD13C,0.190500*%
%ADD14R,1.016000X0.508000*%
%ADD15C,0.550000*%
%ADD16R,2.200000X1.800000*%
%ADD17C,0.254000*%


D10*
X321088Y250666D02*
X314420Y250666D01*
X314420Y257334D01*
X321088Y257334D01*
X321088Y250666D01*
X321088Y252778D02*
X314420Y252778D01*
X314420Y254890D02*
X321088Y254890D01*
X321088Y257002D02*
X314420Y257002D01*
X329660Y250666D02*
X336328Y250666D01*
X329660Y250666D02*
X329660Y257334D01*
X336328Y257334D01*
X336328Y250666D01*
X336328Y252778D02*
X329660Y252778D01*
X329660Y254890D02*
X336328Y254890D01*
X336328Y257002D02*
X329660Y257002D01*
X321088Y265652D02*
X314420Y265652D01*
X314420Y272320D01*
X321088Y272320D01*
X321088Y265652D01*
X321088Y267764D02*
X314420Y267764D01*
X314420Y269876D02*
X321088Y269876D01*
X321088Y271988D02*
X314420Y271988D01*
X329660Y265652D02*
X336328Y265652D01*
X329660Y265652D02*
X329660Y272320D01*
X336328Y272320D01*
X336328Y265652D01*
X336328Y267764D02*
X329660Y267764D01*
X329660Y269876D02*
X336328Y269876D01*
X336328Y271988D02*
X329660Y271988D01*
D11*
X52000Y155000D03*
X52000Y145000D03*
X52000Y135000D03*
X52000Y125000D03*
D12*
X15250Y112000D03*
X15250Y168000D03*
D11*
X52000Y76000D03*
X52000Y66000D03*
X52000Y56000D03*
X52000Y46000D03*
D12*
X15250Y33000D03*
X15250Y89000D03*
D10*
X98266Y25622D02*
X104934Y25622D01*
X98266Y25622D02*
X98266Y32290D01*
X104934Y32290D01*
X104934Y25622D01*
X104934Y27734D02*
X98266Y27734D01*
X98266Y29846D02*
X104934Y29846D01*
X104934Y31958D02*
X98266Y31958D01*
X113506Y25622D02*
X120174Y25622D01*
X113506Y25622D02*
X113506Y32290D01*
X120174Y32290D01*
X120174Y25622D01*
X120174Y27734D02*
X113506Y27734D01*
X113506Y29846D02*
X120174Y29846D01*
X120174Y31958D02*
X113506Y31958D01*
X104934Y9366D02*
X98266Y9366D01*
X98266Y16034D01*
X104934Y16034D01*
X104934Y9366D01*
X104934Y11478D02*
X98266Y11478D01*
X98266Y13590D02*
X104934Y13590D01*
X104934Y15702D02*
X98266Y15702D01*
X113506Y9366D02*
X120174Y9366D01*
X113506Y9366D02*
X113506Y16034D01*
X120174Y16034D01*
X120174Y9366D01*
X120174Y11478D02*
X113506Y11478D01*
X113506Y13590D02*
X120174Y13590D01*
X120174Y15702D02*
X113506Y15702D01*
D13*
X168339Y303212D02*
X168339Y308928D01*
X168339Y303212D02*
X161353Y303212D01*
X161353Y308928D01*
X168339Y308928D01*
X168339Y305022D02*
X161353Y305022D01*
X161353Y306832D02*
X168339Y306832D01*
X168339Y308642D02*
X161353Y308642D01*
X168339Y318452D02*
X168339Y324168D01*
X168339Y318452D02*
X161353Y318452D01*
X161353Y324168D01*
X168339Y324168D01*
X168339Y320262D02*
X161353Y320262D01*
X161353Y322072D02*
X168339Y322072D01*
X168339Y323882D02*
X161353Y323882D01*
D10*
X152940Y309404D02*
X152940Y302736D01*
X146272Y302736D01*
X146272Y309404D01*
X152940Y309404D01*
X152940Y304848D02*
X146272Y304848D01*
X146272Y306960D02*
X152940Y306960D01*
X152940Y309072D02*
X146272Y309072D01*
X152940Y317976D02*
X152940Y324644D01*
X152940Y317976D02*
X146272Y317976D01*
X146272Y324644D01*
X152940Y324644D01*
X152940Y320088D02*
X146272Y320088D01*
X146272Y322200D02*
X152940Y322200D01*
X152940Y324312D02*
X146272Y324312D01*
D14*
X82550Y258826D03*
X82550Y268224D03*
X82550Y277622D03*
X59690Y277622D03*
X59690Y268224D03*
X59690Y258826D03*
D15*
X58616Y206500D02*
X53116Y206500D01*
X53116Y238000D01*
X58616Y238000D01*
X58616Y206500D01*
X58616Y211725D02*
X53116Y211725D01*
X53116Y216950D02*
X58616Y216950D01*
X58616Y222175D02*
X53116Y222175D01*
X53116Y227400D02*
X58616Y227400D01*
X58616Y232625D02*
X53116Y232625D01*
X53116Y237850D02*
X58616Y237850D01*
X83116Y206500D02*
X88616Y206500D01*
X83116Y206500D02*
X83116Y238000D01*
X88616Y238000D01*
X88616Y206500D01*
X88616Y211725D02*
X83116Y211725D01*
X83116Y216950D02*
X88616Y216950D01*
X88616Y222175D02*
X83116Y222175D01*
X83116Y227400D02*
X88616Y227400D01*
X88616Y232625D02*
X83116Y232625D01*
X83116Y237850D02*
X88616Y237850D01*
D16*
X112776Y273150D03*
X112776Y222150D03*
D17*
X39116Y277241D02*
X31496Y277241D01*
X39116Y277241D02*
X39116Y265811D01*
X31496Y265811D01*
X31496Y277241D01*
X31496Y268224D02*
X39116Y268224D01*
X39116Y270637D02*
X31496Y270637D01*
X31496Y273050D02*
X39116Y273050D01*
X39116Y275463D02*
X31496Y275463D01*
X21336Y277241D02*
X13716Y277241D01*
X21336Y277241D02*
X21336Y265811D01*
X13716Y265811D01*
X13716Y277241D01*
X13716Y268224D02*
X21336Y268224D01*
X21336Y270637D02*
X13716Y270637D01*
X13716Y273050D02*
X21336Y273050D01*
X21336Y275463D02*
X13716Y275463D01*
X135763Y278384D02*
X135763Y270764D01*
X135763Y278384D02*
X147193Y278384D01*
X147193Y270764D01*
X135763Y270764D01*
X135763Y273177D02*
X147193Y273177D01*
X147193Y275590D02*
X135763Y275590D01*
X135763Y278003D02*
X147193Y278003D01*
X135763Y260604D02*
X135763Y252984D01*
X135763Y260604D02*
X147193Y260604D01*
X147193Y252984D01*
X135763Y252984D01*
X135763Y255397D02*
X147193Y255397D01*
X147193Y257810D02*
X135763Y257810D01*
X135763Y260223D02*
X147193Y260223D01*
D10*
X102394Y290544D02*
X95726Y290544D01*
X95726Y297212D01*
X102394Y297212D01*
X102394Y290544D01*
X102394Y292656D02*
X95726Y292656D01*
X95726Y294768D02*
X102394Y294768D01*
X102394Y296880D02*
X95726Y296880D01*
X110966Y290544D02*
X117634Y290544D01*
X110966Y290544D02*
X110966Y297212D01*
X117634Y297212D01*
X117634Y290544D01*
X117634Y292656D02*
X110966Y292656D01*
X110966Y294768D02*
X117634Y294768D01*
X117634Y296880D02*
X110966Y296880D01*
X110966Y311944D02*
X117634Y311944D01*
X117634Y305276D01*
X110966Y305276D01*
X110966Y311944D01*
X110966Y307388D02*
X117634Y307388D01*
X117634Y309500D02*
X110966Y309500D01*
X110966Y311612D02*
X117634Y311612D01*
X102394Y311944D02*
X95726Y311944D01*
X102394Y311944D02*
X102394Y305276D01*
X95726Y305276D01*
X95726Y311944D01*
X95726Y307388D02*
X102394Y307388D01*
X102394Y309500D02*
X95726Y309500D01*
X95726Y311612D02*
X102394Y311612D01*
X175228Y277908D02*
X175228Y271240D01*
X175228Y277908D02*
X181896Y277908D01*
X181896Y271240D01*
X175228Y271240D01*
X175228Y273352D02*
X181896Y273352D01*
X181896Y275464D02*
X175228Y275464D01*
X175228Y277576D02*
X181896Y277576D01*
X175228Y262668D02*
X175228Y256000D01*
X175228Y262668D02*
X181896Y262668D01*
X181896Y256000D01*
X175228Y256000D01*
X175228Y258112D02*
X181896Y258112D01*
X181896Y260224D02*
X175228Y260224D01*
X175228Y262336D02*
X181896Y262336D01*
D17*
X155575Y270764D02*
X155575Y278384D01*
X167005Y278384D01*
X167005Y270764D01*
X155575Y270764D01*
X155575Y273177D02*
X167005Y273177D01*
X167005Y275590D02*
X155575Y275590D01*
X155575Y278003D02*
X167005Y278003D01*
X155575Y260604D02*
X155575Y252984D01*
X155575Y260604D02*
X167005Y260604D01*
X167005Y252984D01*
X155575Y252984D01*
X155575Y255397D02*
X167005Y255397D01*
X167005Y257810D02*
X155575Y257810D01*
X155575Y260223D02*
X167005Y260223D01*
M02*
