G04 EAGLE Gerber RS-274X export*
G75*
%MOMM*%
%FSLAX34Y34*%
%LPD*%
%IN*%
%IPPOS*%
%AMOC8*
5,1,8,0,0,1.08239X$1,22.5*%
G01*
%ADD10C,0.025400*%
%ADD11C,0.000000*%


D10*
X0Y337300D02*
X0Y12700D01*
X4Y12393D01*
X15Y12086D01*
X33Y11780D01*
X59Y11474D01*
X93Y11169D01*
X133Y10865D01*
X181Y10562D01*
X237Y10260D01*
X299Y9960D01*
X369Y9661D01*
X446Y9364D01*
X530Y9068D01*
X622Y8775D01*
X720Y8485D01*
X825Y8197D01*
X938Y7911D01*
X1057Y7628D01*
X1183Y7348D01*
X1315Y7071D01*
X1455Y6798D01*
X1601Y6528D01*
X1753Y6262D01*
X1912Y5999D01*
X2077Y5740D01*
X2248Y5486D01*
X2425Y5235D01*
X2609Y4989D01*
X2798Y4747D01*
X2993Y4511D01*
X3194Y4278D01*
X3400Y4051D01*
X3612Y3829D01*
X3829Y3612D01*
X4051Y3400D01*
X4278Y3194D01*
X4511Y2993D01*
X4747Y2798D01*
X4989Y2609D01*
X5235Y2425D01*
X5486Y2248D01*
X5740Y2077D01*
X5999Y1912D01*
X6262Y1753D01*
X6528Y1601D01*
X6798Y1455D01*
X7071Y1315D01*
X7348Y1183D01*
X7628Y1057D01*
X7911Y938D01*
X8197Y825D01*
X8485Y720D01*
X8775Y622D01*
X9068Y530D01*
X9364Y446D01*
X9661Y369D01*
X9960Y299D01*
X10260Y237D01*
X10562Y181D01*
X10865Y133D01*
X11169Y93D01*
X11474Y59D01*
X11780Y33D01*
X12086Y15D01*
X12393Y4D01*
X12700Y0D01*
X430900Y0D01*
X431207Y4D01*
X431514Y15D01*
X431820Y33D01*
X432126Y59D01*
X432431Y93D01*
X432735Y133D01*
X433038Y181D01*
X433340Y237D01*
X433640Y299D01*
X433939Y369D01*
X434236Y446D01*
X434532Y530D01*
X434825Y622D01*
X435115Y720D01*
X435403Y825D01*
X435689Y938D01*
X435972Y1057D01*
X436252Y1183D01*
X436529Y1315D01*
X436802Y1455D01*
X437072Y1601D01*
X437338Y1753D01*
X437601Y1912D01*
X437860Y2077D01*
X438114Y2248D01*
X438365Y2425D01*
X438611Y2609D01*
X438853Y2798D01*
X439089Y2993D01*
X439322Y3194D01*
X439549Y3400D01*
X439771Y3612D01*
X439988Y3829D01*
X440200Y4051D01*
X440406Y4278D01*
X440607Y4511D01*
X440802Y4747D01*
X440991Y4989D01*
X441175Y5235D01*
X441352Y5486D01*
X441523Y5740D01*
X441688Y5999D01*
X441847Y6262D01*
X441999Y6528D01*
X442145Y6798D01*
X442285Y7071D01*
X442417Y7348D01*
X442543Y7628D01*
X442662Y7911D01*
X442775Y8197D01*
X442880Y8485D01*
X442978Y8775D01*
X443070Y9068D01*
X443154Y9364D01*
X443231Y9661D01*
X443301Y9960D01*
X443363Y10260D01*
X443419Y10562D01*
X443467Y10865D01*
X443507Y11169D01*
X443541Y11474D01*
X443567Y11780D01*
X443585Y12086D01*
X443596Y12393D01*
X443600Y12700D01*
X443600Y337300D01*
X443596Y337607D01*
X443585Y337914D01*
X443567Y338220D01*
X443541Y338526D01*
X443507Y338831D01*
X443467Y339135D01*
X443419Y339438D01*
X443363Y339740D01*
X443301Y340040D01*
X443231Y340339D01*
X443154Y340636D01*
X443070Y340932D01*
X442978Y341225D01*
X442880Y341515D01*
X442775Y341803D01*
X442662Y342089D01*
X442543Y342372D01*
X442417Y342652D01*
X442285Y342929D01*
X442145Y343202D01*
X441999Y343472D01*
X441847Y343738D01*
X441688Y344001D01*
X441523Y344260D01*
X441352Y344514D01*
X441175Y344765D01*
X440991Y345011D01*
X440802Y345253D01*
X440607Y345489D01*
X440406Y345722D01*
X440200Y345949D01*
X439988Y346171D01*
X439771Y346388D01*
X439549Y346600D01*
X439322Y346806D01*
X439089Y347007D01*
X438853Y347202D01*
X438611Y347391D01*
X438365Y347575D01*
X438114Y347752D01*
X437860Y347923D01*
X437601Y348088D01*
X437338Y348247D01*
X437072Y348399D01*
X436802Y348545D01*
X436529Y348685D01*
X436252Y348817D01*
X435972Y348943D01*
X435689Y349062D01*
X435403Y349175D01*
X435115Y349280D01*
X434825Y349378D01*
X434532Y349470D01*
X434236Y349554D01*
X433939Y349631D01*
X433640Y349701D01*
X433340Y349763D01*
X433038Y349819D01*
X432735Y349867D01*
X432431Y349907D01*
X432126Y349941D01*
X431820Y349967D01*
X431514Y349985D01*
X431207Y349996D01*
X430900Y350000D01*
X12700Y350000D01*
X12393Y349996D01*
X12086Y349985D01*
X11780Y349967D01*
X11474Y349941D01*
X11169Y349907D01*
X10865Y349867D01*
X10562Y349819D01*
X10260Y349763D01*
X9960Y349701D01*
X9661Y349631D01*
X9364Y349554D01*
X9068Y349470D01*
X8775Y349378D01*
X8485Y349280D01*
X8197Y349175D01*
X7911Y349062D01*
X7628Y348943D01*
X7348Y348817D01*
X7071Y348685D01*
X6798Y348545D01*
X6528Y348399D01*
X6262Y348247D01*
X5999Y348088D01*
X5740Y347923D01*
X5486Y347752D01*
X5235Y347575D01*
X4989Y347391D01*
X4747Y347202D01*
X4511Y347007D01*
X4278Y346806D01*
X4051Y346600D01*
X3829Y346388D01*
X3612Y346171D01*
X3400Y345949D01*
X3194Y345722D01*
X2993Y345489D01*
X2798Y345253D01*
X2609Y345011D01*
X2425Y344765D01*
X2248Y344514D01*
X2077Y344260D01*
X1912Y344001D01*
X1753Y343738D01*
X1601Y343472D01*
X1455Y343202D01*
X1315Y342929D01*
X1183Y342652D01*
X1057Y342372D01*
X938Y342089D01*
X825Y341803D01*
X720Y341515D01*
X622Y341225D01*
X530Y340932D01*
X446Y340636D01*
X369Y340339D01*
X299Y340040D01*
X237Y339740D01*
X181Y339438D01*
X133Y339135D01*
X93Y338831D01*
X59Y338526D01*
X33Y338220D01*
X15Y337914D01*
X4Y337607D01*
X0Y337300D01*
D11*
X15000Y325000D02*
X15003Y325245D01*
X15012Y325491D01*
X15027Y325736D01*
X15048Y325980D01*
X15075Y326224D01*
X15108Y326467D01*
X15147Y326710D01*
X15192Y326951D01*
X15243Y327191D01*
X15300Y327430D01*
X15362Y327667D01*
X15431Y327903D01*
X15505Y328137D01*
X15585Y328369D01*
X15670Y328599D01*
X15761Y328827D01*
X15858Y329052D01*
X15960Y329276D01*
X16068Y329496D01*
X16181Y329714D01*
X16299Y329929D01*
X16423Y330141D01*
X16551Y330350D01*
X16685Y330556D01*
X16824Y330758D01*
X16968Y330957D01*
X17117Y331152D01*
X17270Y331344D01*
X17428Y331532D01*
X17590Y331716D01*
X17758Y331895D01*
X17929Y332071D01*
X18105Y332242D01*
X18284Y332410D01*
X18468Y332572D01*
X18656Y332730D01*
X18848Y332883D01*
X19043Y333032D01*
X19242Y333176D01*
X19444Y333315D01*
X19650Y333449D01*
X19859Y333577D01*
X20071Y333701D01*
X20286Y333819D01*
X20504Y333932D01*
X20724Y334040D01*
X20948Y334142D01*
X21173Y334239D01*
X21401Y334330D01*
X21631Y334415D01*
X21863Y334495D01*
X22097Y334569D01*
X22333Y334638D01*
X22570Y334700D01*
X22809Y334757D01*
X23049Y334808D01*
X23290Y334853D01*
X23533Y334892D01*
X23776Y334925D01*
X24020Y334952D01*
X24264Y334973D01*
X24509Y334988D01*
X24755Y334997D01*
X25000Y335000D01*
X25245Y334997D01*
X25491Y334988D01*
X25736Y334973D01*
X25980Y334952D01*
X26224Y334925D01*
X26467Y334892D01*
X26710Y334853D01*
X26951Y334808D01*
X27191Y334757D01*
X27430Y334700D01*
X27667Y334638D01*
X27903Y334569D01*
X28137Y334495D01*
X28369Y334415D01*
X28599Y334330D01*
X28827Y334239D01*
X29052Y334142D01*
X29276Y334040D01*
X29496Y333932D01*
X29714Y333819D01*
X29929Y333701D01*
X30141Y333577D01*
X30350Y333449D01*
X30556Y333315D01*
X30758Y333176D01*
X30957Y333032D01*
X31152Y332883D01*
X31344Y332730D01*
X31532Y332572D01*
X31716Y332410D01*
X31895Y332242D01*
X32071Y332071D01*
X32242Y331895D01*
X32410Y331716D01*
X32572Y331532D01*
X32730Y331344D01*
X32883Y331152D01*
X33032Y330957D01*
X33176Y330758D01*
X33315Y330556D01*
X33449Y330350D01*
X33577Y330141D01*
X33701Y329929D01*
X33819Y329714D01*
X33932Y329496D01*
X34040Y329276D01*
X34142Y329052D01*
X34239Y328827D01*
X34330Y328599D01*
X34415Y328369D01*
X34495Y328137D01*
X34569Y327903D01*
X34638Y327667D01*
X34700Y327430D01*
X34757Y327191D01*
X34808Y326951D01*
X34853Y326710D01*
X34892Y326467D01*
X34925Y326224D01*
X34952Y325980D01*
X34973Y325736D01*
X34988Y325491D01*
X34997Y325245D01*
X35000Y325000D01*
X34997Y324755D01*
X34988Y324509D01*
X34973Y324264D01*
X34952Y324020D01*
X34925Y323776D01*
X34892Y323533D01*
X34853Y323290D01*
X34808Y323049D01*
X34757Y322809D01*
X34700Y322570D01*
X34638Y322333D01*
X34569Y322097D01*
X34495Y321863D01*
X34415Y321631D01*
X34330Y321401D01*
X34239Y321173D01*
X34142Y320948D01*
X34040Y320724D01*
X33932Y320504D01*
X33819Y320286D01*
X33701Y320071D01*
X33577Y319859D01*
X33449Y319650D01*
X33315Y319444D01*
X33176Y319242D01*
X33032Y319043D01*
X32883Y318848D01*
X32730Y318656D01*
X32572Y318468D01*
X32410Y318284D01*
X32242Y318105D01*
X32071Y317929D01*
X31895Y317758D01*
X31716Y317590D01*
X31532Y317428D01*
X31344Y317270D01*
X31152Y317117D01*
X30957Y316968D01*
X30758Y316824D01*
X30556Y316685D01*
X30350Y316551D01*
X30141Y316423D01*
X29929Y316299D01*
X29714Y316181D01*
X29496Y316068D01*
X29276Y315960D01*
X29052Y315858D01*
X28827Y315761D01*
X28599Y315670D01*
X28369Y315585D01*
X28137Y315505D01*
X27903Y315431D01*
X27667Y315362D01*
X27430Y315300D01*
X27191Y315243D01*
X26951Y315192D01*
X26710Y315147D01*
X26467Y315108D01*
X26224Y315075D01*
X25980Y315048D01*
X25736Y315027D01*
X25491Y315012D01*
X25245Y315003D01*
X25000Y315000D01*
X24755Y315003D01*
X24509Y315012D01*
X24264Y315027D01*
X24020Y315048D01*
X23776Y315075D01*
X23533Y315108D01*
X23290Y315147D01*
X23049Y315192D01*
X22809Y315243D01*
X22570Y315300D01*
X22333Y315362D01*
X22097Y315431D01*
X21863Y315505D01*
X21631Y315585D01*
X21401Y315670D01*
X21173Y315761D01*
X20948Y315858D01*
X20724Y315960D01*
X20504Y316068D01*
X20286Y316181D01*
X20071Y316299D01*
X19859Y316423D01*
X19650Y316551D01*
X19444Y316685D01*
X19242Y316824D01*
X19043Y316968D01*
X18848Y317117D01*
X18656Y317270D01*
X18468Y317428D01*
X18284Y317590D01*
X18105Y317758D01*
X17929Y317929D01*
X17758Y318105D01*
X17590Y318284D01*
X17428Y318468D01*
X17270Y318656D01*
X17117Y318848D01*
X16968Y319043D01*
X16824Y319242D01*
X16685Y319444D01*
X16551Y319650D01*
X16423Y319859D01*
X16299Y320071D01*
X16181Y320286D01*
X16068Y320504D01*
X15960Y320724D01*
X15858Y320948D01*
X15761Y321173D01*
X15670Y321401D01*
X15585Y321631D01*
X15505Y321863D01*
X15431Y322097D01*
X15362Y322333D01*
X15300Y322570D01*
X15243Y322809D01*
X15192Y323049D01*
X15147Y323290D01*
X15108Y323533D01*
X15075Y323776D01*
X15048Y324020D01*
X15027Y324264D01*
X15012Y324509D01*
X15003Y324755D01*
X15000Y325000D01*
X345000Y25000D02*
X345003Y25245D01*
X345012Y25491D01*
X345027Y25736D01*
X345048Y25980D01*
X345075Y26224D01*
X345108Y26467D01*
X345147Y26710D01*
X345192Y26951D01*
X345243Y27191D01*
X345300Y27430D01*
X345362Y27667D01*
X345431Y27903D01*
X345505Y28137D01*
X345585Y28369D01*
X345670Y28599D01*
X345761Y28827D01*
X345858Y29052D01*
X345960Y29276D01*
X346068Y29496D01*
X346181Y29714D01*
X346299Y29929D01*
X346423Y30141D01*
X346551Y30350D01*
X346685Y30556D01*
X346824Y30758D01*
X346968Y30957D01*
X347117Y31152D01*
X347270Y31344D01*
X347428Y31532D01*
X347590Y31716D01*
X347758Y31895D01*
X347929Y32071D01*
X348105Y32242D01*
X348284Y32410D01*
X348468Y32572D01*
X348656Y32730D01*
X348848Y32883D01*
X349043Y33032D01*
X349242Y33176D01*
X349444Y33315D01*
X349650Y33449D01*
X349859Y33577D01*
X350071Y33701D01*
X350286Y33819D01*
X350504Y33932D01*
X350724Y34040D01*
X350948Y34142D01*
X351173Y34239D01*
X351401Y34330D01*
X351631Y34415D01*
X351863Y34495D01*
X352097Y34569D01*
X352333Y34638D01*
X352570Y34700D01*
X352809Y34757D01*
X353049Y34808D01*
X353290Y34853D01*
X353533Y34892D01*
X353776Y34925D01*
X354020Y34952D01*
X354264Y34973D01*
X354509Y34988D01*
X354755Y34997D01*
X355000Y35000D01*
X355245Y34997D01*
X355491Y34988D01*
X355736Y34973D01*
X355980Y34952D01*
X356224Y34925D01*
X356467Y34892D01*
X356710Y34853D01*
X356951Y34808D01*
X357191Y34757D01*
X357430Y34700D01*
X357667Y34638D01*
X357903Y34569D01*
X358137Y34495D01*
X358369Y34415D01*
X358599Y34330D01*
X358827Y34239D01*
X359052Y34142D01*
X359276Y34040D01*
X359496Y33932D01*
X359714Y33819D01*
X359929Y33701D01*
X360141Y33577D01*
X360350Y33449D01*
X360556Y33315D01*
X360758Y33176D01*
X360957Y33032D01*
X361152Y32883D01*
X361344Y32730D01*
X361532Y32572D01*
X361716Y32410D01*
X361895Y32242D01*
X362071Y32071D01*
X362242Y31895D01*
X362410Y31716D01*
X362572Y31532D01*
X362730Y31344D01*
X362883Y31152D01*
X363032Y30957D01*
X363176Y30758D01*
X363315Y30556D01*
X363449Y30350D01*
X363577Y30141D01*
X363701Y29929D01*
X363819Y29714D01*
X363932Y29496D01*
X364040Y29276D01*
X364142Y29052D01*
X364239Y28827D01*
X364330Y28599D01*
X364415Y28369D01*
X364495Y28137D01*
X364569Y27903D01*
X364638Y27667D01*
X364700Y27430D01*
X364757Y27191D01*
X364808Y26951D01*
X364853Y26710D01*
X364892Y26467D01*
X364925Y26224D01*
X364952Y25980D01*
X364973Y25736D01*
X364988Y25491D01*
X364997Y25245D01*
X365000Y25000D01*
X364997Y24755D01*
X364988Y24509D01*
X364973Y24264D01*
X364952Y24020D01*
X364925Y23776D01*
X364892Y23533D01*
X364853Y23290D01*
X364808Y23049D01*
X364757Y22809D01*
X364700Y22570D01*
X364638Y22333D01*
X364569Y22097D01*
X364495Y21863D01*
X364415Y21631D01*
X364330Y21401D01*
X364239Y21173D01*
X364142Y20948D01*
X364040Y20724D01*
X363932Y20504D01*
X363819Y20286D01*
X363701Y20071D01*
X363577Y19859D01*
X363449Y19650D01*
X363315Y19444D01*
X363176Y19242D01*
X363032Y19043D01*
X362883Y18848D01*
X362730Y18656D01*
X362572Y18468D01*
X362410Y18284D01*
X362242Y18105D01*
X362071Y17929D01*
X361895Y17758D01*
X361716Y17590D01*
X361532Y17428D01*
X361344Y17270D01*
X361152Y17117D01*
X360957Y16968D01*
X360758Y16824D01*
X360556Y16685D01*
X360350Y16551D01*
X360141Y16423D01*
X359929Y16299D01*
X359714Y16181D01*
X359496Y16068D01*
X359276Y15960D01*
X359052Y15858D01*
X358827Y15761D01*
X358599Y15670D01*
X358369Y15585D01*
X358137Y15505D01*
X357903Y15431D01*
X357667Y15362D01*
X357430Y15300D01*
X357191Y15243D01*
X356951Y15192D01*
X356710Y15147D01*
X356467Y15108D01*
X356224Y15075D01*
X355980Y15048D01*
X355736Y15027D01*
X355491Y15012D01*
X355245Y15003D01*
X355000Y15000D01*
X354755Y15003D01*
X354509Y15012D01*
X354264Y15027D01*
X354020Y15048D01*
X353776Y15075D01*
X353533Y15108D01*
X353290Y15147D01*
X353049Y15192D01*
X352809Y15243D01*
X352570Y15300D01*
X352333Y15362D01*
X352097Y15431D01*
X351863Y15505D01*
X351631Y15585D01*
X351401Y15670D01*
X351173Y15761D01*
X350948Y15858D01*
X350724Y15960D01*
X350504Y16068D01*
X350286Y16181D01*
X350071Y16299D01*
X349859Y16423D01*
X349650Y16551D01*
X349444Y16685D01*
X349242Y16824D01*
X349043Y16968D01*
X348848Y17117D01*
X348656Y17270D01*
X348468Y17428D01*
X348284Y17590D01*
X348105Y17758D01*
X347929Y17929D01*
X347758Y18105D01*
X347590Y18284D01*
X347428Y18468D01*
X347270Y18656D01*
X347117Y18848D01*
X346968Y19043D01*
X346824Y19242D01*
X346685Y19444D01*
X346551Y19650D01*
X346423Y19859D01*
X346299Y20071D01*
X346181Y20286D01*
X346068Y20504D01*
X345960Y20724D01*
X345858Y20948D01*
X345761Y21173D01*
X345670Y21401D01*
X345585Y21631D01*
X345505Y21863D01*
X345431Y22097D01*
X345362Y22333D01*
X345300Y22570D01*
X345243Y22809D01*
X345192Y23049D01*
X345147Y23290D01*
X345108Y23533D01*
X345075Y23776D01*
X345048Y24020D01*
X345027Y24264D01*
X345012Y24509D01*
X345003Y24755D01*
X345000Y25000D01*
X395000Y56200D02*
X395005Y56568D01*
X395018Y56936D01*
X395041Y57303D01*
X395072Y57670D01*
X395113Y58036D01*
X395162Y58401D01*
X395221Y58764D01*
X395288Y59126D01*
X395364Y59487D01*
X395450Y59845D01*
X395543Y60201D01*
X395646Y60554D01*
X395757Y60905D01*
X395877Y61253D01*
X396005Y61598D01*
X396142Y61940D01*
X396287Y62279D01*
X396440Y62613D01*
X396602Y62944D01*
X396771Y63271D01*
X396949Y63593D01*
X397134Y63912D01*
X397327Y64225D01*
X397528Y64534D01*
X397736Y64837D01*
X397952Y65135D01*
X398175Y65428D01*
X398405Y65716D01*
X398642Y65998D01*
X398886Y66273D01*
X399136Y66543D01*
X399393Y66807D01*
X399657Y67064D01*
X399927Y67314D01*
X400202Y67558D01*
X400484Y67795D01*
X400772Y68025D01*
X401065Y68248D01*
X401363Y68464D01*
X401666Y68672D01*
X401975Y68873D01*
X402288Y69066D01*
X402607Y69251D01*
X402929Y69429D01*
X403256Y69598D01*
X403587Y69760D01*
X403921Y69913D01*
X404260Y70058D01*
X404602Y70195D01*
X404947Y70323D01*
X405295Y70443D01*
X405646Y70554D01*
X405999Y70657D01*
X406355Y70750D01*
X406713Y70836D01*
X407074Y70912D01*
X407436Y70979D01*
X407799Y71038D01*
X408164Y71087D01*
X408530Y71128D01*
X408897Y71159D01*
X409264Y71182D01*
X409632Y71195D01*
X410000Y71200D01*
X410368Y71195D01*
X410736Y71182D01*
X411103Y71159D01*
X411470Y71128D01*
X411836Y71087D01*
X412201Y71038D01*
X412564Y70979D01*
X412926Y70912D01*
X413287Y70836D01*
X413645Y70750D01*
X414001Y70657D01*
X414354Y70554D01*
X414705Y70443D01*
X415053Y70323D01*
X415398Y70195D01*
X415740Y70058D01*
X416079Y69913D01*
X416413Y69760D01*
X416744Y69598D01*
X417071Y69429D01*
X417393Y69251D01*
X417712Y69066D01*
X418025Y68873D01*
X418334Y68672D01*
X418637Y68464D01*
X418935Y68248D01*
X419228Y68025D01*
X419516Y67795D01*
X419798Y67558D01*
X420073Y67314D01*
X420343Y67064D01*
X420607Y66807D01*
X420864Y66543D01*
X421114Y66273D01*
X421358Y65998D01*
X421595Y65716D01*
X421825Y65428D01*
X422048Y65135D01*
X422264Y64837D01*
X422472Y64534D01*
X422673Y64225D01*
X422866Y63912D01*
X423051Y63593D01*
X423229Y63271D01*
X423398Y62944D01*
X423560Y62613D01*
X423713Y62279D01*
X423858Y61940D01*
X423995Y61598D01*
X424123Y61253D01*
X424243Y60905D01*
X424354Y60554D01*
X424457Y60201D01*
X424550Y59845D01*
X424636Y59487D01*
X424712Y59126D01*
X424779Y58764D01*
X424838Y58401D01*
X424887Y58036D01*
X424928Y57670D01*
X424959Y57303D01*
X424982Y56936D01*
X424995Y56568D01*
X425000Y56200D01*
X424995Y55832D01*
X424982Y55464D01*
X424959Y55097D01*
X424928Y54730D01*
X424887Y54364D01*
X424838Y53999D01*
X424779Y53636D01*
X424712Y53274D01*
X424636Y52913D01*
X424550Y52555D01*
X424457Y52199D01*
X424354Y51846D01*
X424243Y51495D01*
X424123Y51147D01*
X423995Y50802D01*
X423858Y50460D01*
X423713Y50121D01*
X423560Y49787D01*
X423398Y49456D01*
X423229Y49129D01*
X423051Y48807D01*
X422866Y48488D01*
X422673Y48175D01*
X422472Y47866D01*
X422264Y47563D01*
X422048Y47265D01*
X421825Y46972D01*
X421595Y46684D01*
X421358Y46402D01*
X421114Y46127D01*
X420864Y45857D01*
X420607Y45593D01*
X420343Y45336D01*
X420073Y45086D01*
X419798Y44842D01*
X419516Y44605D01*
X419228Y44375D01*
X418935Y44152D01*
X418637Y43936D01*
X418334Y43728D01*
X418025Y43527D01*
X417712Y43334D01*
X417393Y43149D01*
X417071Y42971D01*
X416744Y42802D01*
X416413Y42640D01*
X416079Y42487D01*
X415740Y42342D01*
X415398Y42205D01*
X415053Y42077D01*
X414705Y41957D01*
X414354Y41846D01*
X414001Y41743D01*
X413645Y41650D01*
X413287Y41564D01*
X412926Y41488D01*
X412564Y41421D01*
X412201Y41362D01*
X411836Y41313D01*
X411470Y41272D01*
X411103Y41241D01*
X410736Y41218D01*
X410368Y41205D01*
X410000Y41200D01*
X409632Y41205D01*
X409264Y41218D01*
X408897Y41241D01*
X408530Y41272D01*
X408164Y41313D01*
X407799Y41362D01*
X407436Y41421D01*
X407074Y41488D01*
X406713Y41564D01*
X406355Y41650D01*
X405999Y41743D01*
X405646Y41846D01*
X405295Y41957D01*
X404947Y42077D01*
X404602Y42205D01*
X404260Y42342D01*
X403921Y42487D01*
X403587Y42640D01*
X403256Y42802D01*
X402929Y42971D01*
X402607Y43149D01*
X402288Y43334D01*
X401975Y43527D01*
X401666Y43728D01*
X401363Y43936D01*
X401065Y44152D01*
X400772Y44375D01*
X400484Y44605D01*
X400202Y44842D01*
X399927Y45086D01*
X399657Y45336D01*
X399393Y45593D01*
X399136Y45857D01*
X398886Y46127D01*
X398642Y46402D01*
X398405Y46684D01*
X398175Y46972D01*
X397952Y47265D01*
X397736Y47563D01*
X397528Y47866D01*
X397327Y48175D01*
X397134Y48488D01*
X396949Y48807D01*
X396771Y49129D01*
X396602Y49456D01*
X396440Y49787D01*
X396287Y50121D01*
X396142Y50460D01*
X396005Y50802D01*
X395877Y51147D01*
X395757Y51495D01*
X395646Y51846D01*
X395543Y52199D01*
X395450Y52555D01*
X395364Y52913D01*
X395288Y53274D01*
X395221Y53636D01*
X395162Y53999D01*
X395113Y54364D01*
X395072Y54730D01*
X395041Y55097D01*
X395018Y55464D01*
X395005Y55832D01*
X395000Y56200D01*
X395000Y310200D02*
X395005Y310568D01*
X395018Y310936D01*
X395041Y311303D01*
X395072Y311670D01*
X395113Y312036D01*
X395162Y312401D01*
X395221Y312764D01*
X395288Y313126D01*
X395364Y313487D01*
X395450Y313845D01*
X395543Y314201D01*
X395646Y314554D01*
X395757Y314905D01*
X395877Y315253D01*
X396005Y315598D01*
X396142Y315940D01*
X396287Y316279D01*
X396440Y316613D01*
X396602Y316944D01*
X396771Y317271D01*
X396949Y317593D01*
X397134Y317912D01*
X397327Y318225D01*
X397528Y318534D01*
X397736Y318837D01*
X397952Y319135D01*
X398175Y319428D01*
X398405Y319716D01*
X398642Y319998D01*
X398886Y320273D01*
X399136Y320543D01*
X399393Y320807D01*
X399657Y321064D01*
X399927Y321314D01*
X400202Y321558D01*
X400484Y321795D01*
X400772Y322025D01*
X401065Y322248D01*
X401363Y322464D01*
X401666Y322672D01*
X401975Y322873D01*
X402288Y323066D01*
X402607Y323251D01*
X402929Y323429D01*
X403256Y323598D01*
X403587Y323760D01*
X403921Y323913D01*
X404260Y324058D01*
X404602Y324195D01*
X404947Y324323D01*
X405295Y324443D01*
X405646Y324554D01*
X405999Y324657D01*
X406355Y324750D01*
X406713Y324836D01*
X407074Y324912D01*
X407436Y324979D01*
X407799Y325038D01*
X408164Y325087D01*
X408530Y325128D01*
X408897Y325159D01*
X409264Y325182D01*
X409632Y325195D01*
X410000Y325200D01*
X410368Y325195D01*
X410736Y325182D01*
X411103Y325159D01*
X411470Y325128D01*
X411836Y325087D01*
X412201Y325038D01*
X412564Y324979D01*
X412926Y324912D01*
X413287Y324836D01*
X413645Y324750D01*
X414001Y324657D01*
X414354Y324554D01*
X414705Y324443D01*
X415053Y324323D01*
X415398Y324195D01*
X415740Y324058D01*
X416079Y323913D01*
X416413Y323760D01*
X416744Y323598D01*
X417071Y323429D01*
X417393Y323251D01*
X417712Y323066D01*
X418025Y322873D01*
X418334Y322672D01*
X418637Y322464D01*
X418935Y322248D01*
X419228Y322025D01*
X419516Y321795D01*
X419798Y321558D01*
X420073Y321314D01*
X420343Y321064D01*
X420607Y320807D01*
X420864Y320543D01*
X421114Y320273D01*
X421358Y319998D01*
X421595Y319716D01*
X421825Y319428D01*
X422048Y319135D01*
X422264Y318837D01*
X422472Y318534D01*
X422673Y318225D01*
X422866Y317912D01*
X423051Y317593D01*
X423229Y317271D01*
X423398Y316944D01*
X423560Y316613D01*
X423713Y316279D01*
X423858Y315940D01*
X423995Y315598D01*
X424123Y315253D01*
X424243Y314905D01*
X424354Y314554D01*
X424457Y314201D01*
X424550Y313845D01*
X424636Y313487D01*
X424712Y313126D01*
X424779Y312764D01*
X424838Y312401D01*
X424887Y312036D01*
X424928Y311670D01*
X424959Y311303D01*
X424982Y310936D01*
X424995Y310568D01*
X425000Y310200D01*
X424995Y309832D01*
X424982Y309464D01*
X424959Y309097D01*
X424928Y308730D01*
X424887Y308364D01*
X424838Y307999D01*
X424779Y307636D01*
X424712Y307274D01*
X424636Y306913D01*
X424550Y306555D01*
X424457Y306199D01*
X424354Y305846D01*
X424243Y305495D01*
X424123Y305147D01*
X423995Y304802D01*
X423858Y304460D01*
X423713Y304121D01*
X423560Y303787D01*
X423398Y303456D01*
X423229Y303129D01*
X423051Y302807D01*
X422866Y302488D01*
X422673Y302175D01*
X422472Y301866D01*
X422264Y301563D01*
X422048Y301265D01*
X421825Y300972D01*
X421595Y300684D01*
X421358Y300402D01*
X421114Y300127D01*
X420864Y299857D01*
X420607Y299593D01*
X420343Y299336D01*
X420073Y299086D01*
X419798Y298842D01*
X419516Y298605D01*
X419228Y298375D01*
X418935Y298152D01*
X418637Y297936D01*
X418334Y297728D01*
X418025Y297527D01*
X417712Y297334D01*
X417393Y297149D01*
X417071Y296971D01*
X416744Y296802D01*
X416413Y296640D01*
X416079Y296487D01*
X415740Y296342D01*
X415398Y296205D01*
X415053Y296077D01*
X414705Y295957D01*
X414354Y295846D01*
X414001Y295743D01*
X413645Y295650D01*
X413287Y295564D01*
X412926Y295488D01*
X412564Y295421D01*
X412201Y295362D01*
X411836Y295313D01*
X411470Y295272D01*
X411103Y295241D01*
X410736Y295218D01*
X410368Y295205D01*
X410000Y295200D01*
X409632Y295205D01*
X409264Y295218D01*
X408897Y295241D01*
X408530Y295272D01*
X408164Y295313D01*
X407799Y295362D01*
X407436Y295421D01*
X407074Y295488D01*
X406713Y295564D01*
X406355Y295650D01*
X405999Y295743D01*
X405646Y295846D01*
X405295Y295957D01*
X404947Y296077D01*
X404602Y296205D01*
X404260Y296342D01*
X403921Y296487D01*
X403587Y296640D01*
X403256Y296802D01*
X402929Y296971D01*
X402607Y297149D01*
X402288Y297334D01*
X401975Y297527D01*
X401666Y297728D01*
X401363Y297936D01*
X401065Y298152D01*
X400772Y298375D01*
X400484Y298605D01*
X400202Y298842D01*
X399927Y299086D01*
X399657Y299336D01*
X399393Y299593D01*
X399136Y299857D01*
X398886Y300127D01*
X398642Y300402D01*
X398405Y300684D01*
X398175Y300972D01*
X397952Y301265D01*
X397736Y301563D01*
X397528Y301866D01*
X397327Y302175D01*
X397134Y302488D01*
X396949Y302807D01*
X396771Y303129D01*
X396602Y303456D01*
X396440Y303787D01*
X396287Y304121D01*
X396142Y304460D01*
X396005Y304802D01*
X395877Y305147D01*
X395757Y305495D01*
X395646Y305846D01*
X395543Y306199D01*
X395450Y306555D01*
X395364Y306913D01*
X395288Y307274D01*
X395221Y307636D01*
X395162Y307999D01*
X395113Y308364D01*
X395072Y308730D01*
X395041Y309097D01*
X395018Y309464D01*
X395005Y309832D01*
X395000Y310200D01*
M02*
